<?xml version="1.0" encoding="utf-8"?>
<svg xmlns="http://www.w3.org/2000/svg" xmlns:xlink="http://www.w3.org/1999/xlink" width="600" height="400" viewBox="0 0 2400 1600">
<defs>
  <clipPath id="clip6700">
    <rect x="0" y="0" width="2400" height="1600"/>
  </clipPath>
</defs>
<polygon clip-path="url(#clip6700)" points="
0,1600 2400,1600 2400,0 0,0 
  " fill="#ffffff" fill-rule="evenodd" fill-opacity="1"/>
<defs>
  <clipPath id="clip6701">
    <rect x="480" y="0" width="1681" height="1600"/>
  </clipPath>
</defs>
<polygon clip-path="url(#clip6700)" points="
189.504,1503.47 2321.26,1503.47 2321.26,47.2441 189.504,47.2441 
  " fill="#ffffff" fill-rule="evenodd" fill-opacity="1"/>
<defs>
  <clipPath id="clip6702">
    <rect x="189" y="47" width="2133" height="1457"/>
  </clipPath>
</defs>
<polyline clip-path="url(#clip6702)" style="stroke:#000000; stroke-width:2; stroke-opacity:0.1; fill:none" points="
  249.837,1503.47 249.837,47.2441 
  "/>
<polyline clip-path="url(#clip6702)" style="stroke:#000000; stroke-width:2; stroke-opacity:0.1; fill:none" points="
  752.609,1503.47 752.609,47.2441 
  "/>
<polyline clip-path="url(#clip6702)" style="stroke:#000000; stroke-width:2; stroke-opacity:0.1; fill:none" points="
  1255.38,1503.47 1255.38,47.2441 
  "/>
<polyline clip-path="url(#clip6702)" style="stroke:#000000; stroke-width:2; stroke-opacity:0.1; fill:none" points="
  1758.15,1503.47 1758.15,47.2441 
  "/>
<polyline clip-path="url(#clip6702)" style="stroke:#000000; stroke-width:2; stroke-opacity:0.1; fill:none" points="
  2260.93,1503.47 2260.93,47.2441 
  "/>
<polyline clip-path="url(#clip6702)" style="stroke:#000000; stroke-width:2; stroke-opacity:0.1; fill:none" points="
  189.504,1397.11 2321.26,1397.11 
  "/>
<polyline clip-path="url(#clip6702)" style="stroke:#000000; stroke-width:2; stroke-opacity:0.1; fill:none" points="
  189.504,1089.31 2321.26,1089.31 
  "/>
<polyline clip-path="url(#clip6702)" style="stroke:#000000; stroke-width:2; stroke-opacity:0.1; fill:none" points="
  189.504,781.497 2321.26,781.497 
  "/>
<polyline clip-path="url(#clip6702)" style="stroke:#000000; stroke-width:2; stroke-opacity:0.1; fill:none" points="
  189.504,473.688 2321.26,473.688 
  "/>
<polyline clip-path="url(#clip6702)" style="stroke:#000000; stroke-width:2; stroke-opacity:0.1; fill:none" points="
  189.504,165.879 2321.26,165.879 
  "/>
<polyline clip-path="url(#clip6700)" style="stroke:#000000; stroke-width:4; stroke-opacity:1; fill:none" points="
  189.504,1503.47 2321.26,1503.47 
  "/>
<polyline clip-path="url(#clip6700)" style="stroke:#000000; stroke-width:4; stroke-opacity:1; fill:none" points="
  189.504,1503.47 189.504,47.2441 
  "/>
<polyline clip-path="url(#clip6700)" style="stroke:#000000; stroke-width:4; stroke-opacity:1; fill:none" points="
  249.837,1503.47 249.837,1481.63 
  "/>
<polyline clip-path="url(#clip6700)" style="stroke:#000000; stroke-width:4; stroke-opacity:1; fill:none" points="
  752.609,1503.47 752.609,1481.63 
  "/>
<polyline clip-path="url(#clip6700)" style="stroke:#000000; stroke-width:4; stroke-opacity:1; fill:none" points="
  1255.38,1503.47 1255.38,1481.63 
  "/>
<polyline clip-path="url(#clip6700)" style="stroke:#000000; stroke-width:4; stroke-opacity:1; fill:none" points="
  1758.15,1503.47 1758.15,1481.63 
  "/>
<polyline clip-path="url(#clip6700)" style="stroke:#000000; stroke-width:4; stroke-opacity:1; fill:none" points="
  2260.93,1503.47 2260.93,1481.63 
  "/>
<polyline clip-path="url(#clip6700)" style="stroke:#000000; stroke-width:4; stroke-opacity:1; fill:none" points="
  189.504,1397.11 221.48,1397.11 
  "/>
<polyline clip-path="url(#clip6700)" style="stroke:#000000; stroke-width:4; stroke-opacity:1; fill:none" points="
  189.504,1089.31 221.48,1089.31 
  "/>
<polyline clip-path="url(#clip6700)" style="stroke:#000000; stroke-width:4; stroke-opacity:1; fill:none" points="
  189.504,781.497 221.48,781.497 
  "/>
<polyline clip-path="url(#clip6700)" style="stroke:#000000; stroke-width:4; stroke-opacity:1; fill:none" points="
  189.504,473.688 221.48,473.688 
  "/>
<polyline clip-path="url(#clip6700)" style="stroke:#000000; stroke-width:4; stroke-opacity:1; fill:none" points="
  189.504,165.879 221.48,165.879 
  "/>
<g clip-path="url(#clip6700)">
<text style="fill:#000000; fill-opacity:1; font-family:Arial,Helvetica Neue,Helvetica,sans-serif; font-size:48px; text-anchor:middle;" transform="rotate(0, 249.837, 1557.47)" x="249.837" y="1557.47">0.00</text>
</g>
<g clip-path="url(#clip6700)">
<text style="fill:#000000; fill-opacity:1; font-family:Arial,Helvetica Neue,Helvetica,sans-serif; font-size:48px; text-anchor:middle;" transform="rotate(0, 752.609, 1557.47)" x="752.609" y="1557.47">0.25</text>
</g>
<g clip-path="url(#clip6700)">
<text style="fill:#000000; fill-opacity:1; font-family:Arial,Helvetica Neue,Helvetica,sans-serif; font-size:48px; text-anchor:middle;" transform="rotate(0, 1255.38, 1557.47)" x="1255.38" y="1557.47">0.50</text>
</g>
<g clip-path="url(#clip6700)">
<text style="fill:#000000; fill-opacity:1; font-family:Arial,Helvetica Neue,Helvetica,sans-serif; font-size:48px; text-anchor:middle;" transform="rotate(0, 1758.15, 1557.47)" x="1758.15" y="1557.47">0.75</text>
</g>
<g clip-path="url(#clip6700)">
<text style="fill:#000000; fill-opacity:1; font-family:Arial,Helvetica Neue,Helvetica,sans-serif; font-size:48px; text-anchor:middle;" transform="rotate(0, 2260.93, 1557.47)" x="2260.93" y="1557.47">1.00</text>
</g>
<g clip-path="url(#clip6700)">
<text style="fill:#000000; fill-opacity:1; font-family:Arial,Helvetica Neue,Helvetica,sans-serif; font-size:48px; text-anchor:end;" transform="rotate(0, 165.504, 1414.61)" x="165.504" y="1414.61">-1.0</text>
</g>
<g clip-path="url(#clip6700)">
<text style="fill:#000000; fill-opacity:1; font-family:Arial,Helvetica Neue,Helvetica,sans-serif; font-size:48px; text-anchor:end;" transform="rotate(0, 165.504, 1106.81)" x="165.504" y="1106.81">-0.5</text>
</g>
<g clip-path="url(#clip6700)">
<text style="fill:#000000; fill-opacity:1; font-family:Arial,Helvetica Neue,Helvetica,sans-serif; font-size:48px; text-anchor:end;" transform="rotate(0, 165.504, 798.997)" x="165.504" y="798.997">0.0</text>
</g>
<g clip-path="url(#clip6700)">
<text style="fill:#000000; fill-opacity:1; font-family:Arial,Helvetica Neue,Helvetica,sans-serif; font-size:48px; text-anchor:end;" transform="rotate(0, 165.504, 491.188)" x="165.504" y="491.188">0.5</text>
</g>
<g clip-path="url(#clip6700)">
<text style="fill:#000000; fill-opacity:1; font-family:Arial,Helvetica Neue,Helvetica,sans-serif; font-size:48px; text-anchor:end;" transform="rotate(0, 165.504, 183.379)" x="165.504" y="183.379">1.0</text>
</g>
<polyline clip-path="url(#clip6702)" style="stroke:#009af9; stroke-width:4; stroke-opacity:1; fill:none" points="
  249.837,224.611 251.803,140.848 253.769,218.81 255.734,202.483 257.7,115.798 259.666,193.604 261.632,228.423 263.598,146.179 265.564,223.875 267.53,171.128 
  269.496,104.455 271.461,221.733 273.427,111.702 275.393,152.33 277.359,134.623 279.325,108.942 281.291,177.016 283.257,231.214 285.223,173.055 287.188,121.792 
  289.154,122.752 291.12,181.485 293.086,193.345 295.052,146.065 297.018,193.678 298.984,145.376 300.95,141.446 302.915,198.86 304.881,209.521 306.847,176.392 
  308.813,211.459 310.779,262.888 312.745,180.027 314.711,182.154 316.677,149.426 318.642,191.981 320.608,169.376 322.574,227.944 324.54,154.138 326.506,199.122 
  328.472,192.189 330.438,202.67 332.404,199.313 334.369,179.657 336.335,168.974 338.301,127.298 340.267,162.454 342.233,141.468 344.199,261.134 346.165,183.387 
  348.131,178.781 350.096,278.877 352.062,248.915 354.028,209.61 355.994,260.68 357.96,232.543 359.926,192.114 361.892,178.096 363.858,264.351 365.823,201.171 
  367.789,267.98 369.755,231.311 371.721,212.819 373.687,239.4 375.653,147.002 377.619,268.405 379.585,228.359 381.55,201.39 383.516,209.082 385.482,199.104 
  387.448,173.34 389.414,214.071 391.38,216.927 393.346,217.13 395.312,168.529 397.277,211.705 399.243,228.512 401.209,294.633 403.175,188.62 405.141,210.237 
  407.107,280.972 409.073,177.589 411.039,227.254 413.004,202.666 414.97,256.16 416.936,219.091 418.902,223.616 420.868,261.797 422.834,258.961 424.8,249.067 
  426.766,217.907 428.731,209.671 430.697,292.738 432.663,233.817 434.629,262.147 436.595,260.795 438.561,347.192 440.527,321.097 442.493,235.815 444.458,299.02 
  446.424,284.854 448.39,316.069 450.356,333.605 452.322,336.685 454.288,355.947 456.254,279.119 458.22,362.748 460.185,307.189 462.151,317.904 464.117,351.792 
  466.083,288.913 468.049,314.351 470.015,311.269 471.981,317.978 473.947,325.836 475.912,304.769 477.878,382.873 479.844,339.058 481.81,348.063 483.776,361.913 
  485.742,333.805 487.708,341.763 489.674,338.545 491.639,367.317 493.605,305.204 495.571,339.931 497.537,348.604 499.503,369.942 501.469,285.756 503.435,352.116 
  505.401,351.297 507.366,354.441 509.332,356.443 511.298,368.347 513.264,334.425 515.23,309.528 517.196,309.544 519.162,373.907 521.128,306.773 523.093,398.196 
  525.059,385.867 527.025,434.987 528.991,444.466 530.957,323.781 532.923,433.229 534.889,402.576 536.855,377.5 538.82,347.802 540.786,414.471 542.752,372.229 
  544.718,355.655 546.684,447.423 548.65,467.96 550.616,450.381 552.582,429.462 554.547,478.507 556.513,373.464 558.479,446.941 560.445,471.396 562.411,451.891 
  564.377,485.331 566.343,476.768 568.309,443.168 570.274,413.042 572.24,428.188 574.206,504.038 576.172,436.049 578.138,443.778 580.104,440.338 582.07,518.75 
  584.036,423.951 586.001,465.909 587.967,474.341 589.933,527.017 591.899,503.39 593.865,518.348 595.831,563.321 597.797,496.464 599.763,520.349 601.728,550.223 
  603.694,590.594 605.66,496.84 607.626,518.222 609.592,520.275 611.558,480.17 613.524,522.69 615.49,549.541 617.455,476.778 619.421,504.262 621.387,543.241 
  623.353,599.54 625.319,545.949 627.285,531.962 629.251,612.612 631.217,586.448 633.182,597.24 635.148,607.2 637.114,609.561 639.08,567.982 641.046,598.142 
  643.012,558.994 644.978,596.431 646.944,614.488 648.909,660.177 650.875,648.049 652.841,586.178 654.807,612.79 656.773,621.457 658.739,598.581 660.705,586.636 
  662.671,632.414 664.636,625.538 666.602,579.83 668.568,594.412 670.534,635.217 672.5,660.739 674.466,640.372 676.432,588.741 678.398,644.436 680.363,695.897 
  682.329,654.557 684.295,619.692 686.261,582.137 688.227,743.54 690.193,686.84 692.159,684.146 694.125,682.579 696.09,662.262 698.056,661.698 700.022,698.381 
  701.988,698.757 703.954,701.487 705.92,674.301 707.886,698.06 709.852,740.392 711.817,686.018 713.783,751.235 715.749,771.891 717.715,667.852 719.681,702.209 
  721.647,702.445 723.613,694.907 725.579,715.83 727.544,690.237 729.51,731.06 731.476,701.143 733.442,773.152 735.408,770.503 737.374,719.818 739.34,799.305 
  741.306,780.555 743.271,767.501 745.237,707.691 747.203,776.72 749.169,818.277 751.135,723.298 753.101,723.463 755.067,841.832 757.033,801.059 758.999,817.329 
  760.964,761.722 762.93,782.883 764.896,791.397 766.862,762.712 768.828,794.63 770.794,814.329 772.76,754 774.726,771.421 776.691,831.417 778.657,808.348 
  780.623,784.655 782.589,814.844 784.555,872.749 786.521,829.435 788.487,841.126 790.453,861.491 792.418,862.961 794.384,872.817 796.35,872.944 798.316,879.194 
  800.282,872.61 802.248,853.651 804.214,878.46 806.18,851.881 808.145,886.813 810.111,867.855 812.077,891.896 814.043,829.059 816.009,881.652 817.975,943.233 
  819.941,939.204 821.907,931.292 823.872,921.895 825.838,873.736 827.804,844.755 829.77,905.168 831.736,862.94 833.702,895.989 835.668,913.123 837.634,934.524 
  839.599,1009.65 841.565,977.466 843.531,958.214 845.497,942.6 847.463,958.362 849.429,1008.96 851.395,955.386 853.361,1010.83 855.326,1037.09 857.292,1017.71 
  859.258,982.462 861.224,963.212 863.19,984.19 865.156,1033.45 867.122,968.477 869.088,971.616 871.053,988.267 873.019,985.077 874.985,967.86 876.951,977.203 
  878.917,940.802 880.883,1049.56 882.849,980.44 884.815,1029.6 886.78,1034.93 888.746,1015.23 890.712,1004.36 892.678,1015.14 894.644,1070.59 896.61,1031.16 
  898.576,1114.81 900.542,1084.73 902.507,1029.78 904.473,1122.85 906.439,1022.79 908.405,1144.83 910.371,1079.33 912.337,1026.51 914.303,1100.37 916.269,1125.13 
  918.234,1092.88 920.2,1077.84 922.166,1019.18 924.132,1098.21 926.098,1070.57 928.064,1101.48 930.03,1098.28 931.996,1110.33 933.961,1128.68 935.927,1056.8 
  937.893,1122.41 939.859,1095.73 941.825,1170.42 943.791,1137.78 945.757,1096.81 947.723,1157.06 949.688,1156.45 951.654,1191.62 953.62,1120.77 955.586,1097.42 
  957.552,1211.29 959.518,1213.88 961.484,1197.64 963.45,1153.82 965.415,1168.9 967.381,1216.38 969.347,1200.97 971.313,1178.8 973.279,1165.86 975.245,1164.9 
  977.211,1244.21 979.177,1122.33 981.142,1202.52 983.108,1108.6 985.074,1152.87 987.04,1178.45 989.006,1208.32 990.972,1206.15 992.938,1208.83 994.904,1196.54 
  996.869,1210.14 998.835,1159.62 1000.8,1162.72 1002.77,1235.96 1004.73,1173.95 1006.7,1197.43 1008.66,1301.14 1010.63,1164.16 1012.6,1261.24 1014.56,1208.53 
  1016.53,1242.68 1018.49,1183.05 1020.46,1275.48 1022.43,1212.43 1024.39,1305.01 1026.36,1225.26 1028.32,1252.17 1030.29,1261.19 1032.26,1276.4 1034.22,1236.94 
  1036.19,1296.31 1038.15,1197.6 1040.12,1281.28 1042.08,1286.49 1044.05,1324.41 1046.02,1251.18 1047.98,1286.37 1049.95,1282.66 1051.91,1271.08 1053.88,1227.82 
  1055.85,1341.72 1057.81,1318.29 1059.78,1348.15 1061.74,1291.71 1063.71,1289.71 1065.68,1322.17 1067.64,1240.72 1069.61,1308.47 1071.57,1353.54 1073.54,1246.11 
  1075.5,1231.3 1077.47,1337.88 1079.44,1312.53 1081.4,1253.07 1083.37,1350.79 1085.33,1324.26 1087.3,1342.03 1089.27,1329.79 1091.23,1349.88 1093.2,1352.15 
  1095.16,1291.33 1097.13,1328.43 1099.09,1303.66 1101.06,1325.48 1103.03,1390.35 1104.99,1358.12 1106.96,1262.8 1108.92,1351.92 1110.89,1306.25 1112.86,1335.1 
  1114.82,1334.99 1116.79,1368.85 1118.75,1333.76 1120.72,1345.76 1122.69,1415.46 1124.65,1392.79 1126.62,1357.28 1128.58,1329.15 1130.55,1341.86 1132.51,1397.46 
  1134.48,1315.61 1136.45,1415.52 1138.41,1402.18 1140.38,1400.69 1142.34,1381.49 1144.31,1372.61 1146.28,1288.75 1148.24,1379.08 1150.21,1367.04 1152.17,1398.1 
  1154.14,1378.25 1156.11,1340 1158.07,1397.6 1160.04,1356.09 1162,1423.14 1163.97,1385.95 1165.93,1333.8 1167.9,1337.74 1169.87,1381.1 1171.83,1375 
  1173.8,1395.21 1175.76,1340.23 1177.73,1391.03 1179.7,1320.7 1181.66,1402.25 1183.63,1429.23 1185.59,1334.42 1187.56,1359.75 1189.53,1350.05 1191.49,1324.45 
  1193.46,1344.06 1195.42,1388.26 1197.39,1397.77 1199.35,1367.99 1201.32,1415.42 1203.29,1447.11 1205.25,1425.8 1207.22,1359.42 1209.18,1422.7 1211.15,1367.63 
  1213.12,1430.53 1215.08,1407.36 1217.05,1420.38 1219.01,1392.08 1220.98,1392.24 1222.95,1389.03 1224.91,1391.28 1226.88,1378.7 1228.84,1383 1230.81,1327.27 
  1232.77,1462.26 1234.74,1369.08 1236.71,1342.23 1238.67,1355.99 1240.64,1428.65 1242.6,1461.75 1244.57,1362.73 1246.54,1439.39 1248.5,1405.16 1250.47,1401.72 
  1252.43,1362.21 1254.4,1439.5 1256.36,1372.15 1258.33,1447.79 1260.3,1386.27 1262.26,1323.71 1264.23,1381.9 1266.19,1369.17 1268.16,1394.46 1270.13,1333.41 
  1272.09,1410.91 1274.06,1412.44 1276.02,1350.35 1277.99,1371.9 1279.96,1409 1281.92,1376.13 1283.89,1450.34 1285.85,1433.77 1287.82,1406.53 1289.78,1420.8 
  1291.75,1398.35 1293.72,1369.86 1295.68,1396.83 1297.65,1401.59 1299.61,1448.77 1301.58,1389.28 1303.55,1406.95 1305.51,1428.41 1307.48,1395.99 1309.44,1440.67 
  1311.41,1419.05 1313.38,1378.59 1315.34,1346.62 1317.31,1375.45 1319.27,1402.98 1321.24,1350.76 1323.2,1373.6 1325.17,1311.17 1327.14,1374.8 1329.1,1342.7 
  1331.07,1371.42 1333.03,1344.74 1335,1407.45 1336.97,1344.27 1338.93,1351.67 1340.9,1350.52 1342.86,1448.78 1344.83,1313.31 1346.8,1313.48 1348.76,1301.11 
  1350.73,1384.65 1352.69,1391.91 1354.66,1358.44 1356.62,1346.26 1358.59,1331.32 1360.56,1339.88 1362.52,1366.91 1364.49,1398.77 1366.45,1427.87 1368.42,1340.05 
  1370.39,1366.73 1372.35,1362.71 1374.32,1328.62 1376.28,1356.88 1378.25,1352.3 1380.22,1346.54 1382.18,1336.38 1384.15,1318.91 1386.11,1343.83 1388.08,1339.61 
  1390.04,1315.98 1392.01,1316.67 1393.98,1336.56 1395.94,1363.23 1397.91,1387.76 1399.87,1354.76 1401.84,1310.85 1403.81,1366.9 1405.77,1344.16 1407.74,1282.92 
  1409.7,1283.69 1411.67,1358.19 1413.63,1344.05 1415.6,1358.13 1417.57,1296.22 1419.53,1379.11 1421.5,1292.8 1423.46,1275.6 1425.43,1350.27 1427.4,1337.99 
  1429.36,1353.23 1431.33,1307.98 1433.29,1333.11 1435.26,1353.78 1437.23,1291.34 1439.19,1317.54 1441.16,1267.05 1443.12,1222.71 1445.09,1314.67 1447.05,1292.02 
  1449.02,1288.84 1450.99,1247.53 1452.95,1264.89 1454.92,1256.31 1456.88,1298.11 1458.85,1269.95 1460.82,1297.81 1462.78,1268.96 1464.75,1257.56 1466.71,1230.75 
  1468.68,1200.34 1470.65,1217.24 1472.61,1270.85 1474.58,1266.91 1476.54,1296.31 1478.51,1204.05 1480.47,1294.44 1482.44,1261.48 1484.41,1278.6 1486.37,1231.46 
  1488.34,1213.16 1490.3,1255.86 1492.27,1303.39 1494.24,1246.69 1496.2,1194.29 1498.17,1271.61 1500.13,1221.15 1502.1,1222.38 1504.07,1247.32 1506.03,1206.08 
  1508,1208.9 1509.96,1215.02 1511.93,1224.41 1513.89,1259.26 1515.86,1215.79 1517.83,1179.9 1519.79,1140.04 1521.76,1126.48 1523.72,1170.84 1525.69,1126.17 
  1527.66,1147.42 1529.62,1173.28 1531.59,1178.15 1533.55,1162.5 1535.52,1157.79 1537.49,1173.92 1539.45,1162.32 1541.42,1232.07 1543.38,1115.27 1545.35,1177.65 
  1547.31,1158.94 1549.28,1126.16 1551.25,1076.07 1553.21,1122.21 1555.18,1209.47 1557.14,1136.98 1559.11,1135.87 1561.08,1102.7 1563.04,1131.54 1565.01,1122.82 
  1566.97,1092.56 1568.94,1149.08 1570.9,1112.69 1572.87,1142.73 1574.84,1106.63 1576.8,1180.21 1578.77,1093.5 1580.73,1069.37 1582.7,1124.69 1584.67,1095.99 
  1586.63,1107.78 1588.6,1150.4 1590.56,1090.84 1592.53,1104.51 1594.5,1086.57 1596.46,1108.17 1598.43,1080.88 1600.39,1119.5 1602.36,1011.62 1604.32,1108.1 
  1606.29,1080.13 1608.26,1101.38 1610.22,1105.5 1612.19,1052.16 1614.15,1076.01 1616.12,1049.87 1618.09,1002 1620.05,985.461 1622.02,982.252 1623.98,1021.35 
  1625.95,1017.26 1627.92,993.349 1629.88,992.193 1631.85,1023.52 1633.81,1046.03 1635.78,984.245 1637.74,972.915 1639.71,1025.83 1641.68,978.021 1643.64,1038.66 
  1645.61,958.498 1647.57,1019.29 1649.54,1015.81 1651.51,963.709 1653.47,987.265 1655.44,1007.06 1657.4,991.342 1659.37,956.902 1661.34,936.934 1663.3,952.232 
  1665.27,895.822 1667.23,894.449 1669.2,947.597 1671.16,962.779 1673.13,925.722 1675.1,898.006 1677.06,993.864 1679.03,943.862 1680.99,903.082 1682.96,877.801 
  1684.93,918.56 1686.89,922.147 1688.86,891.512 1690.82,898.183 1692.79,876.67 1694.76,899.293 1696.72,851.479 1698.69,853.185 1700.65,926.901 1702.62,860.392 
  1704.58,895.18 1706.55,919.826 1708.52,920.675 1710.48,866.14 1712.45,850.008 1714.41,907.008 1716.38,880.56 1718.35,814.094 1720.31,841.44 1722.28,854.905 
  1724.24,864.314 1726.21,858.549 1728.17,768.83 1730.14,860.43 1732.11,818.95 1734.07,812.785 1736.04,828.085 1738,884.593 1739.97,761.044 1741.94,823.411 
  1743.9,807.071 1745.87,760.964 1747.83,731.098 1749.8,747.967 1751.77,792.517 1753.73,818.077 1755.7,789.093 1757.66,775.247 1759.63,718.224 1761.59,781.091 
  1763.56,782.402 1765.53,768.291 1767.49,702.811 1769.46,757.732 1771.42,773.062 1773.39,786.29 1775.36,791.497 1777.32,788.301 1779.29,758.714 1781.25,729.285 
  1783.22,677.509 1785.19,701.895 1787.15,770.548 1789.12,711.818 1791.08,760.665 1793.05,736.659 1795.01,681.028 1796.98,698.526 1798.95,691.317 1800.91,699.823 
  1802.88,669.269 1804.84,701.226 1806.81,680.312 1808.78,751.176 1810.74,714.774 1812.71,704.846 1814.67,650.535 1816.64,667.315 1818.61,630.022 1820.57,681.694 
  1822.54,672.039 1824.5,647.743 1826.47,640.273 1828.43,671.468 1830.4,666.531 1832.37,691.378 1834.33,656.538 1836.3,579.845 1838.26,585.048 1840.23,608.28 
  1842.2,582.252 1844.16,643.492 1846.13,628.436 1848.09,612.127 1850.06,653.103 1852.03,589.114 1853.99,644.183 1855.96,648.945 1857.92,579.96 1859.89,552.855 
  1861.85,602.793 1863.82,586.876 1865.79,558.626 1867.75,582.805 1869.72,519.027 1871.68,549.648 1873.65,501.455 1875.62,620.408 1877.58,627.151 1879.55,566.068 
  1881.51,623.653 1883.48,485.066 1885.44,539.499 1887.41,530.331 1889.38,564.49 1891.34,518.809 1893.31,477.254 1895.27,558.152 1897.24,483.568 1899.21,490.289 
  1901.17,582.939 1903.14,514.85 1905.1,497.912 1907.07,538.902 1909.04,579.393 1911,541.163 1912.97,496.487 1914.93,533.735 1916.9,504.549 1918.86,476.457 
  1920.83,438.738 1922.8,505.95 1924.76,450.344 1926.73,478.994 1928.69,497.052 1930.66,499.155 1932.63,461.727 1934.59,392.665 1936.56,465.768 1938.52,462.652 
  1940.49,463.192 1942.46,500.557 1944.42,458.834 1946.39,441.765 1948.35,411.384 1950.32,492.255 1952.28,344.929 1954.25,414.425 1956.22,483.911 1958.18,417.635 
  1960.15,396.047 1962.11,452.427 1964.08,357.416 1966.05,445.352 1968.01,411.273 1969.98,423.335 1971.94,382.176 1973.91,410.493 1975.88,449.765 1977.84,417.987 
  1979.81,420.896 1981.77,392.888 1983.74,337.751 1985.7,430.67 1987.67,324.136 1989.64,327.618 1991.6,350.009 1993.57,335.411 1995.53,376.829 1997.5,385.615 
  1999.47,375.597 2001.43,380.468 2003.4,369.441 2005.36,383.578 2007.33,420.742 2009.3,347.342 2011.26,341.36 2013.23,369.778 2015.19,349.316 2017.16,348.621 
  2019.12,301.706 2021.09,322.417 2023.06,398.123 2025.02,341.808 2026.99,250.951 2028.95,282.918 2030.92,316.928 2032.89,306.236 2034.85,296.404 2036.82,321.213 
  2038.78,313.145 2040.75,290.096 2042.71,302.937 2044.68,358.889 2046.65,238.949 2048.61,296.776 2050.58,268.361 2052.54,261.014 2054.51,210.138 2056.48,205.946 
  2058.44,310.762 2060.41,293.16 2062.37,359.2 2064.34,260.357 2066.31,248.868 2068.27,257.43 2070.24,268.055 2072.2,236.271 2074.17,202.66 2076.13,340.657 
  2078.1,290.834 2080.07,251.532 2082.03,329.817 2084,251.584 2085.96,230.553 2087.93,296.163 2089.9,201.866 2091.86,251.676 2093.83,242.147 2095.79,221.367 
  2097.76,236.737 2099.73,191.39 2101.69,224.013 2103.66,262.903 2105.62,266.638 2107.59,282.988 2109.55,193.044 2111.52,202.677 2113.49,263.168 2115.45,243.189 
  2117.42,228.504 2119.38,245.662 2121.35,220.001 2123.32,198.529 2125.28,250.36 2127.25,181.59 2129.21,192.127 2131.18,192.619 2133.15,195.423 2135.11,234.902 
  2137.08,260.087 2139.04,215.714 2141.01,151.865 2142.97,239.875 2144.94,205.592 2146.91,216.714 2148.87,235.384 2150.84,169.795 2152.8,240.752 2154.77,175.503 
  2156.74,221.069 2158.7,271.854 2160.67,271.324 2162.63,216.063 2164.6,207.786 2166.57,225.171 2168.53,211.18 2170.5,128.315 2172.46,220.104 2174.43,220.41 
  2176.39,172.386 2178.36,147.062 2180.33,165.749 2182.29,178.069 2184.26,152.229 2186.22,187.264 2188.19,157.847 2190.16,170.434 2192.12,141.202 2194.09,228.178 
  2196.05,154.647 2198.02,129.227 2199.99,236.964 2201.95,214.453 2203.92,217.986 2205.88,135.605 2207.85,154.761 2209.81,126.45 2211.78,194.06 2213.75,118.915 
  2215.71,172.973 2217.68,88.4582 2219.64,151.353 2221.61,111.843 2223.58,175.444 2225.54,139.703 2227.51,193.925 2229.47,169.721 2231.44,156.233 2233.4,161.998 
  2235.37,191.324 2237.34,238.998 2239.3,141.871 2241.27,198.52 2243.23,128.212 2245.2,196.598 2247.17,125.971 2249.13,138.613 2251.1,213.721 2253.06,185.127 
  2255.03,201.014 2257,176.934 2258.96,187.758 2260.93,171.54 
  "/>
<polygon clip-path="url(#clip6700)" points="
1519.74,251.724 2249.26,251.724 2249.26,130.764 1519.74,130.764 
  " fill="#ffffff" fill-rule="evenodd" fill-opacity="1"/>
<polyline clip-path="url(#clip6700)" style="stroke:#000000; stroke-width:4; stroke-opacity:1; fill:none" points="
  1519.74,251.724 2249.26,251.724 2249.26,130.764 1519.74,130.764 1519.74,251.724 
  "/>
<polyline clip-path="url(#clip6700)" style="stroke:#009af9; stroke-width:4; stroke-opacity:1; fill:none" points="
  1543.74,191.244 1687.74,191.244 
  "/>
<g clip-path="url(#clip6700)">
<text style="fill:#000000; fill-opacity:1; font-family:Arial,Helvetica Neue,Helvetica,sans-serif; font-size:48px; text-anchor:start;" transform="rotate(0, 1711.74, 208.744)" x="1711.74" y="208.744">znieksztalcony cosinus</text>
</g>
</svg>
