<?xml version="1.0" encoding="utf-8"?>
<svg xmlns="http://www.w3.org/2000/svg" xmlns:xlink="http://www.w3.org/1999/xlink" width="600" height="400" viewBox="0 0 2400 1600">
<defs>
  <clipPath id="clip7100">
    <rect x="0" y="0" width="2400" height="1600"/>
  </clipPath>
</defs>
<polygon clip-path="url(#clip7100)" points="
0,1600 2400,1600 2400,0 0,0 
  " fill="#ffffff" fill-rule="evenodd" fill-opacity="1"/>
<defs>
  <clipPath id="clip7101">
    <rect x="480" y="0" width="1681" height="1600"/>
  </clipPath>
</defs>
<polygon clip-path="url(#clip7100)" points="
174.775,1503.47 2321.26,1503.47 2321.26,47.2441 174.775,47.2441 
  " fill="#ffffff" fill-rule="evenodd" fill-opacity="1"/>
<defs>
  <clipPath id="clip7102">
    <rect x="174" y="47" width="2147" height="1457"/>
  </clipPath>
</defs>
<polyline clip-path="url(#clip7102)" style="stroke:#000000; stroke-width:2; stroke-opacity:0.1; fill:none" points="
  231.57,1503.47 231.57,47.2441 
  "/>
<polyline clip-path="url(#clip7102)" style="stroke:#000000; stroke-width:2; stroke-opacity:0.1; fill:none" points="
  627.075,1503.47 627.075,47.2441 
  "/>
<polyline clip-path="url(#clip7102)" style="stroke:#000000; stroke-width:2; stroke-opacity:0.1; fill:none" points="
  1022.58,1503.47 1022.58,47.2441 
  "/>
<polyline clip-path="url(#clip7102)" style="stroke:#000000; stroke-width:2; stroke-opacity:0.1; fill:none" points="
  1418.08,1503.47 1418.08,47.2441 
  "/>
<polyline clip-path="url(#clip7102)" style="stroke:#000000; stroke-width:2; stroke-opacity:0.1; fill:none" points="
  1813.59,1503.47 1813.59,47.2441 
  "/>
<polyline clip-path="url(#clip7102)" style="stroke:#000000; stroke-width:2; stroke-opacity:0.1; fill:none" points="
  2209.09,1503.47 2209.09,47.2441 
  "/>
<polyline clip-path="url(#clip7102)" style="stroke:#000000; stroke-width:2; stroke-opacity:0.1; fill:none" points="
  174.775,1462.35 2321.26,1462.35 
  "/>
<polyline clip-path="url(#clip7102)" style="stroke:#000000; stroke-width:2; stroke-opacity:0.1; fill:none" points="
  174.775,1193.15 2321.26,1193.15 
  "/>
<polyline clip-path="url(#clip7102)" style="stroke:#000000; stroke-width:2; stroke-opacity:0.1; fill:none" points="
  174.775,923.95 2321.26,923.95 
  "/>
<polyline clip-path="url(#clip7102)" style="stroke:#000000; stroke-width:2; stroke-opacity:0.1; fill:none" points="
  174.775,654.752 2321.26,654.752 
  "/>
<polyline clip-path="url(#clip7102)" style="stroke:#000000; stroke-width:2; stroke-opacity:0.1; fill:none" points="
  174.775,385.555 2321.26,385.555 
  "/>
<polyline clip-path="url(#clip7102)" style="stroke:#000000; stroke-width:2; stroke-opacity:0.1; fill:none" points="
  174.775,116.357 2321.26,116.357 
  "/>
<polyline clip-path="url(#clip7100)" style="stroke:#000000; stroke-width:4; stroke-opacity:1; fill:none" points="
  174.775,1503.47 2321.26,1503.47 
  "/>
<polyline clip-path="url(#clip7100)" style="stroke:#000000; stroke-width:4; stroke-opacity:1; fill:none" points="
  174.775,1503.47 174.775,47.2441 
  "/>
<polyline clip-path="url(#clip7100)" style="stroke:#000000; stroke-width:4; stroke-opacity:1; fill:none" points="
  231.57,1503.47 231.57,1481.63 
  "/>
<polyline clip-path="url(#clip7100)" style="stroke:#000000; stroke-width:4; stroke-opacity:1; fill:none" points="
  627.075,1503.47 627.075,1481.63 
  "/>
<polyline clip-path="url(#clip7100)" style="stroke:#000000; stroke-width:4; stroke-opacity:1; fill:none" points="
  1022.58,1503.47 1022.58,1481.63 
  "/>
<polyline clip-path="url(#clip7100)" style="stroke:#000000; stroke-width:4; stroke-opacity:1; fill:none" points="
  1418.08,1503.47 1418.08,1481.63 
  "/>
<polyline clip-path="url(#clip7100)" style="stroke:#000000; stroke-width:4; stroke-opacity:1; fill:none" points="
  1813.59,1503.47 1813.59,1481.63 
  "/>
<polyline clip-path="url(#clip7100)" style="stroke:#000000; stroke-width:4; stroke-opacity:1; fill:none" points="
  2209.09,1503.47 2209.09,1481.63 
  "/>
<polyline clip-path="url(#clip7100)" style="stroke:#000000; stroke-width:4; stroke-opacity:1; fill:none" points="
  174.775,1462.35 206.972,1462.35 
  "/>
<polyline clip-path="url(#clip7100)" style="stroke:#000000; stroke-width:4; stroke-opacity:1; fill:none" points="
  174.775,1193.15 206.972,1193.15 
  "/>
<polyline clip-path="url(#clip7100)" style="stroke:#000000; stroke-width:4; stroke-opacity:1; fill:none" points="
  174.775,923.95 206.972,923.95 
  "/>
<polyline clip-path="url(#clip7100)" style="stroke:#000000; stroke-width:4; stroke-opacity:1; fill:none" points="
  174.775,654.752 206.972,654.752 
  "/>
<polyline clip-path="url(#clip7100)" style="stroke:#000000; stroke-width:4; stroke-opacity:1; fill:none" points="
  174.775,385.555 206.972,385.555 
  "/>
<polyline clip-path="url(#clip7100)" style="stroke:#000000; stroke-width:4; stroke-opacity:1; fill:none" points="
  174.775,116.357 206.972,116.357 
  "/>
<g clip-path="url(#clip7100)">
<text style="fill:#000000; fill-opacity:1; font-family:Arial,Helvetica Neue,Helvetica,sans-serif; font-size:48px; text-anchor:middle;" transform="rotate(0, 231.57, 1557.47)" x="231.57" y="1557.47">0</text>
</g>
<g clip-path="url(#clip7100)">
<text style="fill:#000000; fill-opacity:1; font-family:Arial,Helvetica Neue,Helvetica,sans-serif; font-size:48px; text-anchor:middle;" transform="rotate(0, 627.075, 1557.47)" x="627.075" y="1557.47">100</text>
</g>
<g clip-path="url(#clip7100)">
<text style="fill:#000000; fill-opacity:1; font-family:Arial,Helvetica Neue,Helvetica,sans-serif; font-size:48px; text-anchor:middle;" transform="rotate(0, 1022.58, 1557.47)" x="1022.58" y="1557.47">200</text>
</g>
<g clip-path="url(#clip7100)">
<text style="fill:#000000; fill-opacity:1; font-family:Arial,Helvetica Neue,Helvetica,sans-serif; font-size:48px; text-anchor:middle;" transform="rotate(0, 1418.08, 1557.47)" x="1418.08" y="1557.47">300</text>
</g>
<g clip-path="url(#clip7100)">
<text style="fill:#000000; fill-opacity:1; font-family:Arial,Helvetica Neue,Helvetica,sans-serif; font-size:48px; text-anchor:middle;" transform="rotate(0, 1813.59, 1557.47)" x="1813.59" y="1557.47">400</text>
</g>
<g clip-path="url(#clip7100)">
<text style="fill:#000000; fill-opacity:1; font-family:Arial,Helvetica Neue,Helvetica,sans-serif; font-size:48px; text-anchor:middle;" transform="rotate(0, 2209.09, 1557.47)" x="2209.09" y="1557.47">500</text>
</g>
<g clip-path="url(#clip7100)">
<text style="fill:#000000; fill-opacity:1; font-family:Arial,Helvetica Neue,Helvetica,sans-serif; font-size:48px; text-anchor:end;" transform="rotate(0, 150.775, 1479.85)" x="150.775" y="1479.85">0</text>
</g>
<g clip-path="url(#clip7100)">
<text style="fill:#000000; fill-opacity:1; font-family:Arial,Helvetica Neue,Helvetica,sans-serif; font-size:48px; text-anchor:end;" transform="rotate(0, 150.775, 1210.65)" x="150.775" y="1210.65">100</text>
</g>
<g clip-path="url(#clip7100)">
<text style="fill:#000000; fill-opacity:1; font-family:Arial,Helvetica Neue,Helvetica,sans-serif; font-size:48px; text-anchor:end;" transform="rotate(0, 150.775, 941.45)" x="150.775" y="941.45">200</text>
</g>
<g clip-path="url(#clip7100)">
<text style="fill:#000000; fill-opacity:1; font-family:Arial,Helvetica Neue,Helvetica,sans-serif; font-size:48px; text-anchor:end;" transform="rotate(0, 150.775, 672.252)" x="150.775" y="672.252">300</text>
</g>
<g clip-path="url(#clip7100)">
<text style="fill:#000000; fill-opacity:1; font-family:Arial,Helvetica Neue,Helvetica,sans-serif; font-size:48px; text-anchor:end;" transform="rotate(0, 150.775, 403.055)" x="150.775" y="403.055">400</text>
</g>
<g clip-path="url(#clip7100)">
<text style="fill:#000000; fill-opacity:1; font-family:Arial,Helvetica Neue,Helvetica,sans-serif; font-size:48px; text-anchor:end;" transform="rotate(0, 150.775, 133.857)" x="150.775" y="133.857">500</text>
</g>
<polyline clip-path="url(#clip7102)" style="stroke:#009af9; stroke-width:4; stroke-opacity:1; fill:none" points="
  235.525,1461.63 239.48,88.4582 243.435,1459.51 247.39,1454.31 251.345,1457.09 255.3,1454.73 259.255,1458.42 263.21,1460.56 267.165,1456.94 271.12,1459.4 
  275.075,1459.7 279.03,1456.27 282.985,1453.76 286.94,1457.59 290.895,1459.77 294.851,1459.72 298.806,1457.44 302.761,1455.2 306.716,1454.12 310.671,1455.14 
  314.626,1458.61 318.581,1450.31 322.536,1460.5 326.491,1455.82 330.446,1456.39 334.401,1456.24 338.356,1460.43 342.311,1455.39 346.266,1456.85 350.221,1458.91 
  354.176,1456.49 358.131,1457.87 362.086,1459.98 366.041,1456.99 369.996,1453.35 373.952,1457.29 377.907,1454.2 381.862,1456.71 385.817,1455.42 389.772,1460.16 
  393.727,1449.01 397.682,1455.33 401.637,1461.34 405.592,1458.87 409.547,1458.43 413.502,1458.84 417.457,1459.24 421.412,1456.13 425.367,1459.54 429.322,1456.64 
  433.277,1457.47 437.232,1457.9 441.187,1459.92 445.142,1452.31 449.097,1457.19 453.053,1458.01 457.008,1456.66 460.963,1459.65 464.918,1458.34 468.873,1457.75 
  472.828,1455.95 476.783,1453.81 480.738,1458.76 484.693,1456.98 488.648,1457.63 492.603,1456.63 496.558,1455.66 500.513,1458.07 504.468,1461.27 508.423,1460.42 
  512.378,1452.4 516.333,1457.32 520.288,1459.59 524.243,1457.11 528.198,1459.66 532.154,1461.84 536.109,1459.03 540.064,1459.7 544.019,1457.37 547.974,1456.09 
  551.929,1456.14 555.884,1456.44 559.839,1455.13 563.794,1459.23 567.749,1456.82 571.704,1458.61 575.659,1459.64 579.614,1458.96 583.569,1456.13 587.524,1459.38 
  591.479,1457.61 595.434,1458.47 599.389,1461.41 603.344,1458.23 607.299,1454.4 611.255,1455.28 615.21,1457.92 619.165,1458.76 623.12,1460.2 627.075,1453.99 
  631.03,1457.23 634.985,1458.7 638.94,1455.68 642.895,1453.36 646.85,1457.82 650.805,1457.87 654.76,1461.28 658.715,1456.02 662.67,1456.83 666.625,1459.3 
  670.58,1456.71 674.535,1459.2 678.49,1458.39 682.445,1456.75 686.4,1460.07 690.356,1460.06 694.311,1456.89 698.266,1460.35 702.221,1456.76 706.176,1459.65 
  710.131,1454.92 714.086,1458.33 718.041,1458.03 721.996,1457.05 725.951,1457.83 729.906,1453.13 733.861,1459.03 737.816,1457.92 741.771,1457.04 745.726,1455.14 
  749.681,1454.74 753.636,1459.01 757.591,1461.94 761.546,1458.69 765.501,1460.17 769.456,1458.02 773.412,1460.05 777.367,1458.54 781.322,1461.52 785.277,1461.18 
  789.232,1454.33 793.187,1459.73 797.142,1456.69 801.097,1459.96 805.052,1458.95 809.007,1456.88 812.962,1456.07 816.917,1457.74 820.872,1454.78 824.827,1457.21 
  828.782,1455.32 832.737,1460.28 836.692,1459.37 840.647,1459.57 844.602,1460.98 848.557,1458.87 852.513,1457.01 856.468,1458.38 860.423,1461.07 864.378,1458.19 
  868.333,1461.62 872.288,1459.45 876.243,1459.52 880.198,1461.04 884.153,1458.76 888.108,1457.61 892.063,1459.91 896.018,1459.16 899.973,1458.56 903.928,1455.95 
  907.883,1457.31 911.838,1458.03 915.793,1458.88 919.748,1455.82 923.703,1459.34 927.658,1456.28 931.614,1458.5 935.569,1453.69 939.524,1460.24 943.479,1459.3 
  947.434,1455.45 951.389,1460.46 955.344,1459.16 959.299,1459.4 963.254,1458.09 967.209,1453.09 971.164,1458.28 975.119,1458.58 979.074,1454.41 983.029,1456.58 
  986.984,1455.05 990.939,1461.49 994.894,1458.81 998.849,1460.1 1002.8,1459.95 1006.76,1459.18 1010.71,1459.29 1014.67,1457.86 1018.62,1459.5 1022.58,1455.56 
  1026.53,1458.69 1030.49,1455.79 1034.44,1457.82 1038.4,1458.05 1042.35,1460.18 1046.31,1456.42 1050.27,1460.12 1054.22,1458.52 1058.18,1454.48 1062.13,1460.25 
  1066.09,1456.64 1070.04,1461.47 1074,1459.41 1077.95,1457.2 1081.91,1458.61 1085.86,1456 1089.82,1453.78 1093.77,1458.07 1097.73,1457.71 1101.68,1458.86 
  1105.64,1458.73 1109.59,1457.17 1113.55,1458.84 1117.5,1457.46 1121.46,1457.65 1125.41,1461.1 1129.37,1460.38 1133.32,1457.32 1137.28,1458.67 1141.23,1458.55 
  1145.19,1455.22 1149.14,1456.46 1153.1,1456.84 1157.05,1457.71 1161.01,1457.23 1164.96,1457.51 1168.92,1456.05 1172.87,1456.99 1176.83,1458.53 1180.78,1459.06 
  1184.74,1455.66 1188.69,1455.61 1192.65,1456.25 1196.6,1459.64 1200.56,1459.21 1204.51,1460.64 1208.47,1459.22 1212.42,1460.53 1216.38,1458.93 1220.33,1459.33 
  1224.29,1458.91 1228.24,1457.67 1232.2,1458.3 1236.15,1458.57 1240.11,1458.58 1244.06,1461.61 1248.02,1457.15 1251.97,1457.99 1255.93,1455.78 1259.88,1456.26 
  1263.84,1454.78 1267.79,1458.65 1271.75,1454.66 1275.7,1455.52 1279.66,1451.96 1283.61,1460.37 1287.57,1460.66 1291.52,1455.46 1295.48,1456.63 1299.43,1459.35 
  1303.39,1461.26 1307.34,1457.99 1311.3,1459.93 1315.25,1453.14 1319.21,1455.14 1323.16,1460.8 1327.12,1457.34 1331.07,1457.09 1335.03,1460.4 1338.98,1457.99 
  1342.94,1454.36 1346.89,1457.72 1350.85,1459.81 1354.8,1458.64 1358.76,1459.88 1362.71,1461.02 1366.67,1460.12 1370.62,1456.98 1374.58,1450.1 1378.53,1458.61 
  1382.49,1459.12 1386.44,1454.23 1390.4,1461.63 1394.35,1459.31 1398.31,1460.35 1402.26,1457.87 1406.22,1452.43 1410.17,1451.59 1414.13,1459.1 1418.08,1459.52 
  1422.04,1451.9 1425.99,1459.96 1429.95,1454.41 1433.9,1460.22 1437.86,1459.31 1441.81,1455.3 1445.77,1457.83 1449.73,1459.02 1453.68,1458.93 1457.64,1458.03 
  1461.59,1456.33 1465.55,1457.48 1469.5,1457.47 1473.46,1456.67 1477.41,1455.74 1481.37,1456.88 1485.32,1457.77 1489.28,1461.6 1493.23,1459.91 1497.19,1457.43 
  1501.14,1458.43 1505.1,1455.4 1509.05,1460.72 1513.01,1454.58 1516.96,1457.33 1520.92,1459.94 1524.87,1462.26 1528.83,1459.13 1532.78,1458.31 1536.74,1459.36 
  1540.69,1456.55 1544.65,1458 1548.6,1459.89 1552.56,1457.34 1556.51,1460.3 1560.47,1455.41 1564.42,1459.99 1568.38,1457.68 1572.33,1458.08 1576.29,1459.59 
  1580.24,1458.71 1584.2,1460.62 1588.15,1460.36 1592.11,1460.88 1596.06,1459.24 1600.02,1457.72 1603.97,1460.19 1607.93,1457.96 1611.88,1459.77 1615.84,1457.91 
  1619.79,1458.59 1623.75,1459.15 1627.7,1460.73 1631.66,1456.84 1635.61,1460.16 1639.57,1455.49 1643.52,1455.73 1647.48,1455.44 1651.43,1455.57 1655.39,1461.43 
  1659.34,1457.3 1663.3,1457.1 1667.25,1457.63 1671.21,1457.25 1675.16,1458.97 1679.12,1460.97 1683.07,1459.49 1687.03,1458.55 1690.98,1458.75 1694.94,1456.85 
  1698.89,1460.21 1702.85,1455.85 1706.8,1458.38 1710.76,1459.36 1714.71,1459.22 1718.67,1458.75 1722.62,1457.06 1726.58,1455.87 1730.53,1455.68 1734.49,1453.12 
  1738.44,1459.85 1742.4,1457.79 1746.35,1457.95 1750.31,1458.33 1754.26,1459.25 1758.22,1456.87 1762.17,1459.13 1766.13,1455.85 1770.08,1459.15 1774.04,1459.27 
  1777.99,1457.3 1781.95,1459.27 1785.9,1458.92 1789.86,1459.38 1793.81,1459.64 1797.77,1459.39 1801.72,1457.9 1805.68,1460.26 1809.63,1456.11 1813.59,1454.64 
  1817.54,1453.18 1821.5,1458.47 1825.45,1456.02 1829.41,1455.65 1833.36,1456.59 1837.32,1459.27 1841.27,1458.23 1845.23,1459.83 1849.19,1456.89 1853.14,1458.68 
  1857.1,1458.77 1861.05,1459.68 1865.01,1458.74 1868.96,1454.67 1872.92,1457.28 1876.87,1459.08 1880.83,1459.01 1884.78,1453.19 1888.74,1460.84 1892.69,1457.98 
  1896.65,1460.42 1900.6,1461.18 1904.56,1456.17 1908.51,1454.46 1912.47,1458 1916.42,1457.38 1920.38,1460.11 1924.33,1457.76 1928.29,1455.1 1932.24,1454.74 
  1936.2,1457.26 1940.15,1451.91 1944.11,1460.12 1948.06,1458.3 1952.02,1459.74 1955.97,1460.74 1959.93,1459.9 1963.88,1452.37 1967.84,1461.65 1971.79,1457.43 
  1975.75,1457.15 1979.7,1458.52 1983.66,1460.8 1987.61,1454.49 1991.57,1459.82 1995.52,1458.5 1999.48,1457.06 2003.43,1460.65 2007.39,1458.51 2011.34,1455.13 
  2015.3,1461.45 2019.25,1457.8 2023.21,1460.42 2027.16,1459.86 2031.12,1457.33 2035.07,1458.92 2039.03,1458.56 2042.98,1457.07 2046.94,1458.74 2050.89,1459.44 
  2054.85,1457.25 2058.8,1458.05 2062.76,1457.36 2066.71,1458.24 2070.67,1460.3 2074.62,1459.06 2078.58,1461.29 2082.53,1460.15 2086.49,1453.41 2090.44,1455.96 
  2094.4,1460.08 2098.35,1455.53 2102.31,1458.41 2106.26,1454.88 2110.22,1457.89 2114.17,1456.44 2118.13,1456.98 2122.08,1457.08 2126.04,1460.72 2129.99,1455.1 
  2133.95,1457.61 2137.9,1460.5 2141.86,1457.2 2145.81,1458.29 2149.77,1459.46 2153.72,1457.02 2157.68,1460.36 2161.63,1461.74 2165.59,1456.97 2169.54,1460.21 
  2173.5,1459.03 2177.45,1459.08 2181.41,1461.24 2185.36,1458.87 2189.32,1458.1 2193.27,1459.58 2197.23,1458.94 2201.18,1458.89 2205.14,1456.75 2209.09,1459.14 
  2213.05,1454.81 2217,1455.97 2220.96,1455.99 2224.91,1455.62 2228.87,1458.45 2232.82,1455.14 2236.78,1459.06 2240.74,1456.5 2244.69,1461.28 2248.65,1460.43 
  2252.6,1453.34 2256.56,1456.26 2260.51,1461.61 
  "/>
<polygon clip-path="url(#clip7100)" points="
1958.43,251.724 2249.26,251.724 2249.26,130.764 1958.43,130.764 
  " fill="#ffffff" fill-rule="evenodd" fill-opacity="1"/>
<polyline clip-path="url(#clip7100)" style="stroke:#000000; stroke-width:4; stroke-opacity:1; fill:none" points="
  1958.43,251.724 2249.26,251.724 2249.26,130.764 1958.43,130.764 1958.43,251.724 
  "/>
<polyline clip-path="url(#clip7100)" style="stroke:#009af9; stroke-width:4; stroke-opacity:1; fill:none" points="
  1982.43,191.244 2126.43,191.244 
  "/>
<g clip-path="url(#clip7100)">
<text style="fill:#000000; fill-opacity:1; font-family:Arial,Helvetica Neue,Helvetica,sans-serif; font-size:48px; text-anchor:start;" transform="rotate(0, 2150.43, 208.744)" x="2150.43" y="208.744">y1</text>
</g>
</svg>
