<?xml version="1.0" encoding="utf-8"?>
<svg xmlns="http://www.w3.org/2000/svg" xmlns:xlink="http://www.w3.org/1999/xlink" width="600" height="400" viewBox="0 0 2400 1600">
<defs>
  <clipPath id="clip5900">
    <rect x="0" y="0" width="2400" height="1600"/>
  </clipPath>
</defs>
<polygon clip-path="url(#clip5900)" points="
0,1600 2400,1600 2400,0 0,0 
  " fill="#ffffff" fill-rule="evenodd" fill-opacity="1"/>
<defs>
  <clipPath id="clip5901">
    <rect x="480" y="0" width="1681" height="1600"/>
  </clipPath>
</defs>
<polygon clip-path="url(#clip5900)" points="
149.361,1503.47 2321.26,1503.47 2321.26,47.2441 149.361,47.2441 
  " fill="#ffffff" fill-rule="evenodd" fill-opacity="1"/>
<defs>
  <clipPath id="clip5902">
    <rect x="149" y="47" width="2173" height="1457"/>
  </clipPath>
</defs>
<polyline clip-path="url(#clip5902)" style="stroke:#000000; stroke-width:2; stroke-opacity:0.1; fill:none" points="
  210.829,1503.47 210.829,47.2441 
  "/>
<polyline clip-path="url(#clip5902)" style="stroke:#000000; stroke-width:2; stroke-opacity:0.1; fill:none" points="
  723.07,1503.47 723.07,47.2441 
  "/>
<polyline clip-path="url(#clip5902)" style="stroke:#000000; stroke-width:2; stroke-opacity:0.1; fill:none" points="
  1235.31,1503.47 1235.31,47.2441 
  "/>
<polyline clip-path="url(#clip5902)" style="stroke:#000000; stroke-width:2; stroke-opacity:0.1; fill:none" points="
  1747.55,1503.47 1747.55,47.2441 
  "/>
<polyline clip-path="url(#clip5902)" style="stroke:#000000; stroke-width:2; stroke-opacity:0.1; fill:none" points="
  2259.79,1503.47 2259.79,47.2441 
  "/>
<polyline clip-path="url(#clip5902)" style="stroke:#000000; stroke-width:2; stroke-opacity:0.1; fill:none" points="
  149.361,1277.52 2321.26,1277.52 
  "/>
<polyline clip-path="url(#clip5902)" style="stroke:#000000; stroke-width:2; stroke-opacity:0.1; fill:none" points="
  149.361,1026.44 2321.26,1026.44 
  "/>
<polyline clip-path="url(#clip5902)" style="stroke:#000000; stroke-width:2; stroke-opacity:0.1; fill:none" points="
  149.361,775.36 2321.26,775.36 
  "/>
<polyline clip-path="url(#clip5902)" style="stroke:#000000; stroke-width:2; stroke-opacity:0.1; fill:none" points="
  149.361,524.282 2321.26,524.282 
  "/>
<polyline clip-path="url(#clip5902)" style="stroke:#000000; stroke-width:2; stroke-opacity:0.1; fill:none" points="
  149.361,273.204 2321.26,273.204 
  "/>
<polyline clip-path="url(#clip5900)" style="stroke:#000000; stroke-width:4; stroke-opacity:1; fill:none" points="
  149.361,1503.47 2321.26,1503.47 
  "/>
<polyline clip-path="url(#clip5900)" style="stroke:#000000; stroke-width:4; stroke-opacity:1; fill:none" points="
  149.361,1503.47 149.361,47.2441 
  "/>
<polyline clip-path="url(#clip5900)" style="stroke:#000000; stroke-width:4; stroke-opacity:1; fill:none" points="
  210.829,1503.47 210.829,1481.63 
  "/>
<polyline clip-path="url(#clip5900)" style="stroke:#000000; stroke-width:4; stroke-opacity:1; fill:none" points="
  723.07,1503.47 723.07,1481.63 
  "/>
<polyline clip-path="url(#clip5900)" style="stroke:#000000; stroke-width:4; stroke-opacity:1; fill:none" points="
  1235.31,1503.47 1235.31,1481.63 
  "/>
<polyline clip-path="url(#clip5900)" style="stroke:#000000; stroke-width:4; stroke-opacity:1; fill:none" points="
  1747.55,1503.47 1747.55,1481.63 
  "/>
<polyline clip-path="url(#clip5900)" style="stroke:#000000; stroke-width:4; stroke-opacity:1; fill:none" points="
  2259.79,1503.47 2259.79,1481.63 
  "/>
<polyline clip-path="url(#clip5900)" style="stroke:#000000; stroke-width:4; stroke-opacity:1; fill:none" points="
  149.361,1277.52 181.939,1277.52 
  "/>
<polyline clip-path="url(#clip5900)" style="stroke:#000000; stroke-width:4; stroke-opacity:1; fill:none" points="
  149.361,1026.44 181.939,1026.44 
  "/>
<polyline clip-path="url(#clip5900)" style="stroke:#000000; stroke-width:4; stroke-opacity:1; fill:none" points="
  149.361,775.36 181.939,775.36 
  "/>
<polyline clip-path="url(#clip5900)" style="stroke:#000000; stroke-width:4; stroke-opacity:1; fill:none" points="
  149.361,524.282 181.939,524.282 
  "/>
<polyline clip-path="url(#clip5900)" style="stroke:#000000; stroke-width:4; stroke-opacity:1; fill:none" points="
  149.361,273.204 181.939,273.204 
  "/>
<g clip-path="url(#clip5900)">
<text style="fill:#000000; fill-opacity:1; font-family:Arial,Helvetica Neue,Helvetica,sans-serif; font-size:48px; text-anchor:middle;" transform="rotate(0, 210.829, 1557.47)" x="210.829" y="1557.47">0.00</text>
</g>
<g clip-path="url(#clip5900)">
<text style="fill:#000000; fill-opacity:1; font-family:Arial,Helvetica Neue,Helvetica,sans-serif; font-size:48px; text-anchor:middle;" transform="rotate(0, 723.07, 1557.47)" x="723.07" y="1557.47">0.25</text>
</g>
<g clip-path="url(#clip5900)">
<text style="fill:#000000; fill-opacity:1; font-family:Arial,Helvetica Neue,Helvetica,sans-serif; font-size:48px; text-anchor:middle;" transform="rotate(0, 1235.31, 1557.47)" x="1235.31" y="1557.47">0.50</text>
</g>
<g clip-path="url(#clip5900)">
<text style="fill:#000000; fill-opacity:1; font-family:Arial,Helvetica Neue,Helvetica,sans-serif; font-size:48px; text-anchor:middle;" transform="rotate(0, 1747.55, 1557.47)" x="1747.55" y="1557.47">0.75</text>
</g>
<g clip-path="url(#clip5900)">
<text style="fill:#000000; fill-opacity:1; font-family:Arial,Helvetica Neue,Helvetica,sans-serif; font-size:48px; text-anchor:middle;" transform="rotate(0, 2259.79, 1557.47)" x="2259.79" y="1557.47">1.00</text>
</g>
<g clip-path="url(#clip5900)">
<text style="fill:#000000; fill-opacity:1; font-family:Arial,Helvetica Neue,Helvetica,sans-serif; font-size:48px; text-anchor:end;" transform="rotate(0, 125.361, 1295.02)" x="125.361" y="1295.02">-2</text>
</g>
<g clip-path="url(#clip5900)">
<text style="fill:#000000; fill-opacity:1; font-family:Arial,Helvetica Neue,Helvetica,sans-serif; font-size:48px; text-anchor:end;" transform="rotate(0, 125.361, 1043.94)" x="125.361" y="1043.94">-1</text>
</g>
<g clip-path="url(#clip5900)">
<text style="fill:#000000; fill-opacity:1; font-family:Arial,Helvetica Neue,Helvetica,sans-serif; font-size:48px; text-anchor:end;" transform="rotate(0, 125.361, 792.86)" x="125.361" y="792.86">0</text>
</g>
<g clip-path="url(#clip5900)">
<text style="fill:#000000; fill-opacity:1; font-family:Arial,Helvetica Neue,Helvetica,sans-serif; font-size:48px; text-anchor:end;" transform="rotate(0, 125.361, 541.782)" x="125.361" y="541.782">1</text>
</g>
<g clip-path="url(#clip5900)">
<text style="fill:#000000; fill-opacity:1; font-family:Arial,Helvetica Neue,Helvetica,sans-serif; font-size:48px; text-anchor:end;" transform="rotate(0, 125.361, 290.704)" x="125.361" y="290.704">2</text>
</g>
<polyline clip-path="url(#clip5902)" style="stroke:#009af9; stroke-width:4; stroke-opacity:1; fill:none" points="
  210.829,775.36 212.832,221.227 214.835,1108.58 216.838,460.657 218.841,1218 220.844,950.687 222.847,139.622 224.85,1091.25 226.853,511.827 228.856,1086.01 
  230.858,1114.21 232.861,95.2215 234.864,1037.91 236.867,589.724 238.87,944.276 240.873,1255.03 242.876,92.6536 244.879,951.497 246.882,686.185 248.884,804.004 
  250.887,1363.95 252.89,133.469 254.893,837.777 256.896,791.497 258.899,675.997 260.902,1434.18 262.905,215.995 264.908,704.967 266.911,895.21 268.913,569.796 
  270.916,1461.86 272.919,335.432 274.922,563.073 276.925,987.008 278.928,492.933 280.931,1446.29 282.934,484.205 284.937,423.116 286.939,1057.57 288.942,450.358 
  290.945,1389.98 292.948,652.522 294.951,296.259 296.954,1099.34 298.957,444.063 300.96,1298.42 302.963,829.114 304.966,192.922 306.968,1107.17 308.971,472.956 
  310.974,1179.64 312.977,1002.08 314.98,121.947 316.983,1078.79 318.986,532.978 320.989,1043.52 322.992,1159.81 324.994,89.8877 326.997,1014.97 329,617.457 
  331.003,901.043 333.006,1291.82 335.009,100.468 337.012,919.539 339.015,717.68 341.018,763.394 343.021,1389.59 345.023,154.266 347.026,799.062 349.029,823.622 
  351.032,641.074 353.035,1447.18 355.038,248.636 357.041,662.374 359.044,924.781 361.047,543.089 363.049,1461.65 365.052,377.89 367.055,519.88 369.058,1011.05 
  371.061,476.238 373.064,1433.31 375.067,533.712 377.07,382.735 379.073,1073.57 381.076,444.603 383.078,1365.6 385.081,705.778 387.084,261.971 389.087,1105.46 
  391.09,449.243 393.093,1264.83 395.096,882.533 397.099,167.612 399.102,1102.41 401.104,488.14 403.107,1139.67 405.11,1052.07 407.113,107.876 409.116,1063.05 
  411.119,556.395 413.122,1000.44 415.125,1203.02 417.128,88.5026 419.131,989.104 421.133,646.648 423.136,858.259 425.139,1325.43 427.142,112.285 429.145,885.259 
  431.148,749.706 433.151,724.205 435.154,1411.51 437.157,178.82 439.159,758.842 441.162,855.305 443.165,608.407 445.168,1456.18 447.171,284.508 449.174,619.242 
  451.177,952.972 453.18,519.268 455.183,1457.48 457.186,422.809 459.188,477.18 461.191,1032.89 463.194,462.808 465.197,1416.68 467.2,584.724 469.203,343.87 
  471.206,1086.74 473.209,442.211 475.212,1338.15 477.214,759.468 479.217,230.128 481.22,1108.35 483.223,457.598 485.226,1228.98 487.229,935.283 489.232,145.509 
  491.235,1094.29 493.238,506.045 495.241,1098.4 497.243,1100.33 499.246,97.542 501.249,1044.11 503.252,581.851 505.255,957.086 507.258,1243.59 509.261,91.114 
  511.264,960.461 513.267,677.027 515.269,816.23 517.272,1355.68 519.275,128.062 521.278,848.886 523.281,781.967 525.284,686.71 527.287,1429.59 529.29,207 
  531.293,717.399 533.296,886.252 535.298,578.212 537.301,1461.16 539.304,323.4 541.307,575.879 543.31,979.519 545.313,498.476 547.316,1449.41 549.319,469.915 
  551.322,435.289 553.324,1052.32 555.327,452.701 557.33,1396.56 559.333,636.925 561.336,306.815 563.339,1096.92 565.342,443.154 567.345,1307.87 569.348,813.257 
  571.351,200.98 573.353,1107.94 575.356,469.017 577.359,1191.15 579.362,987.035 581.365,126.799 583.368,1082.81 585.371,526.485 587.374,1056.14 589.377,1146.58 
  591.379,91.0551 593.382,1022.06 595.385,609.102 597.388,913.78 599.391,1281.27 601.394,97.7424 603.397,929.23 605.4,708.31 607.403,775.253 609.406,1382.4 
  611.408,147.727 613.411,810.666 615.414,814.167 617.417,651.165 619.42,1443.75 621.423,238.65 623.426,675.024 625.429,916.178 627.432,550.683 629.435,1462.13 
  631.437,365.082 633.44,532.6 635.443,1004.17 637.446,480.833 639.449,1437.53 641.452,518.919 643.455,394.518 645.458,1069.13 647.461,445.953 649.463,1373.13 
  651.466,689.988 653.469,271.856 655.472,1103.99 657.475,447.378 659.478,1275 661.481,866.81 663.484,174.763 665.487,1104.17 667.49,483.365 669.492,1151.62 
  671.495,1037.47 673.498,111.648 675.501,1068.04 677.504,549.256 679.507,1013.2 681.51,1190.52 683.513,88.4975 685.516,997.041 687.518,637.89 689.521,870.831 
  691.524,1315.85 693.527,108.381 695.53,895.612 697.533,740.209 699.536,735.616 701.539,1405.43 703.542,171.184 705.545,770.862 707.547,846.01 709.55,617.808 
  711.553,1453.94 713.556,273.588 715.559,632.019 717.562,944.805 719.565,525.994 721.568,1459.12 723.571,409.302 725.573,489.722 727.576,1026.69 729.579,466.431 
  731.582,1421.97 733.585,569.519 735.588,355.174 737.591,1083.15 739.594,442.569 741.597,1346.56 743.6,743.585 745.602,239.263 747.605,1107.84 749.608,454.806 
  751.611,1239.78 753.614,919.791 755.617,151.692 757.62,1097.04 759.623,500.484 761.626,1110.71 763.628,1086.27 765.631,100.198 767.634,1050.03 769.637,574.134 
  771.64,969.9 773.643,1231.9 775.646,89.9251 777.649,969.199 779.652,667.947 781.655,828.547 783.657,1347.11 785.66,122.994 787.663,859.832 789.666,772.431 
  791.669,697.593 793.672,1424.65 795.675,198.308 797.678,729.75 799.681,877.205 801.683,586.862 803.686,1460.11 805.689,311.612 807.692,588.692 809.695,971.864 
  811.698,504.295 813.701,1452.19 815.704,455.791 817.707,447.559 819.71,1046.85 821.712,455.338 823.715,1402.86 825.718,621.402 827.721,317.554 829.724,1094.23 
  831.727,442.531 833.73,1317.1 835.733,797.379 837.736,209.294 839.738,1108.41 841.741,465.333 843.744,1202.51 845.747,971.873 847.75,131.962 849.753,1086.55 
  851.756,520.196 853.759,1068.71 855.762,1133.14 857.765,92.5654 859.767,1028.89 861.77,600.881 863.773,926.548 865.776,1270.46 867.779,95.3665 869.782,938.712 
  871.785,698.993 873.788,787.229 875.791,1374.88 877.793,141.519 879.796,822.131 881.799,804.68 883.802,661.446 885.805,1439.98 887.808,228.951 889.811,687.62 
  891.814,907.462 893.817,558.526 895.82,1462.26 897.822,352.495 899.825,545.356 901.828,997.1 903.831,485.711 905.834,1441.43 907.837,504.265 909.84,406.425 
  911.843,1064.45 913.846,447.596 915.848,1380.38 917.851,674.245 919.854,281.947 921.857,1102.23 923.86,445.793 925.863,1284.96 927.866,851.037 929.869,182.189 
  931.872,1105.63 933.875,478.831 935.877,1163.46 937.88,1022.73 939.883,115.744 941.886,1072.74 943.889,542.3 945.892,1025.94 947.895,1177.8 949.898,88.8402 
  951.901,1004.73 953.903,629.243 955.906,883.461 957.909,1305.97 959.912,104.823 961.915,905.777 963.918,730.74 965.921,747.167 967.924,1399.02 969.927,163.868 
  971.93,782.767 973.932,836.66 975.935,627.419 977.938,1451.34 979.941,262.938 981.944,644.769 983.947,936.501 985.95,532.982 987.953,1460.42 989.956,395.992 
  991.958,502.326 993.961,1020.27 995.964,470.343 997.967,1426.94 999.97,554.426 1001.97,366.628 1003.98,1079.31 1005.98,443.219 1007.98,1354.72 1009.98,727.718 
  1011.99,248.628 1013.99,1107.04 1015.99,452.284 1018,1250.41 1020,904.222 1022,158.167 1024,1099.49 1026.01,495.149 1028.01,1122.92 1030.01,1072.05 
  1032.02,103.188 1034.02,1055.68 1036.02,566.58 1038.03,982.71 1040.03,1219.96 1042.03,89.0865 1044.03,977.706 1046.04,658.954 1048.04,840.949 1050.04,1338.23 
  1052.05,118.267 1054.05,870.612 1056.05,762.898 1058.05,708.64 1060.06,1419.38 1062.06,189.923 1064.06,742.012 1066.07,868.076 1068.07,595.739 1070.07,1458.7 
  1072.07,300.073 1074.08,601.504 1076.08,964.05 1078.08,510.385 1080.09,1454.64 1082.09,441.84 1084.09,459.919 1086.09,1041.15 1088.1,458.267 1090.1,1408.86 
  1092.1,605.963 1094.11,328.469 1096.11,1091.27 1098.11,442.196 1100.11,1326.09 1102.12,781.49 1104.12,217.859 1106.12,1108.58 1108.13,461.908 1110.13,1213.72 
  1112.13,956.603 1114.14,137.431 1116.14,1089.99 1118.14,514.115 1120.14,1081.21 1122.15,1119.52 1124.15,94.4168 1126.15,1035.45 1128.16,592.801 1130.16,939.339 
  1132.16,1259.37 1134.16,93.3411 1136.17,947.981 1138.17,689.737 1140.17,799.315 1142.18,1367.05 1144.18,135.645 1146.18,833.452 1148.18,795.169 1150.19,671.913 
  1152.19,1435.86 1154.19,219.544 1156.2,700.152 1158.2,898.639 1160.2,566.613 1162.2,1462.04 1164.21,340.136 1166.21,558.138 1168.21,989.851 1170.22,490.869 
  1172.22,1445 1174.22,489.759 1176.22,418.449 1178.23,1059.53 1180.23,449.532 1182.23,1387.36 1184.24,658.556 1186.24,292.238 1188.24,1100.19 1190.25,444.49 
  1192.25,1294.72 1194.25,835.222 1196.25,189.883 1198.26,1106.8 1200.26,474.543 1202.26,1175.16 1204.27,1007.85 1206.27,120.159 1208.27,1077.16 1210.27,535.535 
  1212.28,1038.63 1214.28,1164.85 1216.28,89.5295 1218.29,1012.17 1220.29,620.714 1222.29,896.141 1224.29,1295.81 1226.3,101.613 1228.3,915.747 1230.3,721.307 
  1232.31,758.853 1234.31,1392.27 1236.31,156.875 1238.31,794.551 1240.32,827.259 1242.32,637.235 1244.32,1448.4 1246.33,252.563 1248.33,657.482 1250.33,928.067 
  1252.33,540.227 1254.34,1461.38 1256.34,382.888 1258.34,514.985 1260.35,1013.66 1262.35,474.542 1264.35,1431.6 1266.36,539.453 1268.36,378.226 1270.36,1075.22 
  1272.36,444.161 1274.37,1362.62 1276.37,711.878 1278.37,258.216 1280.38,1105.96 1282.38,450.036 1284.38,1260.85 1286.38,888.582 1288.39,164.929 1290.39,1101.66 
  1292.39,490.046 1294.4,1135.03 1296.4,1057.66 1298.4,106.508 1300.4,1061.06 1302.41,559.196 1304.41,995.507 1306.41,1207.78 1308.42,88.5977 1310.42,985.978 
  1312.42,650.054 1314.42,853.428 1316.43,1329.05 1318.43,113.884 1320.43,881.217 1322.44,753.374 1324.44,719.844 1326.44,1413.76 1328.44,181.849 1330.45,754.178 
  1332.45,858.873 1334.45,604.839 1336.46,1456.95 1338.46,288.79 1340.46,614.308 1342.47,956.084 1344.47,516.744 1346.47,1456.76 1348.47,428.07 1350.48,472.361 
  1352.48,1035.23 1354.48,461.488 1356.49,1414.57 1358.49,590.617 1360.49,339.552 1362.49,1088.05 1364.5,442.151 1366.5,1334.84 1368.5,765.597 1370.51,226.667 
  1372.51,1108.47 1374.51,458.746 1376.51,1224.76 1378.52,941.234 1380.52,143.203 1382.52,1093.15 1384.53,508.249 1386.53,1093.63 1388.53,1105.71 1390.53,96.6072 
  1392.54,1041.75 1394.54,584.869 1396.54,952.145 1398.55,1248.03 1400.55,91.6662 1402.55,957.031 1404.55,680.55 1406.56,811.504 1408.56,1358.91 1410.56,130.107 
  1412.57,844.62 1414.57,785.643 1416.57,682.558 1418.58,1431.4 1420.58,210.433 1422.58,712.613 1424.58,889.718 1426.59,574.938 1428.59,1461.47 1430.59,328.012 
  1432.6,570.939 1434.6,982.427 1436.6,496.306 1438.6,1448.25 1440.61,475.407 1442.61,430.582 1444.61,1054.37 1446.62,451.763 1448.62,1394.06 1450.62,642.932 
  1452.62,302.722 1454.63,1097.88 1456.63,443.471 1458.63,1304.25 1460.64,819.376 1462.64,197.842 1464.64,1107.68 1466.64,470.506 1468.65,1186.72 1470.65,992.853 
  1472.65,124.891 1474.66,1081.3 1476.66,528.965 1478.66,1051.28 1480.66,1151.7 1482.67,90.5641 1484.67,1019.36 1486.67,612.309 1488.68,908.863 1490.68,1285.37 
  1492.68,98.7523 1494.69,925.517 1496.69,711.918 1498.69,770.665 1500.69,1385.21 1502.7,150.21 1504.7,806.206 1506.7,817.818 1508.71,647.25 1510.71,1445.11 
  1512.71,242.467 1514.71,670.152 1516.72,919.51 1518.72,547.725 1520.72,1461.99 1522.73,369.996 1524.73,527.69 1526.73,1006.85 1528.73,479.027 1530.74,1435.94 
  1532.74,524.608 1534.74,389.959 1536.75,1070.87 1538.75,445.397 1540.75,1370.25 1542.75,696.073 1544.76,268.019 1546.76,1104.59 1548.76,448.064 1550.77,1271.1 
  1552.77,872.88 1554.77,171.973 1556.77,1103.53 1558.78,485.178 1560.78,1147.03 1562.78,1043.12 1564.79,110.155 1566.79,1066.15 1568.79,551.988 1570.8,1008.28 
  1572.8,1195.37 1574.8,88.4582 1576.8,994.009 1578.81,641.255 1580.81,865.975 1582.81,1319.58 1584.82,109.846 1586.82,891.641 1588.82,743.869 1590.82,731.198 
  1592.83,1407.81 1594.83,174.091 1596.83,766.239 1598.84,849.602 1600.84,614.157 1602.84,1454.84 1604.84,277.768 1606.85,627.094 1608.85,947.971 1610.85,523.369 
  1612.86,1458.53 1614.86,414.488 1616.86,484.877 1618.86,1029.1 1620.87,464.999 1622.87,1419.97 1624.87,575.371 1626.88,350.796 1628.88,1084.57 1630.88,442.396 
  1632.88,1343.35 1634.89,749.709 1636.89,235.712 1638.89,1108.07 1640.9,455.851 1642.9,1235.64 1644.9,925.776 1646.91,149.273 1648.91,1096.01 1650.91,502.602 
  1652.91,1105.97 1654.92,1091.71 1656.92,99.1342 1658.92,1047.78 1660.93,577.091 1662.93,964.958 1664.93,1236.43 1666.93,90.3421 1668.94,965.856 1670.94,671.439 
  1672.94,823.787 1674.95,1350.45 1676.95,124.908 1678.95,855.63 1680.95,776.109 1682.96,693.376 1684.96,1426.6 1686.96,201.624 1688.97,724.997 1690.97,880.704 
  1692.97,583.498 1694.97,1460.55 1696.98,316.129 1698.98,583.75 1700.98,974.836 1702.99,502.018 1704.99,1451.16 1706.99,461.218 1708.99,442.816 1711,1048.98 
  1713,454.286 1715,1400.47 1717.01,627.379 1719.01,313.391 1721.01,1095.3 1723.02,442.737 1725.02,1313.57 1727.02,803.505 1729.02,206.058 1731.03,1108.26 
  1733.03,466.723 1735.03,1198.14 1737.04,977.734 1739.04,129.934 1741.04,1085.14 1743.04,522.597 1745.05,1063.87 1747.05,1138.35 1749.05,91.9424 1751.06,1026.29 
  1753.06,604.035 1755.06,921.62 1757.06,1274.66 1759.07,96.2414 1761.07,935.08 1763.07,702.579 1765.08,782.597 1767.08,1377.82 1769.08,143.874 1771.08,817.726 
  1773.09,808.342 1775.09,657.458 1777.09,1441.48 1779.1,232.657 1781.1,682.769 1783.1,910.836 1785.1,555.472 1787.11,1462.25 1789.11,357.322 1791.11,540.433 
  1793.12,999.848 1795.12,483.796 1797.12,1439.96 1799.13,509.9 1801.13,401.819 1803.13,1066.28 1805.13,446.927 1807.14,1377.62 1809.14,680.31 1811.14,278.031 
  1813.15,1102.94 1815.15,446.371 1817.15,1281.14 1819.15,857.125 1821.16,179.293 1823.16,1105.1 1825.16,480.55 1827.17,1158.91 1829.17,1028.43 1831.17,114.126 
  1833.17,1070.96 1835.18,544.961 1837.18,1021.03 1839.18,1182.73 1841.19,88.6668 1843.19,1001.8 1845.19,632.565 1847.19,878.584 1849.2,1309.81 1851.2,106.154 
  1853.2,901.88 1855.21,734.388 1857.21,742.696 1859.21,1401.53 1861.21,166.651 1863.22,778.189 1865.22,840.272 1867.22,623.688 1869.23,1452.39 1871.23,267.013 
  1873.23,639.856 1875.24,939.719 1877.24,530.256 1879.24,1459.96 1881.24,401.101 1883.25,497.458 1885.25,1022.77 1887.25,468.8 1889.26,1425.06 1891.26,560.233 
  1893.26,362.193 1895.26,1080.82 1897.27,442.934 1899.27,1351.61 1901.27,733.835 1903.28,244.99 1905.28,1107.38 1907.28,453.225 1909.28,1246.33 1911.29,910.235 
  1913.29,155.636 1915.29,1098.58 1917.3,497.18 1919.3,1118.22 1921.3,1077.55 1923.3,101.995 1925.31,1053.54 1927.31,569.474 1929.31,977.77 1931.32,1224.59 
  1933.32,89.3684 1935.32,974.453 1937.32,662.412 1939.33,836.157 1941.33,1341.69 1943.33,120.049 1945.34,866.475 1947.34,766.574 1949.34,704.36 1951.35,1421.45 
  1953.35,193.12 1955.35,737.294 1957.35,871.606 1959.36,592.288 1961.36,1459.28 1963.36,304.493 1965.37,596.564 1967.37,967.082 1969.37,508.004 1971.37,1453.74 
  1973.38,447.2 1975.38,455.142 1977.38,1043.37 1979.39,457.103 1981.39,1406.58 1983.39,611.907 1985.39,324.239 1987.4,1092.45 1989.4,442.291 1991.4,1322.65 
  1993.41,787.619 1995.41,214.526 1997.41,1108.55 1999.41,463.198 2001.42,1209.41 2003.42,962.504 2005.42,135.286 2007.43,1088.7 2009.43,516.435 2011.43,1076.4 
  2013.43,1124.8 2015.44,93.6625 2017.44,1032.95 2019.44,595.9 2021.45,934.403 2023.45,1263.68 2025.45,94.0807 2027.46,944.432 2029.46,693.299 2031.46,794.642 
  2033.46,1370.11 2035.47,137.871 2037.47,829.103 2039.47,798.84 2041.48,667.854 2043.48,1437.49 2045.48,223.137 2047.48,695.326 2049.49,902.054 2051.49,563.465 
  2053.49,1462.17 2055.5,344.875 2057.5,553.205 2059.5,992.667 2061.5,488.846 2063.51,1443.66 2065.51,495.336 2067.51,413.799 2069.52,1061.45 2071.52,448.751 
  2073.52,1384.7 2075.52,664.6 2077.53,288.246 2079.53,1101.01 2081.53,444.959 2083.54,1290.98 2085.54,841.326 2087.54,186.884 2089.54,1106.38 2091.55,476.167 
  2093.55,1170.66 2095.55,1013.61 2097.56,118.419 2099.56,1075.49 2101.56,538.121 2103.57,1033.74 2105.57,1169.87 2107.57,89.2227 2109.57,1009.33 2111.58,623.989 
  2113.58,891.245 2115.58,1299.76 2117.59,102.81 2119.59,911.926 2121.59,724.941 2123.59,754.33 2125.6,1394.91 2127.6,159.534 2129.6,790.021 2131.61,830.89 
  2133.61,633.425 2135.61,1449.58 2137.61,256.531 2139.62,652.584 2141.62,931.335 2143.62,537.402 2145.63,1461.05 2147.63,387.917 2149.63,510.097 2151.63,1016.23 
  2153.64,472.889 2155.64,1429.84 2157.64,545.213 2159.65,373.737 2161.65,1076.83 2163.65,443.763 2165.65,1359.6 2167.66,717.984 2169.66,254.492 2171.66,1106.41 
  2173.67,450.871 2175.67,1256.85 2177.67,894.621 2179.68,162.288 2181.68,1100.86 2183.68,491.986 2185.68,1130.37 2187.69,1063.23 2189.69,105.188 2191.69,1059.02 
  2193.7,562.024 2195.7,990.573 2197.7,1212.5 2199.7,88.7448 2201.71,982.816 2203.71,653.475 2205.71,848.607 2207.72,1332.63 2209.72,115.533 2211.72,877.148 
  2213.72,757.045 2215.73,715.504 2217.73,1415.97 2219.73,184.926 2221.74,749.498 2223.74,862.43 2225.74,601.303 2227.74,1457.67 2229.75,293.111 2231.75,609.371 
  2233.75,959.174 2235.76,514.26 2237.76,1455.98 2239.76,433.359 2241.76,467.553 2243.77,1037.54 2245.77,460.211 2247.77,1412.4 2249.78,596.524 2251.78,335.258 
  2253.78,1089.33 2255.79,442.134 2257.79,1331.49 2259.79,771.726 
  "/>
<polygon clip-path="url(#clip5900)" points="
1958.43,251.724 2249.26,251.724 2249.26,130.764 1958.43,130.764 
  " fill="#ffffff" fill-rule="evenodd" fill-opacity="1"/>
<polyline clip-path="url(#clip5900)" style="stroke:#000000; stroke-width:4; stroke-opacity:1; fill:none" points="
  1958.43,251.724 2249.26,251.724 2249.26,130.764 1958.43,130.764 1958.43,251.724 
  "/>
<polyline clip-path="url(#clip5900)" style="stroke:#009af9; stroke-width:4; stroke-opacity:1; fill:none" points="
  1982.43,191.244 2126.43,191.244 
  "/>
<g clip-path="url(#clip5900)">
<text style="fill:#000000; fill-opacity:1; font-family:Arial,Helvetica Neue,Helvetica,sans-serif; font-size:48px; text-anchor:start;" transform="rotate(0, 2150.43, 208.744)" x="2150.43" y="208.744">y1</text>
</g>
</svg>
