<?xml version="1.0" encoding="utf-8"?>
<svg xmlns="http://www.w3.org/2000/svg" xmlns:xlink="http://www.w3.org/1999/xlink" width="600" height="400" viewBox="0 0 2400 1600">
<defs>
  <clipPath id="clip7900">
    <rect x="0" y="0" width="2400" height="1600"/>
  </clipPath>
</defs>
<polygon clip-path="url(#clip7900)" points="
0,1600 2400,1600 2400,0 0,0 
  " fill="#ffffff" fill-rule="evenodd" fill-opacity="1"/>
<defs>
  <clipPath id="clip7901">
    <rect x="480" y="0" width="1681" height="1600"/>
  </clipPath>
</defs>
<polygon clip-path="url(#clip7900)" points="
189.504,1503.47 2321.26,1503.47 2321.26,47.2441 189.504,47.2441 
  " fill="#ffffff" fill-rule="evenodd" fill-opacity="1"/>
<defs>
  <clipPath id="clip7902">
    <rect x="189" y="47" width="2133" height="1457"/>
  </clipPath>
</defs>
<polyline clip-path="url(#clip7902)" style="stroke:#000000; stroke-width:2; stroke-opacity:0.1; fill:none" points="
  249.837,1503.47 249.837,47.2441 
  "/>
<polyline clip-path="url(#clip7902)" style="stroke:#000000; stroke-width:2; stroke-opacity:0.1; fill:none" points="
  752.609,1503.47 752.609,47.2441 
  "/>
<polyline clip-path="url(#clip7902)" style="stroke:#000000; stroke-width:2; stroke-opacity:0.1; fill:none" points="
  1255.38,1503.47 1255.38,47.2441 
  "/>
<polyline clip-path="url(#clip7902)" style="stroke:#000000; stroke-width:2; stroke-opacity:0.1; fill:none" points="
  1758.15,1503.47 1758.15,47.2441 
  "/>
<polyline clip-path="url(#clip7902)" style="stroke:#000000; stroke-width:2; stroke-opacity:0.1; fill:none" points="
  2260.93,1503.47 2260.93,47.2441 
  "/>
<polyline clip-path="url(#clip7902)" style="stroke:#000000; stroke-width:2; stroke-opacity:0.1; fill:none" points="
  189.504,1464.46 2321.26,1464.46 
  "/>
<polyline clip-path="url(#clip7902)" style="stroke:#000000; stroke-width:2; stroke-opacity:0.1; fill:none" points="
  189.504,1119.91 2321.26,1119.91 
  "/>
<polyline clip-path="url(#clip7902)" style="stroke:#000000; stroke-width:2; stroke-opacity:0.1; fill:none" points="
  189.504,775.359 2321.26,775.359 
  "/>
<polyline clip-path="url(#clip7902)" style="stroke:#000000; stroke-width:2; stroke-opacity:0.1; fill:none" points="
  189.504,430.807 2321.26,430.807 
  "/>
<polyline clip-path="url(#clip7902)" style="stroke:#000000; stroke-width:2; stroke-opacity:0.1; fill:none" points="
  189.504,86.2555 2321.26,86.2555 
  "/>
<polyline clip-path="url(#clip7900)" style="stroke:#000000; stroke-width:4; stroke-opacity:1; fill:none" points="
  189.504,1503.47 2321.26,1503.47 
  "/>
<polyline clip-path="url(#clip7900)" style="stroke:#000000; stroke-width:4; stroke-opacity:1; fill:none" points="
  189.504,1503.47 189.504,47.2441 
  "/>
<polyline clip-path="url(#clip7900)" style="stroke:#000000; stroke-width:4; stroke-opacity:1; fill:none" points="
  249.837,1503.47 249.837,1481.63 
  "/>
<polyline clip-path="url(#clip7900)" style="stroke:#000000; stroke-width:4; stroke-opacity:1; fill:none" points="
  752.609,1503.47 752.609,1481.63 
  "/>
<polyline clip-path="url(#clip7900)" style="stroke:#000000; stroke-width:4; stroke-opacity:1; fill:none" points="
  1255.38,1503.47 1255.38,1481.63 
  "/>
<polyline clip-path="url(#clip7900)" style="stroke:#000000; stroke-width:4; stroke-opacity:1; fill:none" points="
  1758.15,1503.47 1758.15,1481.63 
  "/>
<polyline clip-path="url(#clip7900)" style="stroke:#000000; stroke-width:4; stroke-opacity:1; fill:none" points="
  2260.93,1503.47 2260.93,1481.63 
  "/>
<polyline clip-path="url(#clip7900)" style="stroke:#000000; stroke-width:4; stroke-opacity:1; fill:none" points="
  189.504,1464.46 221.48,1464.46 
  "/>
<polyline clip-path="url(#clip7900)" style="stroke:#000000; stroke-width:4; stroke-opacity:1; fill:none" points="
  189.504,1119.91 221.48,1119.91 
  "/>
<polyline clip-path="url(#clip7900)" style="stroke:#000000; stroke-width:4; stroke-opacity:1; fill:none" points="
  189.504,775.359 221.48,775.359 
  "/>
<polyline clip-path="url(#clip7900)" style="stroke:#000000; stroke-width:4; stroke-opacity:1; fill:none" points="
  189.504,430.807 221.48,430.807 
  "/>
<polyline clip-path="url(#clip7900)" style="stroke:#000000; stroke-width:4; stroke-opacity:1; fill:none" points="
  189.504,86.2555 221.48,86.2555 
  "/>
<g clip-path="url(#clip7900)">
<text style="fill:#000000; fill-opacity:1; font-family:Arial,Helvetica Neue,Helvetica,sans-serif; font-size:48px; text-anchor:middle;" transform="rotate(0, 249.837, 1557.47)" x="249.837" y="1557.47">0.00</text>
</g>
<g clip-path="url(#clip7900)">
<text style="fill:#000000; fill-opacity:1; font-family:Arial,Helvetica Neue,Helvetica,sans-serif; font-size:48px; text-anchor:middle;" transform="rotate(0, 752.609, 1557.47)" x="752.609" y="1557.47">0.25</text>
</g>
<g clip-path="url(#clip7900)">
<text style="fill:#000000; fill-opacity:1; font-family:Arial,Helvetica Neue,Helvetica,sans-serif; font-size:48px; text-anchor:middle;" transform="rotate(0, 1255.38, 1557.47)" x="1255.38" y="1557.47">0.50</text>
</g>
<g clip-path="url(#clip7900)">
<text style="fill:#000000; fill-opacity:1; font-family:Arial,Helvetica Neue,Helvetica,sans-serif; font-size:48px; text-anchor:middle;" transform="rotate(0, 1758.15, 1557.47)" x="1758.15" y="1557.47">0.75</text>
</g>
<g clip-path="url(#clip7900)">
<text style="fill:#000000; fill-opacity:1; font-family:Arial,Helvetica Neue,Helvetica,sans-serif; font-size:48px; text-anchor:middle;" transform="rotate(0, 2260.93, 1557.47)" x="2260.93" y="1557.47">1.00</text>
</g>
<g clip-path="url(#clip7900)">
<text style="fill:#000000; fill-opacity:1; font-family:Arial,Helvetica Neue,Helvetica,sans-serif; font-size:48px; text-anchor:end;" transform="rotate(0, 165.504, 1481.96)" x="165.504" y="1481.96">-1.0</text>
</g>
<g clip-path="url(#clip7900)">
<text style="fill:#000000; fill-opacity:1; font-family:Arial,Helvetica Neue,Helvetica,sans-serif; font-size:48px; text-anchor:end;" transform="rotate(0, 165.504, 1137.41)" x="165.504" y="1137.41">-0.5</text>
</g>
<g clip-path="url(#clip7900)">
<text style="fill:#000000; fill-opacity:1; font-family:Arial,Helvetica Neue,Helvetica,sans-serif; font-size:48px; text-anchor:end;" transform="rotate(0, 165.504, 792.859)" x="165.504" y="792.859">0.0</text>
</g>
<g clip-path="url(#clip7900)">
<text style="fill:#000000; fill-opacity:1; font-family:Arial,Helvetica Neue,Helvetica,sans-serif; font-size:48px; text-anchor:end;" transform="rotate(0, 165.504, 448.307)" x="165.504" y="448.307">0.5</text>
</g>
<g clip-path="url(#clip7900)">
<text style="fill:#000000; fill-opacity:1; font-family:Arial,Helvetica Neue,Helvetica,sans-serif; font-size:48px; text-anchor:end;" transform="rotate(0, 165.504, 103.756)" x="165.504" y="103.756">1.0</text>
</g>
<polyline clip-path="url(#clip7902)" style="stroke:#009af9; stroke-width:4; stroke-opacity:1; fill:none" points="
  249.837,88.4673 251.803,88.5022 253.769,88.5631 255.734,88.6497 257.7,88.7623 259.666,88.9007 261.632,89.0649 263.598,89.2549 265.564,89.4708 267.53,89.7126 
  269.496,89.9801 271.461,90.2734 273.427,90.5926 275.393,90.9375 277.359,91.3082 279.325,91.7046 281.291,92.1268 283.257,92.5747 285.223,93.0483 287.188,93.5476 
  289.154,94.0726 291.12,94.6232 293.086,95.1994 295.052,95.8013 297.018,96.4287 298.984,97.0817 300.95,97.7602 302.915,98.4643 304.881,99.1938 306.847,99.9488 
  308.813,100.729 310.779,101.535 312.745,102.366 314.711,103.223 316.677,104.105 318.642,105.012 320.608,105.944 322.574,106.902 324.54,107.884 326.506,108.892 
  328.472,109.925 330.438,110.983 332.404,112.066 334.369,113.174 336.335,114.307 338.301,115.465 340.267,116.647 342.233,117.855 344.199,119.087 346.165,120.344 
  348.131,121.625 350.096,122.932 352.062,124.262 354.028,125.618 355.994,126.997 357.96,128.401 359.926,129.83 361.892,131.283 363.858,132.76 365.823,134.261 
  367.789,135.786 369.755,137.336 371.721,138.909 373.687,140.507 375.653,142.128 377.619,143.773 379.585,145.442 381.55,147.135 383.516,148.851 385.482,150.591 
  387.448,152.354 389.414,154.141 391.38,155.951 393.346,157.785 395.312,159.642 397.277,161.522 399.243,163.425 401.209,165.351 403.175,167.3 405.141,169.272 
  407.107,171.267 409.073,173.285 411.039,175.325 413.004,177.388 414.97,179.473 416.936,181.581 418.902,183.711 420.868,185.864 422.834,188.038 424.8,190.235 
  426.766,192.454 428.731,194.695 430.697,196.957 432.663,199.241 434.629,201.548 436.595,203.875 438.561,206.224 440.527,208.595 442.493,210.987 444.458,213.4 
  446.424,215.834 448.39,218.29 450.356,220.766 452.322,223.263 454.288,225.781 456.254,228.32 458.22,230.879 460.185,233.459 462.151,236.06 464.117,238.68 
  466.083,241.321 468.049,243.982 470.015,246.662 471.981,249.363 473.947,252.084 475.912,254.824 477.878,257.584 479.844,260.363 481.81,263.162 483.776,265.98 
  485.742,268.817 487.708,271.674 489.674,274.549 491.639,277.443 493.605,280.356 495.571,283.287 497.537,286.237 499.503,289.206 501.469,292.192 503.435,295.197 
  505.401,298.22 507.366,301.261 509.332,304.32 511.298,307.396 513.264,310.491 515.23,313.602 517.196,316.731 519.162,319.878 521.128,323.041 523.093,326.222 
  525.059,329.419 527.025,332.633 528.991,335.864 530.957,339.111 532.923,342.375 534.889,345.655 536.855,348.952 538.82,352.264 540.786,355.592 542.752,358.936 
  544.718,362.296 546.684,365.672 548.65,369.062 550.616,372.468 552.582,375.89 554.547,379.326 556.513,382.777 558.479,386.243 560.445,389.723 562.411,393.219 
  564.377,396.728 566.343,400.252 568.309,403.79 570.274,407.342 572.24,410.907 574.206,414.487 576.172,418.08 578.138,421.686 580.104,425.306 582.07,428.939 
  584.036,432.585 586.001,436.244 587.967,439.916 589.933,443.6 591.899,447.297 593.865,451.006 595.831,454.727 597.797,458.461 599.763,462.206 601.728,465.963 
  603.694,469.732 605.66,473.512 607.626,477.304 609.592,481.107 611.558,484.921 613.524,488.746 615.49,492.582 617.455,496.428 619.421,500.285 621.387,504.152 
  623.353,508.03 625.319,511.917 627.285,515.814 629.251,519.722 631.217,523.638 633.182,527.565 635.148,531.5 637.114,535.445 639.08,539.399 641.046,543.362 
  643.012,547.333 644.978,551.313 646.944,555.302 648.909,559.298 650.875,563.303 652.841,567.316 654.807,571.337 656.773,575.365 658.739,579.401 660.705,583.444 
  662.671,587.495 664.636,591.553 666.602,595.617 668.568,599.688 670.534,603.766 672.5,607.851 674.466,611.941 676.432,616.038 678.398,620.141 680.363,624.25 
  682.329,628.364 684.295,632.484 686.261,636.609 688.227,640.739 690.193,644.875 692.159,649.016 694.125,653.161 696.09,657.311 698.056,661.465 700.022,665.623 
  701.988,669.786 703.954,673.953 705.92,678.123 707.886,682.297 709.852,686.475 711.817,690.656 713.783,694.84 715.749,699.027 717.715,703.217 719.681,707.41 
  721.647,711.606 723.613,715.803 725.579,720.003 727.544,724.205 729.51,728.409 731.476,732.615 733.442,736.823 735.408,741.031 737.374,745.242 739.34,749.453 
  741.306,753.665 743.271,757.878 745.237,762.092 747.203,766.306 749.169,770.521 751.135,774.735 753.101,778.95 755.067,783.165 757.033,787.379 758.999,791.593 
  760.964,795.806 762.93,800.019 764.896,804.23 766.862,808.441 768.828,812.65 770.794,816.858 772.76,821.064 774.726,825.269 776.691,829.471 778.657,833.672 
  780.623,837.87 782.589,842.066 784.555,846.26 786.521,850.451 788.487,854.639 790.453,858.824 792.418,863.006 794.384,867.185 796.35,871.36 798.316,875.531 
  800.282,879.699 802.248,883.863 804.214,888.023 806.18,892.178 808.145,896.33 810.111,900.476 812.077,904.618 814.043,908.755 816.009,912.887 817.975,917.014 
  819.941,921.135 821.907,925.251 823.872,929.362 825.838,933.466 827.804,937.565 829.77,941.657 831.736,945.744 833.702,949.823 835.668,953.897 837.634,957.963 
  839.599,962.023 841.565,966.076 843.531,970.121 845.497,974.159 847.463,978.19 849.429,982.213 851.395,986.228 853.361,990.235 855.326,994.234 857.292,998.225 
  859.258,1002.21 861.224,1006.18 863.19,1010.15 865.156,1014.1 867.122,1018.05 869.088,1021.99 871.053,1025.92 873.019,1029.84 874.985,1033.75 876.951,1037.65 
  878.917,1041.54 880.883,1045.42 882.849,1049.29 884.815,1053.15 886.78,1057 888.746,1060.84 890.712,1064.67 892.678,1068.48 894.644,1072.29 896.61,1076.08 
  898.576,1079.87 900.542,1083.64 902.507,1087.4 904.473,1091.15 906.439,1094.89 908.405,1098.61 910.371,1102.32 912.337,1106.03 914.303,1109.71 916.269,1113.39 
  918.234,1117.05 920.2,1120.7 922.166,1124.34 924.132,1127.96 926.098,1131.57 928.064,1135.17 930.03,1138.75 931.996,1142.32 933.961,1145.88 935.927,1149.42 
  937.893,1152.95 939.859,1156.46 941.825,1159.96 943.791,1163.45 945.757,1166.92 947.723,1170.37 949.688,1173.81 951.654,1177.24 953.62,1180.65 955.586,1184.04 
  957.552,1187.42 959.518,1190.79 961.484,1194.14 963.45,1197.47 965.415,1200.79 967.381,1204.09 969.347,1207.37 971.313,1210.64 973.279,1213.89 975.245,1217.13 
  977.211,1220.35 979.177,1223.55 981.142,1226.74 983.108,1229.91 985.074,1233.06 987.04,1236.19 989.006,1239.31 990.972,1242.41 992.938,1245.49 994.904,1248.55 
  996.869,1251.6 998.835,1254.63 1000.8,1257.64 1002.77,1260.63 1004.73,1263.6 1006.7,1266.56 1008.66,1269.5 1010.63,1272.42 1012.6,1275.31 1014.56,1278.2 
  1016.53,1281.06 1018.49,1283.9 1020.46,1286.72 1022.43,1289.53 1024.39,1292.31 1026.36,1295.08 1028.32,1297.83 1030.29,1300.55 1032.26,1303.26 1034.22,1305.95 
  1036.19,1308.61 1038.15,1311.26 1040.12,1313.89 1042.08,1316.49 1044.05,1319.08 1046.02,1321.64 1047.98,1324.19 1049.95,1326.71 1051.91,1329.22 1053.88,1331.7 
  1055.85,1334.16 1057.81,1336.6 1059.78,1339.02 1061.74,1341.42 1063.71,1343.79 1065.68,1346.15 1067.64,1348.48 1069.61,1350.8 1071.57,1353.09 1073.54,1355.36 
  1075.5,1357.6 1077.47,1359.83 1079.44,1362.03 1081.4,1364.21 1083.37,1366.37 1085.33,1368.51 1087.3,1370.62 1089.27,1372.72 1091.23,1374.79 1093.2,1376.83 
  1095.16,1378.86 1097.13,1380.86 1099.09,1382.84 1101.06,1384.79 1103.03,1386.73 1104.99,1388.64 1106.96,1390.52 1108.92,1392.39 1110.89,1394.23 1112.86,1396.04 
  1114.82,1397.84 1116.79,1399.61 1118.75,1401.35 1120.72,1403.08 1122.69,1404.78 1124.65,1406.45 1126.62,1408.11 1128.58,1409.73 1130.55,1411.34 1132.51,1412.92 
  1134.48,1414.48 1136.45,1416.01 1138.41,1417.52 1140.38,1419 1142.34,1420.46 1144.31,1421.9 1146.28,1423.31 1148.24,1424.7 1150.21,1426.06 1152.17,1427.4 
  1154.14,1428.71 1156.11,1430 1158.07,1431.26 1160.04,1432.5 1162,1433.72 1163.97,1434.91 1165.93,1436.07 1167.9,1437.21 1169.87,1438.33 1171.83,1439.42 
  1173.8,1440.48 1175.76,1441.52 1177.73,1442.54 1179.7,1443.53 1181.66,1444.49 1183.63,1445.43 1185.59,1446.35 1187.56,1447.24 1189.53,1448.1 1191.49,1448.94 
  1193.46,1449.75 1195.42,1450.54 1197.39,1451.3 1199.35,1452.04 1201.32,1452.75 1203.29,1453.44 1205.25,1454.1 1207.22,1454.73 1209.18,1455.34 1211.15,1455.93 
  1213.12,1456.49 1215.08,1457.02 1217.05,1457.53 1219.01,1458.01 1220.98,1458.46 1222.95,1458.89 1224.91,1459.3 1226.88,1459.67 1228.84,1460.03 1230.81,1460.35 
  1232.77,1460.65 1234.74,1460.93 1236.71,1461.18 1238.67,1461.4 1240.64,1461.6 1242.6,1461.77 1244.57,1461.92 1246.54,1462.04 1248.5,1462.13 1250.47,1462.2 
  1252.43,1462.24 1254.4,1462.26 1256.36,1462.25 1258.33,1462.22 1260.3,1462.16 1262.26,1462.07 1264.23,1461.96 1266.19,1461.82 1268.16,1461.65 1270.13,1461.46 
  1272.09,1461.25 1274.06,1461.01 1276.02,1460.74 1277.99,1460.45 1279.96,1460.13 1281.92,1459.78 1283.89,1459.41 1285.85,1459.01 1287.82,1458.59 1289.78,1458.14 
  1291.75,1457.67 1293.72,1457.17 1295.68,1456.65 1297.65,1456.1 1299.61,1455.52 1301.58,1454.92 1303.55,1454.29 1305.51,1453.64 1307.48,1452.96 1309.44,1452.25 
  1311.41,1451.53 1313.38,1450.77 1315.34,1449.99 1317.31,1449.18 1319.27,1448.35 1321.24,1447.5 1323.2,1446.61 1325.17,1445.71 1327.14,1444.77 1329.1,1443.82 
  1331.07,1442.83 1333.03,1441.83 1335,1440.79 1336.97,1439.74 1338.93,1438.65 1340.9,1437.54 1342.86,1436.41 1344.83,1435.25 1346.8,1434.07 1348.76,1432.86 
  1350.73,1431.63 1352.69,1430.38 1354.66,1429.09 1356.62,1427.79 1358.59,1426.46 1360.56,1425.1 1362.52,1423.72 1364.49,1422.32 1366.45,1420.89 1368.42,1419.44 
  1370.39,1417.96 1372.35,1416.46 1374.32,1414.93 1376.28,1413.38 1378.25,1411.81 1380.22,1410.21 1382.18,1408.59 1384.15,1406.95 1386.11,1405.28 1388.08,1403.58 
  1390.04,1401.87 1392.01,1400.13 1393.98,1398.36 1395.94,1396.58 1397.91,1394.77 1399.87,1392.93 1401.84,1391.08 1403.81,1389.2 1405.77,1387.29 1407.74,1385.37 
  1409.7,1383.42 1411.67,1381.45 1413.63,1379.45 1415.6,1377.43 1417.57,1375.39 1419.53,1373.33 1421.5,1371.25 1423.46,1369.14 1425.43,1367.01 1427.4,1364.86 
  1429.36,1362.68 1431.33,1360.48 1433.29,1358.26 1435.26,1356.02 1437.23,1353.76 1439.19,1351.48 1441.16,1349.17 1443.12,1346.84 1445.09,1344.49 1447.05,1342.12 
  1449.02,1339.73 1450.99,1337.32 1452.95,1334.88 1454.92,1332.43 1456.88,1329.95 1458.85,1327.46 1460.82,1324.94 1462.78,1322.4 1464.75,1319.84 1466.71,1317.26 
  1468.68,1314.66 1470.65,1312.04 1472.61,1309.4 1474.58,1306.74 1476.54,1304.06 1478.51,1301.36 1480.47,1298.64 1482.44,1295.89 1484.41,1293.13 1486.37,1290.36 
  1488.34,1287.56 1490.3,1284.74 1492.27,1281.9 1494.24,1279.05 1496.2,1276.17 1498.17,1273.28 1500.13,1270.36 1502.1,1267.43 1504.07,1264.48 1506.03,1261.51 
  1508,1258.53 1509.96,1255.52 1511.93,1252.5 1513.89,1249.46 1515.86,1246.4 1517.83,1243.32 1519.79,1240.23 1521.76,1237.12 1523.72,1233.99 1525.69,1230.84 
  1527.66,1227.68 1529.62,1224.5 1531.59,1221.3 1533.55,1218.09 1535.52,1214.85 1537.49,1211.61 1539.45,1208.34 1541.42,1205.06 1543.38,1201.77 1545.35,1198.45 
  1547.31,1195.13 1549.28,1191.78 1551.25,1188.42 1553.21,1185.05 1555.18,1181.66 1557.14,1178.25 1559.11,1174.83 1561.08,1171.39 1563.04,1167.94 1565.01,1164.48 
  1566.97,1161 1568.94,1157.5 1570.9,1153.99 1572.87,1150.47 1574.84,1146.93 1576.8,1143.38 1578.77,1139.81 1580.73,1136.23 1582.7,1132.64 1584.67,1129.03 
  1586.63,1125.41 1588.6,1121.78 1590.56,1118.13 1592.53,1114.47 1594.5,1110.8 1596.46,1107.12 1598.43,1103.42 1600.39,1099.71 1602.36,1095.99 1604.32,1092.26 
  1606.29,1088.51 1608.26,1084.76 1610.22,1080.99 1612.19,1077.21 1614.15,1073.41 1616.12,1069.61 1618.09,1065.8 1620.05,1061.97 1622.02,1058.14 1623.98,1054.29 
  1625.95,1050.43 1627.92,1046.57 1629.88,1042.69 1631.85,1038.8 1633.81,1034.9 1635.78,1031 1637.74,1027.08 1639.71,1023.15 1641.68,1019.22 1643.64,1015.27 
  1645.61,1011.32 1647.57,1007.36 1649.54,1003.39 1651.51,999.406 1653.47,995.417 1655.44,991.42 1657.4,987.416 1659.37,983.403 1661.34,979.382 1663.3,975.354 
  1665.27,971.318 1667.23,967.274 1669.2,963.224 1671.16,959.166 1673.13,955.102 1675.1,951.03 1677.06,946.953 1679.03,942.868 1680.99,938.778 1682.96,934.681 
  1684.93,930.578 1686.89,926.469 1688.86,922.355 1690.82,918.235 1692.79,914.11 1694.76,909.979 1696.72,905.844 1698.69,901.703 1700.65,897.558 1702.62,893.408 
  1704.58,889.254 1706.55,885.095 1708.52,880.933 1710.48,876.766 1712.45,872.596 1714.41,868.422 1716.38,864.244 1718.35,860.063 1720.31,855.879 1722.28,851.692 
  1724.24,847.501 1726.21,843.309 1728.17,839.113 1730.14,834.916 1732.11,830.716 1734.07,826.513 1736.04,822.309 1738,818.104 1739.97,813.896 1741.94,809.687 
  1743.9,805.477 1745.87,801.266 1747.83,797.054 1749.8,792.841 1751.77,788.627 1753.73,784.413 1755.7,780.198 1757.66,775.984 1759.63,771.769 1761.59,767.554 
  1763.56,763.34 1765.53,759.126 1767.49,754.913 1769.46,750.7 1771.42,746.489 1773.39,742.278 1775.36,738.069 1777.32,733.861 1779.29,729.655 1781.25,725.45 
  1783.22,721.248 1785.19,717.047 1787.15,712.849 1789.12,708.652 1791.08,704.459 1793.05,700.268 1795.01,696.08 1796.98,691.895 1798.95,687.713 1800.91,683.534 
  1802.88,679.359 1804.84,675.187 1806.81,671.02 1808.78,666.856 1810.74,662.696 1812.71,658.54 1814.67,654.389 1816.64,650.243 1818.61,646.101 1820.57,641.964 
  1822.54,637.832 1824.5,633.705 1826.47,629.583 1828.43,625.467 1830.4,621.357 1832.37,617.253 1834.33,613.154 1836.3,609.061 1838.26,604.975 1840.23,600.895 
  1842.2,596.822 1844.16,592.756 1846.13,588.696 1848.09,584.643 1850.06,580.598 1852.03,576.56 1853.99,572.529 1855.96,568.506 1857.92,564.491 1859.89,560.484 
  1861.85,556.484 1863.82,552.494 1865.79,548.511 1867.75,544.537 1869.72,540.572 1871.68,536.615 1873.65,532.668 1875.62,528.729 1877.58,524.8 1879.55,520.881 
  1881.51,516.971 1883.48,513.07 1885.44,509.18 1887.41,505.299 1889.38,501.429 1891.34,497.569 1893.31,493.72 1895.27,489.881 1897.24,486.053 1899.21,482.235 
  1901.17,478.429 1903.14,474.634 1905.1,470.851 1907.07,467.078 1909.04,463.318 1911,459.569 1912.97,455.832 1914.93,452.107 1916.9,448.394 1918.86,444.694 
  1920.83,441.006 1922.8,437.33 1924.76,433.667 1926.73,430.017 1928.69,426.381 1930.66,422.757 1932.63,419.146 1934.59,415.549 1936.56,411.966 1938.52,408.396 
  1940.49,404.84 1942.46,401.298 1944.42,397.77 1946.39,394.256 1948.35,390.757 1950.32,387.272 1952.28,383.802 1954.25,380.346 1956.22,376.906 1958.18,373.48 
  1960.15,370.069 1962.11,366.674 1964.08,363.294 1966.05,359.93 1968.01,356.581 1969.98,353.248 1971.94,349.931 1973.91,346.63 1975.88,343.345 1977.84,340.076 
  1979.81,336.824 1981.77,333.588 1983.74,330.369 1985.7,327.167 1987.67,323.981 1989.64,320.813 1991.6,317.661 1993.57,314.527 1995.53,311.41 1997.5,308.311 
  1999.47,305.229 2001.43,302.165 2003.4,299.119 2005.36,296.091 2007.33,293.08 2009.3,290.088 2011.26,287.114 2013.23,284.159 2015.19,281.222 2017.16,278.304 
  2019.12,275.404 2021.09,272.523 2023.06,269.661 2025.02,266.818 2026.99,263.995 2028.95,261.19 2030.92,258.405 2032.89,255.639 2034.85,252.893 2036.82,250.167 
  2038.78,247.46 2040.75,244.774 2042.71,242.107 2044.68,239.46 2046.65,236.834 2048.61,234.227 2050.58,231.641 2052.54,229.076 2054.51,226.531 2056.48,224.007 
  2058.44,221.504 2060.41,219.021 2062.37,216.559 2064.34,214.119 2066.31,211.699 2068.27,209.301 2070.24,206.924 2072.2,204.569 2074.17,202.235 2076.13,199.922 
  2078.1,197.631 2080.07,195.362 2082.03,193.115 2084,190.89 2085.96,188.687 2087.93,186.505 2089.9,184.346 2091.86,182.21 2093.83,180.095 2095.79,178.003 
  2097.76,175.934 2099.73,173.887 2101.69,171.862 2103.66,169.861 2105.62,167.882 2107.59,165.926 2109.55,163.993 2111.52,162.083 2113.49,160.196 2115.45,158.333 
  2117.42,156.492 2119.38,154.675 2121.35,152.881 2123.32,151.111 2125.28,149.364 2127.25,147.641 2129.21,145.941 2131.18,144.265 2133.15,142.613 2135.11,140.984 
  2137.08,139.38 2139.04,137.799 2141.01,136.243 2142.97,134.71 2144.94,133.202 2146.91,131.718 2148.87,130.258 2150.84,128.822 2152.8,127.411 2154.77,126.024 
  2156.74,124.661 2158.7,123.323 2160.67,122.01 2162.63,120.721 2164.6,119.457 2166.57,118.217 2168.53,117.002 2170.5,115.812 2172.46,114.647 2174.43,113.507 
  2176.39,112.392 2178.36,111.301 2180.33,110.236 2182.29,109.195 2184.26,108.18 2186.22,107.19 2188.19,106.225 2190.16,105.285 2192.12,104.371 2194.09,103.481 
  2196.05,102.617 2198.02,101.779 2199.99,100.965 2201.95,100.177 2203.92,99.4147 2205.88,98.6777 2207.85,97.9661 2209.81,97.28 2211.78,96.6194 2213.75,95.9844 
  2215.71,95.375 2217.68,94.7912 2219.64,94.2329 2221.61,93.7004 2223.58,93.1935 2225.54,92.7123 2227.51,92.2568 2229.47,91.827 2231.44,91.4229 2233.4,91.0446 
  2235.37,90.692 2237.34,90.3653 2239.3,90.0643 2241.27,89.7891 2243.23,89.5397 2245.2,89.3162 2247.17,89.1185 2249.13,88.9466 2251.1,88.8006 2253.06,88.6804 
  2255.03,88.586 2257,88.5176 2258.96,88.4749 2260.93,88.4582 
  "/>
<polygon clip-path="url(#clip7900)" points="
1559.88,251.724 2249.26,251.724 2249.26,130.764 1559.88,130.764 
  " fill="#ffffff" fill-rule="evenodd" fill-opacity="1"/>
<polyline clip-path="url(#clip7900)" style="stroke:#000000; stroke-width:4; stroke-opacity:1; fill:none" points="
  1559.88,251.724 2249.26,251.724 2249.26,130.764 1559.88,130.764 1559.88,251.724 
  "/>
<polyline clip-path="url(#clip7900)" style="stroke:#009af9; stroke-width:4; stroke-opacity:1; fill:none" points="
  1583.88,191.244 1727.88,191.244 
  "/>
<g clip-path="url(#clip7900)">
<text style="fill:#000000; fill-opacity:1; font-family:Arial,Helvetica Neue,Helvetica,sans-serif; font-size:48px; text-anchor:start;" transform="rotate(0, 1751.88, 208.744)" x="1751.88" y="208.744">oczyszczony cosinus</text>
</g>
</svg>
