<?xml version="1.0" encoding="utf-8"?>
<svg xmlns="http://www.w3.org/2000/svg" xmlns:xlink="http://www.w3.org/1999/xlink" width="600" height="400" viewBox="0 0 2400 1600">
<defs>
  <clipPath id="clip8100">
    <rect x="0" y="0" width="2400" height="1600"/>
  </clipPath>
</defs>
<polygon clip-path="url(#clip8100)" points="
0,1600 2400,1600 2400,0 0,0 
  " fill="#ffffff" fill-rule="evenodd" fill-opacity="1"/>
<defs>
  <clipPath id="clip8101">
    <rect x="480" y="0" width="1681" height="1600"/>
  </clipPath>
</defs>
<polygon clip-path="url(#clip8100)" points="
174.775,1503.47 2321.26,1503.47 2321.26,47.2441 174.775,47.2441 
  " fill="#ffffff" fill-rule="evenodd" fill-opacity="1"/>
<defs>
  <clipPath id="clip8102">
    <rect x="174" y="47" width="2147" height="1457"/>
  </clipPath>
</defs>
<polyline clip-path="url(#clip8102)" style="stroke:#000000; stroke-width:2; stroke-opacity:0.1; fill:none" points="
  231.57,1503.47 231.57,47.2441 
  "/>
<polyline clip-path="url(#clip8102)" style="stroke:#000000; stroke-width:2; stroke-opacity:0.1; fill:none" points="
  627.075,1503.47 627.075,47.2441 
  "/>
<polyline clip-path="url(#clip8102)" style="stroke:#000000; stroke-width:2; stroke-opacity:0.1; fill:none" points="
  1022.58,1503.47 1022.58,47.2441 
  "/>
<polyline clip-path="url(#clip8102)" style="stroke:#000000; stroke-width:2; stroke-opacity:0.1; fill:none" points="
  1418.08,1503.47 1418.08,47.2441 
  "/>
<polyline clip-path="url(#clip8102)" style="stroke:#000000; stroke-width:2; stroke-opacity:0.1; fill:none" points="
  1813.59,1503.47 1813.59,47.2441 
  "/>
<polyline clip-path="url(#clip8102)" style="stroke:#000000; stroke-width:2; stroke-opacity:0.1; fill:none" points="
  2209.09,1503.47 2209.09,47.2441 
  "/>
<polyline clip-path="url(#clip8102)" style="stroke:#000000; stroke-width:2; stroke-opacity:0.1; fill:none" points="
  174.775,1462.27 2321.26,1462.27 
  "/>
<polyline clip-path="url(#clip8102)" style="stroke:#000000; stroke-width:2; stroke-opacity:0.1; fill:none" points="
  174.775,1110.86 2321.26,1110.86 
  "/>
<polyline clip-path="url(#clip8102)" style="stroke:#000000; stroke-width:2; stroke-opacity:0.1; fill:none" points="
  174.775,759.456 2321.26,759.456 
  "/>
<polyline clip-path="url(#clip8102)" style="stroke:#000000; stroke-width:2; stroke-opacity:0.1; fill:none" points="
  174.775,408.047 2321.26,408.047 
  "/>
<polyline clip-path="url(#clip8102)" style="stroke:#000000; stroke-width:2; stroke-opacity:0.1; fill:none" points="
  174.775,56.6382 2321.26,56.6382 
  "/>
<polyline clip-path="url(#clip8100)" style="stroke:#000000; stroke-width:4; stroke-opacity:1; fill:none" points="
  174.775,1503.47 2321.26,1503.47 
  "/>
<polyline clip-path="url(#clip8100)" style="stroke:#000000; stroke-width:4; stroke-opacity:1; fill:none" points="
  174.775,1503.47 174.775,47.2441 
  "/>
<polyline clip-path="url(#clip8100)" style="stroke:#000000; stroke-width:4; stroke-opacity:1; fill:none" points="
  231.57,1503.47 231.57,1481.63 
  "/>
<polyline clip-path="url(#clip8100)" style="stroke:#000000; stroke-width:4; stroke-opacity:1; fill:none" points="
  627.075,1503.47 627.075,1481.63 
  "/>
<polyline clip-path="url(#clip8100)" style="stroke:#000000; stroke-width:4; stroke-opacity:1; fill:none" points="
  1022.58,1503.47 1022.58,1481.63 
  "/>
<polyline clip-path="url(#clip8100)" style="stroke:#000000; stroke-width:4; stroke-opacity:1; fill:none" points="
  1418.08,1503.47 1418.08,1481.63 
  "/>
<polyline clip-path="url(#clip8100)" style="stroke:#000000; stroke-width:4; stroke-opacity:1; fill:none" points="
  1813.59,1503.47 1813.59,1481.63 
  "/>
<polyline clip-path="url(#clip8100)" style="stroke:#000000; stroke-width:4; stroke-opacity:1; fill:none" points="
  2209.09,1503.47 2209.09,1481.63 
  "/>
<polyline clip-path="url(#clip8100)" style="stroke:#000000; stroke-width:4; stroke-opacity:1; fill:none" points="
  174.775,1462.27 206.972,1462.27 
  "/>
<polyline clip-path="url(#clip8100)" style="stroke:#000000; stroke-width:4; stroke-opacity:1; fill:none" points="
  174.775,1110.86 206.972,1110.86 
  "/>
<polyline clip-path="url(#clip8100)" style="stroke:#000000; stroke-width:4; stroke-opacity:1; fill:none" points="
  174.775,759.456 206.972,759.456 
  "/>
<polyline clip-path="url(#clip8100)" style="stroke:#000000; stroke-width:4; stroke-opacity:1; fill:none" points="
  174.775,408.047 206.972,408.047 
  "/>
<polyline clip-path="url(#clip8100)" style="stroke:#000000; stroke-width:4; stroke-opacity:1; fill:none" points="
  174.775,56.6382 206.972,56.6382 
  "/>
<g clip-path="url(#clip8100)">
<text style="fill:#000000; fill-opacity:1; font-family:Arial,Helvetica Neue,Helvetica,sans-serif; font-size:48px; text-anchor:middle;" transform="rotate(0, 231.57, 1557.47)" x="231.57" y="1557.47">0</text>
</g>
<g clip-path="url(#clip8100)">
<text style="fill:#000000; fill-opacity:1; font-family:Arial,Helvetica Neue,Helvetica,sans-serif; font-size:48px; text-anchor:middle;" transform="rotate(0, 627.075, 1557.47)" x="627.075" y="1557.47">100</text>
</g>
<g clip-path="url(#clip8100)">
<text style="fill:#000000; fill-opacity:1; font-family:Arial,Helvetica Neue,Helvetica,sans-serif; font-size:48px; text-anchor:middle;" transform="rotate(0, 1022.58, 1557.47)" x="1022.58" y="1557.47">200</text>
</g>
<g clip-path="url(#clip8100)">
<text style="fill:#000000; fill-opacity:1; font-family:Arial,Helvetica Neue,Helvetica,sans-serif; font-size:48px; text-anchor:middle;" transform="rotate(0, 1418.08, 1557.47)" x="1418.08" y="1557.47">300</text>
</g>
<g clip-path="url(#clip8100)">
<text style="fill:#000000; fill-opacity:1; font-family:Arial,Helvetica Neue,Helvetica,sans-serif; font-size:48px; text-anchor:middle;" transform="rotate(0, 1813.59, 1557.47)" x="1813.59" y="1557.47">400</text>
</g>
<g clip-path="url(#clip8100)">
<text style="fill:#000000; fill-opacity:1; font-family:Arial,Helvetica Neue,Helvetica,sans-serif; font-size:48px; text-anchor:middle;" transform="rotate(0, 2209.09, 1557.47)" x="2209.09" y="1557.47">500</text>
</g>
<g clip-path="url(#clip8100)">
<text style="fill:#000000; fill-opacity:1; font-family:Arial,Helvetica Neue,Helvetica,sans-serif; font-size:48px; text-anchor:end;" transform="rotate(0, 150.775, 1479.77)" x="150.775" y="1479.77">0</text>
</g>
<g clip-path="url(#clip8100)">
<text style="fill:#000000; fill-opacity:1; font-family:Arial,Helvetica Neue,Helvetica,sans-serif; font-size:48px; text-anchor:end;" transform="rotate(0, 150.775, 1128.36)" x="150.775" y="1128.36">200</text>
</g>
<g clip-path="url(#clip8100)">
<text style="fill:#000000; fill-opacity:1; font-family:Arial,Helvetica Neue,Helvetica,sans-serif; font-size:48px; text-anchor:end;" transform="rotate(0, 150.775, 776.956)" x="150.775" y="776.956">400</text>
</g>
<g clip-path="url(#clip8100)">
<text style="fill:#000000; fill-opacity:1; font-family:Arial,Helvetica Neue,Helvetica,sans-serif; font-size:48px; text-anchor:end;" transform="rotate(0, 150.775, 425.547)" x="150.775" y="425.547">600</text>
</g>
<g clip-path="url(#clip8100)">
<text style="fill:#000000; fill-opacity:1; font-family:Arial,Helvetica Neue,Helvetica,sans-serif; font-size:48px; text-anchor:end;" transform="rotate(0, 150.775, 74.1382)" x="150.775" y="74.1382">800</text>
</g>
<polyline clip-path="url(#clip8102)" style="stroke:#009af9; stroke-width:4; stroke-opacity:1; fill:none" points="
  235.525,1462.26 239.48,1462.26 243.435,1462.25 247.39,1462.24 251.345,1462.23 255.3,1462.21 259.255,1462.2 263.21,1462.19 267.165,1462.18 271.12,1462.17 
  275.075,1462.16 279.03,1462.15 282.985,1462.13 286.94,1462.12 290.895,1462.11 294.851,1462.1 298.806,1462.09 302.761,1462.08 306.716,1462.06 310.671,1462.05 
  314.626,1462.04 318.581,1462.03 322.536,1462.02 326.491,1462.01 330.446,1461.99 334.401,1461.98 338.356,1461.97 342.311,1461.96 346.266,1461.95 350.221,1461.93 
  354.176,1461.92 358.131,1461.91 362.086,1461.9 366.041,1461.88 369.996,1461.87 373.952,1461.86 377.907,1461.85 381.862,1461.83 385.817,1461.82 389.772,1461.81 
  393.727,1461.8 397.682,1461.78 401.637,1461.77 405.592,1461.76 409.547,1461.75 413.502,1461.73 417.457,1461.72 421.412,1461.71 425.367,1461.69 429.322,1461.68 
  433.277,1461.67 437.232,1461.65 441.187,1461.64 445.142,1461.63 449.097,1461.61 453.053,1461.6 457.008,1461.58 460.963,1461.57 464.918,1461.56 468.873,1461.54 
  472.828,1461.53 476.783,1461.51 480.738,1461.5 484.693,1461.48 488.648,1461.47 492.603,1461.45 496.558,1461.44 500.513,1461.42 504.468,1461.41 508.423,1461.39 
  512.378,1461.38 516.333,1461.36 520.288,1461.34 524.243,1461.33 528.198,1461.31 532.154,1461.29 536.109,1461.28 540.064,1461.26 544.019,1461.24 547.974,1461.23 
  551.929,1461.21 555.884,1461.19 559.839,1461.17 563.794,1461.16 567.749,1461.14 571.704,1461.12 575.659,1461.1 579.614,1461.08 583.569,1461.06 587.524,1461.04 
  591.479,1461.02 595.434,1461 599.389,1460.98 603.344,1460.96 607.299,1460.94 611.255,1460.92 615.21,1460.9 619.165,1460.88 623.12,1460.86 627.075,1460.83 
  631.03,1460.81 634.985,1460.79 638.94,1460.77 642.895,1460.74 646.85,1460.72 650.805,1460.69 654.76,1460.67 658.715,1460.64 662.67,1460.62 666.625,1460.59 
  670.58,1460.57 674.535,1460.54 678.49,1460.51 682.445,1460.48 686.4,1460.45 690.356,1460.43 694.311,1460.4 698.266,1460.37 702.221,1460.34 706.176,1460.3 
  710.131,1460.27 714.086,1460.24 718.041,1460.21 721.996,1460.17 725.951,1460.14 729.906,1460.1 733.861,1460.06 737.816,1460.03 741.771,1459.99 745.726,1459.95 
  749.681,1459.91 753.636,1459.87 757.591,1459.83 761.546,1459.78 765.501,1459.74 769.456,1459.7 773.412,1459.65 777.367,1459.6 781.322,1459.55 785.277,1459.5 
  789.232,1459.45 793.187,1459.39 797.142,1459.34 801.097,1459.28 805.052,1459.22 809.007,1459.16 812.962,1459.1 816.917,1459.04 820.872,1458.97 824.827,1458.9 
  828.782,1458.83 832.737,1458.75 836.692,1458.67 840.647,1458.59 844.602,1458.51 848.557,1458.42 852.513,1458.33 856.468,1458.24 860.423,1458.14 864.378,1458.04 
  868.333,1457.93 872.288,1457.82 876.243,1457.7 880.198,1457.57 884.153,1457.44 888.108,1457.3 892.063,1457.16 896.018,1457 899.973,1456.84 903.928,1456.67 
  907.883,1456.48 911.838,1456.28 915.793,1456.08 919.748,1455.85 923.703,1455.61 927.658,1455.35 931.614,1455.07 935.569,1454.77 939.524,1454.44 943.479,1454.07 
  947.434,1453.68 951.389,1453.24 955.344,1452.76 959.299,1452.22 963.254,1451.62 967.209,1450.94 971.164,1450.16 975.119,1449.27 979.074,1448.23 983.029,1447.01 
  986.984,1445.55 990.939,1443.77 994.894,1441.57 998.849,1438.76 1002.8,1435.04 1006.76,1429.89 1010.71,1422.29 1014.67,1409.95 1018.62,1386.38 1022.58,1323.4 
  1026.53,617.813 1030.49,1257.23 1034.44,1371.25 1038.4,1403.95 1042.35,1419.46 1046.31,1428.52 1050.27,1434.47 1054.22,1438.67 1058.18,1441.79 1062.13,1444.21 
  1066.09,1446.14 1070.04,1447.71 1074,1449.02 1077.95,1450.13 1081.91,1451.08 1085.86,1451.9 1089.82,1452.62 1093.77,1453.26 1097.73,1453.82 1101.68,1454.33 
  1105.64,1454.79 1109.59,1455.2 1113.55,1455.58 1117.5,1455.93 1121.46,1456.25 1125.41,1456.54 1129.37,1456.82 1133.32,1457.07 1137.28,1457.31 1141.23,1457.53 
  1145.19,1457.74 1149.14,1457.94 1153.1,1458.12 1157.05,1458.3 1161.01,1458.46 1164.96,1458.62 1168.92,1458.77 1172.87,1458.91 1176.83,1459.05 1180.78,1459.18 
  1184.74,1459.3 1188.69,1459.42 1192.65,1459.54 1196.6,1459.65 1200.56,1459.75 1204.51,1459.86 1208.47,1459.96 1212.42,1460.05 1216.38,1460.15 1220.33,1460.24 
  1224.29,1460.33 1228.24,1460.41 1232.2,1460.5 1236.15,1460.58 1240.11,1460.66 1244.06,1460.74 1248.02,1460.81 1251.97,1460.89 1255.93,1460.96 1259.88,1461.03 
  1263.84,1461.1 1267.79,1461.17 1271.75,1461.24 1275.7,1461.31 1279.66,1461.37 1283.61,1461.44 1287.57,1461.5 1291.52,1461.57 1295.48,1461.63 1299.43,1461.69 
  1303.39,1461.75 1307.34,1461.82 1311.3,1461.88 1315.25,1461.94 1319.21,1462 1323.16,1462.06 1327.12,1462.12 1331.07,1462.18 1335.03,1462.23 1338.98,1462.25 
  1342.94,1462.19 1346.89,1462.13 1350.85,1462.07 1354.8,1462.02 1358.76,1461.96 1362.71,1461.9 1366.67,1461.84 1370.62,1461.78 1374.58,1461.72 1378.53,1461.66 
  1382.49,1461.6 1386.44,1461.54 1390.4,1461.48 1394.35,1461.42 1398.31,1461.36 1402.26,1461.29 1406.22,1461.23 1410.17,1461.17 1414.13,1461.11 1418.08,1461.04 
  1422.04,1460.98 1425.99,1460.91 1429.95,1460.85 1433.9,1460.78 1437.86,1460.71 1441.81,1460.64 1445.77,1460.57 1449.73,1460.5 1453.68,1460.43 1457.64,1460.36 
  1461.59,1460.28 1465.55,1460.21 1469.5,1460.13 1473.46,1460.05 1477.41,1459.98 1481.37,1459.9 1485.32,1459.81 1489.28,1459.73 1493.23,1459.65 1497.19,1459.56 
  1501.14,1459.47 1505.1,1459.38 1509.05,1459.29 1513.01,1459.2 1516.96,1459.1 1520.92,1459 1524.87,1458.9 1528.83,1458.8 1532.78,1458.69 1536.74,1458.58 
  1540.69,1458.47 1544.65,1458.36 1548.6,1458.24 1552.56,1458.12 1556.51,1458 1560.47,1457.87 1564.42,1457.74 1568.38,1457.61 1572.33,1457.47 1576.29,1457.32 
  1580.24,1457.18 1584.2,1457.02 1588.15,1456.87 1592.11,1456.71 1596.06,1456.54 1600.02,1456.36 1603.97,1456.18 1607.93,1456 1611.88,1455.8 1615.84,1455.6 
  1619.79,1455.39 1623.75,1455.18 1627.7,1454.95 1631.66,1454.72 1635.61,1454.47 1639.57,1454.22 1643.52,1453.95 1647.48,1453.67 1651.43,1453.38 1655.39,1453.07 
  1659.34,1452.75 1663.3,1452.41 1667.25,1452.06 1671.21,1451.68 1675.16,1451.29 1679.12,1450.87 1683.07,1450.43 1687.03,1449.96 1690.98,1449.47 1694.94,1448.94 
  1698.89,1448.37 1702.85,1447.77 1706.8,1447.13 1710.76,1446.44 1714.71,1445.69 1718.67,1444.89 1722.62,1444.02 1726.58,1443.08 1730.53,1442.06 1734.49,1440.93 
  1738.44,1439.7 1742.4,1438.34 1746.35,1436.83 1750.31,1435.14 1754.26,1433.25 1758.22,1431.12 1762.17,1428.69 1766.13,1425.89 1770.08,1422.64 1774.04,1418.82 
  1777.99,1414.27 1781.95,1408.74 1785.9,1401.89 1789.86,1393.19 1793.81,1381.77 1797.77,1366.11 1801.72,1343.31 1805.68,1307.07 1809.63,1240.52 1813.59,1078.33 
  1817.54,88.4582 1821.5,570.163 1825.45,1122.42 1829.41,1251.17 1833.36,1308.55 1837.32,1341.02 1841.27,1361.91 1845.23,1376.48 1849.19,1387.21 1853.14,1395.45 
  1857.1,1401.97 1861.05,1407.26 1865.01,1411.63 1868.96,1415.31 1872.92,1418.45 1876.87,1421.16 1880.83,1423.52 1884.78,1425.59 1888.74,1427.43 1892.69,1429.06 
  1896.65,1430.53 1900.6,1431.86 1904.56,1433.06 1908.51,1434.16 1912.47,1435.16 1916.42,1436.08 1920.38,1436.92 1924.33,1437.7 1928.29,1438.43 1932.24,1439.1 
  1936.2,1439.72 1940.15,1440.31 1944.11,1440.85 1948.06,1441.36 1952.02,1441.84 1955.97,1442.3 1959.93,1442.72 1963.88,1443.12 1967.84,1443.5 1971.79,1443.86 
  1975.75,1444.2 1979.7,1444.52 1983.66,1444.82 1987.61,1445.11 1991.57,1445.39 1995.52,1445.65 1999.48,1445.9 2003.43,1446.14 2007.39,1446.37 2011.34,1446.59 
  2015.3,1446.79 2019.25,1446.99 2023.21,1447.18 2027.16,1447.37 2031.12,1447.54 2035.07,1447.71 2039.03,1447.87 2042.98,1448.02 2046.94,1448.17 2050.89,1448.31 
  2054.85,1448.45 2058.8,1448.58 2062.76,1448.7 2066.71,1448.82 2070.67,1448.94 2074.62,1449.05 2078.58,1449.16 2082.53,1449.26 2086.49,1449.36 2090.44,1449.45 
  2094.4,1449.54 2098.35,1449.63 2102.31,1449.72 2106.26,1449.8 2110.22,1449.88 2114.17,1449.95 2118.13,1450.02 2122.08,1450.09 2126.04,1450.16 2129.99,1450.22 
  2133.95,1450.28 2137.9,1450.34 2141.86,1450.4 2145.81,1450.45 2149.77,1450.5 2153.72,1450.55 2157.68,1450.6 2161.63,1450.64 2165.59,1450.69 2169.54,1450.73 
  2173.5,1450.77 2177.45,1450.8 2181.41,1450.84 2185.36,1450.87 2189.32,1450.9 2193.27,1450.93 2197.23,1450.96 2201.18,1450.98 2205.14,1451.01 2209.09,1451.03 
  2213.05,1451.05 2217,1451.07 2220.96,1451.08 2224.91,1451.1 2228.87,1451.11 2232.82,1451.12 2236.78,1451.13 2240.74,1451.14 2244.69,1451.15 2248.65,1451.16 
  2252.6,1451.16 2256.56,1451.16 2260.51,1451.16 
  "/>
<polygon clip-path="url(#clip8100)" points="
1958.43,251.724 2249.26,251.724 2249.26,130.764 1958.43,130.764 
  " fill="#ffffff" fill-rule="evenodd" fill-opacity="1"/>
<polyline clip-path="url(#clip8100)" style="stroke:#000000; stroke-width:4; stroke-opacity:1; fill:none" points="
  1958.43,251.724 2249.26,251.724 2249.26,130.764 1958.43,130.764 1958.43,251.724 
  "/>
<polyline clip-path="url(#clip8100)" style="stroke:#009af9; stroke-width:4; stroke-opacity:1; fill:none" points="
  1982.43,191.244 2126.43,191.244 
  "/>
<g clip-path="url(#clip8100)">
<text style="fill:#000000; fill-opacity:1; font-family:Arial,Helvetica Neue,Helvetica,sans-serif; font-size:48px; text-anchor:start;" transform="rotate(0, 2150.43, 208.744)" x="2150.43" y="208.744">y1</text>
</g>
</svg>
