<?xml version="1.0" encoding="utf-8"?>
<svg xmlns="http://www.w3.org/2000/svg" xmlns:xlink="http://www.w3.org/1999/xlink" width="600" height="400" viewBox="0 0 2400 1600">
<defs>
  <clipPath id="clip1700">
    <rect x="0" y="0" width="2400" height="1600"/>
  </clipPath>
</defs>
<polygon clip-path="url(#clip1700)" points="
0,1600 2400,1600 2400,0 0,0 
  " fill="#ffffff" fill-rule="evenodd" fill-opacity="1"/>
<defs>
  <clipPath id="clip1701">
    <rect x="480" y="0" width="1681" height="1600"/>
  </clipPath>
</defs>
<polygon clip-path="url(#clip1700)" points="
174.775,1503.47 2321.26,1503.47 2321.26,47.2441 174.775,47.2441 
  " fill="#ffffff" fill-rule="evenodd" fill-opacity="1"/>
<defs>
  <clipPath id="clip1702">
    <rect x="174" y="47" width="2147" height="1457"/>
  </clipPath>
</defs>
<polyline clip-path="url(#clip1702)" style="stroke:#000000; stroke-width:2; stroke-opacity:0.1; fill:none" points="
  231.57,1503.47 231.57,47.2441 
  "/>
<polyline clip-path="url(#clip1702)" style="stroke:#000000; stroke-width:2; stroke-opacity:0.1; fill:none" points="
  627.075,1503.47 627.075,47.2441 
  "/>
<polyline clip-path="url(#clip1702)" style="stroke:#000000; stroke-width:2; stroke-opacity:0.1; fill:none" points="
  1022.58,1503.47 1022.58,47.2441 
  "/>
<polyline clip-path="url(#clip1702)" style="stroke:#000000; stroke-width:2; stroke-opacity:0.1; fill:none" points="
  1418.08,1503.47 1418.08,47.2441 
  "/>
<polyline clip-path="url(#clip1702)" style="stroke:#000000; stroke-width:2; stroke-opacity:0.1; fill:none" points="
  1813.59,1503.47 1813.59,47.2441 
  "/>
<polyline clip-path="url(#clip1702)" style="stroke:#000000; stroke-width:2; stroke-opacity:0.1; fill:none" points="
  2209.09,1503.47 2209.09,47.2441 
  "/>
<polyline clip-path="url(#clip1702)" style="stroke:#000000; stroke-width:2; stroke-opacity:0.1; fill:none" points="
  174.775,1462.26 2321.26,1462.26 
  "/>
<polyline clip-path="url(#clip1702)" style="stroke:#000000; stroke-width:2; stroke-opacity:0.1; fill:none" points="
  174.775,1193.42 2321.26,1193.42 
  "/>
<polyline clip-path="url(#clip1702)" style="stroke:#000000; stroke-width:2; stroke-opacity:0.1; fill:none" points="
  174.775,924.577 2321.26,924.577 
  "/>
<polyline clip-path="url(#clip1702)" style="stroke:#000000; stroke-width:2; stroke-opacity:0.1; fill:none" points="
  174.775,655.735 2321.26,655.735 
  "/>
<polyline clip-path="url(#clip1702)" style="stroke:#000000; stroke-width:2; stroke-opacity:0.1; fill:none" points="
  174.775,386.893 2321.26,386.893 
  "/>
<polyline clip-path="url(#clip1702)" style="stroke:#000000; stroke-width:2; stroke-opacity:0.1; fill:none" points="
  174.775,118.051 2321.26,118.051 
  "/>
<polyline clip-path="url(#clip1700)" style="stroke:#000000; stroke-width:4; stroke-opacity:1; fill:none" points="
  174.775,1503.47 2321.26,1503.47 
  "/>
<polyline clip-path="url(#clip1700)" style="stroke:#000000; stroke-width:4; stroke-opacity:1; fill:none" points="
  174.775,1503.47 174.775,47.2441 
  "/>
<polyline clip-path="url(#clip1700)" style="stroke:#000000; stroke-width:4; stroke-opacity:1; fill:none" points="
  231.57,1503.47 231.57,1481.63 
  "/>
<polyline clip-path="url(#clip1700)" style="stroke:#000000; stroke-width:4; stroke-opacity:1; fill:none" points="
  627.075,1503.47 627.075,1481.63 
  "/>
<polyline clip-path="url(#clip1700)" style="stroke:#000000; stroke-width:4; stroke-opacity:1; fill:none" points="
  1022.58,1503.47 1022.58,1481.63 
  "/>
<polyline clip-path="url(#clip1700)" style="stroke:#000000; stroke-width:4; stroke-opacity:1; fill:none" points="
  1418.08,1503.47 1418.08,1481.63 
  "/>
<polyline clip-path="url(#clip1700)" style="stroke:#000000; stroke-width:4; stroke-opacity:1; fill:none" points="
  1813.59,1503.47 1813.59,1481.63 
  "/>
<polyline clip-path="url(#clip1700)" style="stroke:#000000; stroke-width:4; stroke-opacity:1; fill:none" points="
  2209.09,1503.47 2209.09,1481.63 
  "/>
<polyline clip-path="url(#clip1700)" style="stroke:#000000; stroke-width:4; stroke-opacity:1; fill:none" points="
  174.775,1462.26 206.972,1462.26 
  "/>
<polyline clip-path="url(#clip1700)" style="stroke:#000000; stroke-width:4; stroke-opacity:1; fill:none" points="
  174.775,1193.42 206.972,1193.42 
  "/>
<polyline clip-path="url(#clip1700)" style="stroke:#000000; stroke-width:4; stroke-opacity:1; fill:none" points="
  174.775,924.577 206.972,924.577 
  "/>
<polyline clip-path="url(#clip1700)" style="stroke:#000000; stroke-width:4; stroke-opacity:1; fill:none" points="
  174.775,655.735 206.972,655.735 
  "/>
<polyline clip-path="url(#clip1700)" style="stroke:#000000; stroke-width:4; stroke-opacity:1; fill:none" points="
  174.775,386.893 206.972,386.893 
  "/>
<polyline clip-path="url(#clip1700)" style="stroke:#000000; stroke-width:4; stroke-opacity:1; fill:none" points="
  174.775,118.051 206.972,118.051 
  "/>
<g clip-path="url(#clip1700)">
<text style="fill:#000000; fill-opacity:1; font-family:Arial,Helvetica Neue,Helvetica,sans-serif; font-size:48px; text-anchor:middle;" transform="rotate(0, 231.57, 1557.47)" x="231.57" y="1557.47">0</text>
</g>
<g clip-path="url(#clip1700)">
<text style="fill:#000000; fill-opacity:1; font-family:Arial,Helvetica Neue,Helvetica,sans-serif; font-size:48px; text-anchor:middle;" transform="rotate(0, 627.075, 1557.47)" x="627.075" y="1557.47">100</text>
</g>
<g clip-path="url(#clip1700)">
<text style="fill:#000000; fill-opacity:1; font-family:Arial,Helvetica Neue,Helvetica,sans-serif; font-size:48px; text-anchor:middle;" transform="rotate(0, 1022.58, 1557.47)" x="1022.58" y="1557.47">200</text>
</g>
<g clip-path="url(#clip1700)">
<text style="fill:#000000; fill-opacity:1; font-family:Arial,Helvetica Neue,Helvetica,sans-serif; font-size:48px; text-anchor:middle;" transform="rotate(0, 1418.08, 1557.47)" x="1418.08" y="1557.47">300</text>
</g>
<g clip-path="url(#clip1700)">
<text style="fill:#000000; fill-opacity:1; font-family:Arial,Helvetica Neue,Helvetica,sans-serif; font-size:48px; text-anchor:middle;" transform="rotate(0, 1813.59, 1557.47)" x="1813.59" y="1557.47">400</text>
</g>
<g clip-path="url(#clip1700)">
<text style="fill:#000000; fill-opacity:1; font-family:Arial,Helvetica Neue,Helvetica,sans-serif; font-size:48px; text-anchor:middle;" transform="rotate(0, 2209.09, 1557.47)" x="2209.09" y="1557.47">500</text>
</g>
<g clip-path="url(#clip1700)">
<text style="fill:#000000; fill-opacity:1; font-family:Arial,Helvetica Neue,Helvetica,sans-serif; font-size:48px; text-anchor:end;" transform="rotate(0, 150.775, 1479.76)" x="150.775" y="1479.76">0</text>
</g>
<g clip-path="url(#clip1700)">
<text style="fill:#000000; fill-opacity:1; font-family:Arial,Helvetica Neue,Helvetica,sans-serif; font-size:48px; text-anchor:end;" transform="rotate(0, 150.775, 1210.92)" x="150.775" y="1210.92">100</text>
</g>
<g clip-path="url(#clip1700)">
<text style="fill:#000000; fill-opacity:1; font-family:Arial,Helvetica Neue,Helvetica,sans-serif; font-size:48px; text-anchor:end;" transform="rotate(0, 150.775, 942.077)" x="150.775" y="942.077">200</text>
</g>
<g clip-path="url(#clip1700)">
<text style="fill:#000000; fill-opacity:1; font-family:Arial,Helvetica Neue,Helvetica,sans-serif; font-size:48px; text-anchor:end;" transform="rotate(0, 150.775, 673.235)" x="150.775" y="673.235">300</text>
</g>
<g clip-path="url(#clip1700)">
<text style="fill:#000000; fill-opacity:1; font-family:Arial,Helvetica Neue,Helvetica,sans-serif; font-size:48px; text-anchor:end;" transform="rotate(0, 150.775, 404.393)" x="150.775" y="404.393">400</text>
</g>
<g clip-path="url(#clip1700)">
<text style="fill:#000000; fill-opacity:1; font-family:Arial,Helvetica Neue,Helvetica,sans-serif; font-size:48px; text-anchor:end;" transform="rotate(0, 150.775, 135.551)" x="150.775" y="135.551">500</text>
</g>
<polyline clip-path="url(#clip1702)" style="stroke:#009af9; stroke-width:4; stroke-opacity:1; fill:none" points="
  235.525,1462.26 239.48,88.4582 243.435,1462.26 247.39,1462.26 251.345,1462.26 255.3,1462.26 259.255,1462.26 263.21,1462.26 267.165,1462.26 271.12,1462.26 
  275.075,1462.26 279.03,1462.26 282.985,1462.26 286.94,1462.26 290.895,1462.26 294.851,1462.26 298.806,1462.26 302.761,1462.26 306.716,1462.26 310.671,1462.26 
  314.626,1462.26 318.581,1462.26 322.536,1462.26 326.491,1462.26 330.446,1462.26 334.401,1462.26 338.356,1462.26 342.311,1462.26 346.266,1462.26 350.221,1462.26 
  354.176,1462.26 358.131,1462.26 362.086,1462.26 366.041,1462.26 369.996,1462.26 373.952,1462.26 377.907,1462.26 381.862,1462.26 385.817,1462.26 389.772,1462.26 
  393.727,1462.26 397.682,1462.26 401.637,1462.26 405.592,1462.26 409.547,1462.26 413.502,1462.26 417.457,1462.26 421.412,1462.26 425.367,1462.26 429.322,1462.26 
  433.277,1462.26 437.232,1462.26 441.187,1462.26 445.142,1462.26 449.097,1462.26 453.053,1462.26 457.008,1462.26 460.963,1462.26 464.918,1462.26 468.873,1462.26 
  472.828,1462.26 476.783,1462.26 480.738,1462.26 484.693,1462.26 488.648,1462.26 492.603,1462.26 496.558,1462.26 500.513,1462.26 504.468,1462.26 508.423,1462.26 
  512.378,1462.26 516.333,1462.26 520.288,1462.26 524.243,1462.26 528.198,1462.26 532.154,1462.26 536.109,1462.26 540.064,1462.26 544.019,1462.26 547.974,1462.26 
  551.929,1462.26 555.884,1462.26 559.839,1462.26 563.794,1462.26 567.749,1462.26 571.704,1462.26 575.659,1462.26 579.614,1462.26 583.569,1462.26 587.524,1462.26 
  591.479,1462.26 595.434,1462.26 599.389,1462.26 603.344,1462.26 607.299,1462.26 611.255,1462.26 615.21,1462.26 619.165,1462.26 623.12,1462.26 627.075,1462.26 
  631.03,1462.26 634.985,1462.26 638.94,1462.26 642.895,1462.26 646.85,1462.26 650.805,1462.26 654.76,1462.26 658.715,1462.26 662.67,1462.26 666.625,1462.26 
  670.58,1462.26 674.535,1462.26 678.49,1462.26 682.445,1462.26 686.4,1462.26 690.356,1462.26 694.311,1462.26 698.266,1462.26 702.221,1462.26 706.176,1462.26 
  710.131,1462.26 714.086,1462.26 718.041,1462.26 721.996,1462.26 725.951,1462.26 729.906,1462.26 733.861,1462.26 737.816,1462.26 741.771,1462.26 745.726,1462.26 
  749.681,1462.26 753.636,1462.26 757.591,1462.26 761.546,1462.26 765.501,1462.26 769.456,1462.26 773.412,1462.26 777.367,1462.26 781.322,1462.26 785.277,1462.26 
  789.232,1462.26 793.187,1462.26 797.142,1462.26 801.097,1462.26 805.052,1462.26 809.007,1462.26 812.962,1462.26 816.917,1462.26 820.872,1462.26 824.827,1462.26 
  828.782,1462.26 832.737,1462.26 836.692,1462.26 840.647,1462.26 844.602,1462.26 848.557,1462.26 852.513,1462.26 856.468,1462.26 860.423,1462.26 864.378,1462.26 
  868.333,1462.26 872.288,1462.26 876.243,1462.26 880.198,1462.26 884.153,1462.26 888.108,1462.26 892.063,1462.26 896.018,1462.26 899.973,1462.26 903.928,1462.26 
  907.883,1462.26 911.838,1462.26 915.793,1462.26 919.748,1462.26 923.703,1462.26 927.658,1462.26 931.614,1462.26 935.569,1462.26 939.524,1462.26 943.479,1462.26 
  947.434,1462.26 951.389,1462.26 955.344,1462.26 959.299,1462.26 963.254,1462.26 967.209,1462.26 971.164,1462.26 975.119,1462.26 979.074,1462.26 983.029,1462.26 
  986.984,1462.26 990.939,1462.26 994.894,1462.26 998.849,1462.26 1002.8,1462.26 1006.76,1462.26 1010.71,1462.26 1014.67,1462.26 1018.62,1462.26 1022.58,1462.26 
  1026.53,1462.26 1030.49,1462.26 1034.44,1462.26 1038.4,1462.26 1042.35,1462.26 1046.31,1462.26 1050.27,1462.26 1054.22,1462.26 1058.18,1462.26 1062.13,1462.26 
  1066.09,1462.26 1070.04,1462.26 1074,1462.26 1077.95,1462.26 1081.91,1462.26 1085.86,1462.26 1089.82,1462.26 1093.77,1462.26 1097.73,1462.26 1101.68,1462.26 
  1105.64,1462.26 1109.59,1462.26 1113.55,1462.26 1117.5,1462.26 1121.46,1462.26 1125.41,1462.26 1129.37,1462.26 1133.32,1462.26 1137.28,1462.26 1141.23,1462.26 
  1145.19,1462.26 1149.14,1462.26 1153.1,1462.26 1157.05,1462.26 1161.01,1462.26 1164.96,1462.26 1168.92,1462.26 1172.87,1462.26 1176.83,1462.26 1180.78,1462.26 
  1184.74,1462.26 1188.69,1462.26 1192.65,1462.26 1196.6,1462.26 1200.56,1462.26 1204.51,1462.26 1208.47,1462.26 1212.42,1462.26 1216.38,1462.26 1220.33,1462.26 
  1224.29,1462.26 1228.24,1462.26 1232.2,1462.26 1236.15,1462.26 1240.11,1462.26 1244.06,1462.26 1248.02,1462.26 1251.97,1462.26 1255.93,1462.26 1259.88,1462.26 
  1263.84,1462.26 1267.79,1462.26 1271.75,1462.26 1275.7,1462.26 1279.66,1462.26 1283.61,1462.26 1287.57,1462.26 1291.52,1462.26 1295.48,1462.26 1299.43,1462.26 
  1303.39,1462.26 1307.34,1462.26 1311.3,1462.26 1315.25,1462.26 1319.21,1462.26 1323.16,1462.26 1327.12,1462.26 1331.07,1462.26 1335.03,1462.26 1338.98,1462.26 
  1342.94,1462.26 1346.89,1462.26 1350.85,1462.26 1354.8,1462.26 1358.76,1462.26 1362.71,1462.26 1366.67,1462.26 1370.62,1462.26 1374.58,1462.26 1378.53,1462.26 
  1382.49,1462.26 1386.44,1462.26 1390.4,1462.26 1394.35,1462.26 1398.31,1462.26 1402.26,1462.26 1406.22,1462.26 1410.17,1462.26 1414.13,1462.26 1418.08,1462.26 
  1422.04,1462.26 1425.99,1462.26 1429.95,1462.26 1433.9,1462.26 1437.86,1462.26 1441.81,1462.26 1445.77,1462.26 1449.73,1462.26 1453.68,1462.26 1457.64,1462.26 
  1461.59,1462.26 1465.55,1462.26 1469.5,1462.26 1473.46,1462.26 1477.41,1462.26 1481.37,1462.26 1485.32,1462.26 1489.28,1462.26 1493.23,1462.26 1497.19,1462.26 
  1501.14,1462.26 1505.1,1462.26 1509.05,1462.26 1513.01,1462.26 1516.96,1462.26 1520.92,1462.26 1524.87,1462.26 1528.83,1462.26 1532.78,1462.26 1536.74,1462.26 
  1540.69,1462.26 1544.65,1462.26 1548.6,1462.26 1552.56,1462.26 1556.51,1462.26 1560.47,1462.26 1564.42,1462.26 1568.38,1462.26 1572.33,1462.26 1576.29,1462.26 
  1580.24,1462.26 1584.2,1462.26 1588.15,1462.26 1592.11,1462.26 1596.06,1462.26 1600.02,1462.26 1603.97,1462.26 1607.93,1462.26 1611.88,1462.26 1615.84,1462.26 
  1619.79,1462.26 1623.75,1462.26 1627.7,1462.26 1631.66,1462.26 1635.61,1462.26 1639.57,1462.26 1643.52,1462.26 1647.48,1462.26 1651.43,1462.26 1655.39,1462.26 
  1659.34,1462.26 1663.3,1462.26 1667.25,1462.26 1671.21,1462.26 1675.16,1462.26 1679.12,1462.26 1683.07,1462.26 1687.03,1462.26 1690.98,1462.26 1694.94,1462.26 
  1698.89,1462.26 1702.85,1462.26 1706.8,1462.26 1710.76,1462.26 1714.71,1462.26 1718.67,1462.26 1722.62,1462.26 1726.58,1462.26 1730.53,1462.26 1734.49,1462.26 
  1738.44,1462.26 1742.4,1462.26 1746.35,1462.26 1750.31,1462.26 1754.26,1462.26 1758.22,1462.26 1762.17,1462.26 1766.13,1462.26 1770.08,1462.26 1774.04,1462.26 
  1777.99,1462.26 1781.95,1462.26 1785.9,1462.26 1789.86,1462.26 1793.81,1462.26 1797.77,1462.26 1801.72,1462.26 1805.68,1462.26 1809.63,1462.26 1813.59,1462.26 
  1817.54,1462.26 1821.5,1462.26 1825.45,1462.26 1829.41,1462.26 1833.36,1462.26 1837.32,1462.26 1841.27,1462.26 1845.23,1462.26 1849.19,1462.26 1853.14,1462.26 
  1857.1,1462.26 1861.05,1462.26 1865.01,1462.26 1868.96,1462.26 1872.92,1462.26 1876.87,1462.26 1880.83,1462.26 1884.78,1462.26 1888.74,1462.26 1892.69,1462.26 
  1896.65,1462.26 1900.6,1462.26 1904.56,1462.26 1908.51,1462.26 1912.47,1462.26 1916.42,1462.26 1920.38,1462.26 1924.33,1462.26 1928.29,1462.26 1932.24,1462.26 
  1936.2,1462.26 1940.15,1462.26 1944.11,1462.26 1948.06,1462.26 1952.02,1462.26 1955.97,1462.26 1959.93,1462.26 1963.88,1462.26 1967.84,1462.26 1971.79,1462.26 
  1975.75,1462.26 1979.7,1462.26 1983.66,1462.26 1987.61,1462.26 1991.57,1462.26 1995.52,1462.26 1999.48,1462.26 2003.43,1462.26 2007.39,1462.26 2011.34,1462.26 
  2015.3,1462.26 2019.25,1462.26 2023.21,1462.26 2027.16,1462.26 2031.12,1462.26 2035.07,1462.26 2039.03,1462.26 2042.98,1462.26 2046.94,1462.26 2050.89,1462.26 
  2054.85,1462.26 2058.8,1462.26 2062.76,1462.26 2066.71,1462.26 2070.67,1462.26 2074.62,1462.26 2078.58,1462.26 2082.53,1462.26 2086.49,1462.26 2090.44,1462.26 
  2094.4,1462.26 2098.35,1462.26 2102.31,1462.26 2106.26,1462.26 2110.22,1462.26 2114.17,1462.26 2118.13,1462.26 2122.08,1462.26 2126.04,1462.26 2129.99,1462.26 
  2133.95,1462.26 2137.9,1462.26 2141.86,1462.26 2145.81,1462.26 2149.77,1462.26 2153.72,1462.26 2157.68,1462.26 2161.63,1462.26 2165.59,1462.26 2169.54,1462.26 
  2173.5,1462.26 2177.45,1462.26 2181.41,1462.26 2185.36,1462.26 2189.32,1462.26 2193.27,1462.26 2197.23,1462.26 2201.18,1462.26 2205.14,1462.26 2209.09,1462.26 
  2213.05,1462.26 2217,1462.26 2220.96,1462.26 2224.91,1462.26 2228.87,1462.26 2232.82,1462.26 2236.78,1462.26 2240.74,1462.26 2244.69,1462.26 2248.65,1462.26 
  2252.6,1462.26 2256.56,1462.26 2260.51,1462.26 
  "/>
<polygon clip-path="url(#clip1700)" points="
1958.43,251.724 2249.26,251.724 2249.26,130.764 1958.43,130.764 
  " fill="#ffffff" fill-rule="evenodd" fill-opacity="1"/>
<polyline clip-path="url(#clip1700)" style="stroke:#000000; stroke-width:4; stroke-opacity:1; fill:none" points="
  1958.43,251.724 2249.26,251.724 2249.26,130.764 1958.43,130.764 1958.43,251.724 
  "/>
<polyline clip-path="url(#clip1700)" style="stroke:#009af9; stroke-width:4; stroke-opacity:1; fill:none" points="
  1982.43,191.244 2126.43,191.244 
  "/>
<g clip-path="url(#clip1700)">
<text style="fill:#000000; fill-opacity:1; font-family:Arial,Helvetica Neue,Helvetica,sans-serif; font-size:48px; text-anchor:start;" transform="rotate(0, 2150.43, 208.744)" x="2150.43" y="208.744">y1</text>
</g>
</svg>
