<?xml version="1.0" encoding="utf-8"?>
<svg xmlns="http://www.w3.org/2000/svg" xmlns:xlink="http://www.w3.org/1999/xlink" width="600" height="400" viewBox="0 0 2400 1600">
<defs>
  <clipPath id="clip1300">
    <rect x="0" y="0" width="2400" height="1600"/>
  </clipPath>
</defs>
<polygon clip-path="url(#clip1300)" points="
0,1600 2400,1600 2400,0 0,0 
  " fill="#ffffff" fill-rule="evenodd" fill-opacity="1"/>
<defs>
  <clipPath id="clip1301">
    <rect x="480" y="0" width="1681" height="1600"/>
  </clipPath>
</defs>
<polygon clip-path="url(#clip1300)" points="
189.504,1503.47 2321.26,1503.47 2321.26,47.2441 189.504,47.2441 
  " fill="#ffffff" fill-rule="evenodd" fill-opacity="1"/>
<defs>
  <clipPath id="clip1302">
    <rect x="189" y="47" width="2133" height="1457"/>
  </clipPath>
</defs>
<polyline clip-path="url(#clip1302)" style="stroke:#000000; stroke-width:2; stroke-opacity:0.1; fill:none" points="
  249.837,1503.47 249.837,47.2441 
  "/>
<polyline clip-path="url(#clip1302)" style="stroke:#000000; stroke-width:2; stroke-opacity:0.1; fill:none" points="
  752.609,1503.47 752.609,47.2441 
  "/>
<polyline clip-path="url(#clip1302)" style="stroke:#000000; stroke-width:2; stroke-opacity:0.1; fill:none" points="
  1255.38,1503.47 1255.38,47.2441 
  "/>
<polyline clip-path="url(#clip1302)" style="stroke:#000000; stroke-width:2; stroke-opacity:0.1; fill:none" points="
  1758.15,1503.47 1758.15,47.2441 
  "/>
<polyline clip-path="url(#clip1302)" style="stroke:#000000; stroke-width:2; stroke-opacity:0.1; fill:none" points="
  2260.93,1503.47 2260.93,47.2441 
  "/>
<polyline clip-path="url(#clip1302)" style="stroke:#000000; stroke-width:2; stroke-opacity:0.1; fill:none" points="
  189.504,1385.99 2321.26,1385.99 
  "/>
<polyline clip-path="url(#clip1302)" style="stroke:#000000; stroke-width:2; stroke-opacity:0.1; fill:none" points="
  189.504,1077.77 2321.26,1077.77 
  "/>
<polyline clip-path="url(#clip1302)" style="stroke:#000000; stroke-width:2; stroke-opacity:0.1; fill:none" points="
  189.504,769.543 2321.26,769.543 
  "/>
<polyline clip-path="url(#clip1302)" style="stroke:#000000; stroke-width:2; stroke-opacity:0.1; fill:none" points="
  189.504,461.32 2321.26,461.32 
  "/>
<polyline clip-path="url(#clip1302)" style="stroke:#000000; stroke-width:2; stroke-opacity:0.1; fill:none" points="
  189.504,153.096 2321.26,153.096 
  "/>
<polyline clip-path="url(#clip1300)" style="stroke:#000000; stroke-width:4; stroke-opacity:1; fill:none" points="
  189.504,1503.47 2321.26,1503.47 
  "/>
<polyline clip-path="url(#clip1300)" style="stroke:#000000; stroke-width:4; stroke-opacity:1; fill:none" points="
  189.504,1503.47 189.504,47.2441 
  "/>
<polyline clip-path="url(#clip1300)" style="stroke:#000000; stroke-width:4; stroke-opacity:1; fill:none" points="
  249.837,1503.47 249.837,1481.63 
  "/>
<polyline clip-path="url(#clip1300)" style="stroke:#000000; stroke-width:4; stroke-opacity:1; fill:none" points="
  752.609,1503.47 752.609,1481.63 
  "/>
<polyline clip-path="url(#clip1300)" style="stroke:#000000; stroke-width:4; stroke-opacity:1; fill:none" points="
  1255.38,1503.47 1255.38,1481.63 
  "/>
<polyline clip-path="url(#clip1300)" style="stroke:#000000; stroke-width:4; stroke-opacity:1; fill:none" points="
  1758.15,1503.47 1758.15,1481.63 
  "/>
<polyline clip-path="url(#clip1300)" style="stroke:#000000; stroke-width:4; stroke-opacity:1; fill:none" points="
  2260.93,1503.47 2260.93,1481.63 
  "/>
<polyline clip-path="url(#clip1300)" style="stroke:#000000; stroke-width:4; stroke-opacity:1; fill:none" points="
  189.504,1385.99 221.48,1385.99 
  "/>
<polyline clip-path="url(#clip1300)" style="stroke:#000000; stroke-width:4; stroke-opacity:1; fill:none" points="
  189.504,1077.77 221.48,1077.77 
  "/>
<polyline clip-path="url(#clip1300)" style="stroke:#000000; stroke-width:4; stroke-opacity:1; fill:none" points="
  189.504,769.543 221.48,769.543 
  "/>
<polyline clip-path="url(#clip1300)" style="stroke:#000000; stroke-width:4; stroke-opacity:1; fill:none" points="
  189.504,461.32 221.48,461.32 
  "/>
<polyline clip-path="url(#clip1300)" style="stroke:#000000; stroke-width:4; stroke-opacity:1; fill:none" points="
  189.504,153.096 221.48,153.096 
  "/>
<g clip-path="url(#clip1300)">
<text style="fill:#000000; fill-opacity:1; font-family:Arial,Helvetica Neue,Helvetica,sans-serif; font-size:48px; text-anchor:middle;" transform="rotate(0, 249.837, 1557.47)" x="249.837" y="1557.47">0.00</text>
</g>
<g clip-path="url(#clip1300)">
<text style="fill:#000000; fill-opacity:1; font-family:Arial,Helvetica Neue,Helvetica,sans-serif; font-size:48px; text-anchor:middle;" transform="rotate(0, 752.609, 1557.47)" x="752.609" y="1557.47">0.25</text>
</g>
<g clip-path="url(#clip1300)">
<text style="fill:#000000; fill-opacity:1; font-family:Arial,Helvetica Neue,Helvetica,sans-serif; font-size:48px; text-anchor:middle;" transform="rotate(0, 1255.38, 1557.47)" x="1255.38" y="1557.47">0.50</text>
</g>
<g clip-path="url(#clip1300)">
<text style="fill:#000000; fill-opacity:1; font-family:Arial,Helvetica Neue,Helvetica,sans-serif; font-size:48px; text-anchor:middle;" transform="rotate(0, 1758.15, 1557.47)" x="1758.15" y="1557.47">0.75</text>
</g>
<g clip-path="url(#clip1300)">
<text style="fill:#000000; fill-opacity:1; font-family:Arial,Helvetica Neue,Helvetica,sans-serif; font-size:48px; text-anchor:middle;" transform="rotate(0, 2260.93, 1557.47)" x="2260.93" y="1557.47">1.00</text>
</g>
<g clip-path="url(#clip1300)">
<text style="fill:#000000; fill-opacity:1; font-family:Arial,Helvetica Neue,Helvetica,sans-serif; font-size:48px; text-anchor:end;" transform="rotate(0, 165.504, 1403.49)" x="165.504" y="1403.49">-1.0</text>
</g>
<g clip-path="url(#clip1300)">
<text style="fill:#000000; fill-opacity:1; font-family:Arial,Helvetica Neue,Helvetica,sans-serif; font-size:48px; text-anchor:end;" transform="rotate(0, 165.504, 1095.27)" x="165.504" y="1095.27">-0.5</text>
</g>
<g clip-path="url(#clip1300)">
<text style="fill:#000000; fill-opacity:1; font-family:Arial,Helvetica Neue,Helvetica,sans-serif; font-size:48px; text-anchor:end;" transform="rotate(0, 165.504, 787.043)" x="165.504" y="787.043">0.0</text>
</g>
<g clip-path="url(#clip1300)">
<text style="fill:#000000; fill-opacity:1; font-family:Arial,Helvetica Neue,Helvetica,sans-serif; font-size:48px; text-anchor:end;" transform="rotate(0, 165.504, 478.82)" x="165.504" y="478.82">0.5</text>
</g>
<g clip-path="url(#clip1300)">
<text style="fill:#000000; fill-opacity:1; font-family:Arial,Helvetica Neue,Helvetica,sans-serif; font-size:48px; text-anchor:end;" transform="rotate(0, 165.504, 170.596)" x="165.504" y="170.596">1.0</text>
</g>
<polyline clip-path="url(#clip1302)" style="stroke:#009af9; stroke-width:4; stroke-opacity:1; fill:none" points="
  249.837,139.162 251.803,152.27 253.769,205.626 255.734,166.893 257.7,107.524 259.666,185.959 261.632,130.706 263.598,171.14 265.564,137.716 267.53,149.737 
  269.496,193.322 271.461,151.742 273.427,166.21 275.393,218.955 277.359,207.261 279.325,164.242 281.291,234.861 283.257,183.114 285.223,143.25 287.188,207.011 
  289.154,187.527 291.12,172.378 293.086,166.49 295.052,179.424 297.018,133.281 298.984,101.473 300.95,146.602 302.915,158.227 304.881,212.278 306.847,113.641 
  308.813,154.263 310.779,123.163 312.745,147.104 314.711,215.473 316.677,177.889 318.642,132.25 320.608,145.437 322.574,207.268 324.54,148.136 326.506,208.04 
  328.472,100.128 330.438,186.498 332.404,137.088 334.369,186.389 336.335,167.398 338.301,203.678 340.267,189.86 342.233,187.504 344.199,211.526 346.165,228.761 
  348.131,119.585 350.096,219.071 352.062,220.606 354.028,141.112 355.994,161.574 357.96,164.339 359.926,242.532 361.892,204.042 363.858,170.157 365.823,205.364 
  367.789,172.088 369.755,149.324 371.721,229.831 373.687,235.894 375.653,166.187 377.619,207.632 379.585,190.443 381.55,167.362 383.516,183.67 385.482,173.563 
  387.448,234.597 389.414,179.64 391.38,194.876 393.346,208.226 395.312,177.814 397.277,148.16 399.243,193.46 401.209,259.469 403.175,244.196 405.141,239.029 
  407.107,198.457 409.073,303.33 411.039,205.007 413.004,226.192 414.97,187.142 416.936,220.926 418.902,175.849 420.868,209.476 422.834,214.222 424.8,236.644 
  426.766,227.583 428.731,232.331 430.697,289.859 432.663,292.515 434.629,243.595 436.595,216.763 438.561,253.9 440.527,259.195 442.493,256.374 444.458,300.969 
  446.424,292.309 448.39,260.767 450.356,264.969 452.322,304.684 454.288,205.81 456.254,238.246 458.22,315.94 460.185,338.992 462.151,284.156 464.117,306.536 
  466.083,313.719 468.049,371.246 470.015,319.76 471.981,261.06 473.947,279.857 475.912,285.565 477.878,305.849 479.844,243.243 481.81,330.129 483.776,311.957 
  485.742,312.467 487.708,324.967 489.674,270.205 491.639,338.146 493.605,311.502 495.571,304.298 497.537,321.974 499.503,298.771 501.469,410.777 503.435,344.089 
  505.401,336.122 507.366,340.091 509.332,367.365 511.298,374.522 513.264,341.816 515.23,400.341 517.196,389.358 519.162,352.279 521.128,335.426 523.093,378.528 
  525.059,336.114 527.025,406.787 528.991,301.066 530.957,381.433 532.923,398.277 534.889,414.643 536.855,319.652 538.82,401.671 540.786,373.585 542.752,366.389 
  544.718,450.539 546.684,387.791 548.65,396.225 550.616,342.877 552.582,361.317 554.547,400.291 556.513,422.213 558.479,458.724 560.445,363.073 562.411,378.646 
  564.377,418.736 566.343,454.953 568.309,449.981 570.274,404.847 572.24,454.143 574.206,449.366 576.172,501.271 578.138,495.193 580.104,408.958 582.07,501.242 
  584.036,460.609 586.001,395.13 587.967,448.234 589.933,440.123 591.899,458.631 593.865,427.706 595.831,511.335 597.797,424.047 599.763,544.303 601.728,471.17 
  603.694,493.83 605.66,481.945 607.626,501.932 609.592,518.164 611.558,535.625 613.524,542.126 615.49,561.978 617.455,560.979 619.421,488.693 621.387,518.349 
  623.353,523.582 625.319,469.643 627.285,545.339 629.251,579.259 631.217,559.257 633.182,553.432 635.148,471.172 637.114,558.949 639.08,567.861 641.046,493.685 
  643.012,596.578 644.978,558.171 646.944,528.864 648.909,557.285 650.875,565.79 652.841,585.007 654.807,573.801 656.773,571.436 658.739,588.29 660.705,601.557 
  662.671,601.879 664.636,660.044 666.602,583.479 668.568,556.317 670.534,599.852 672.5,568.187 674.466,615.411 676.432,613.737 678.398,711.012 680.363,641.734 
  682.329,636.634 684.295,681.076 686.261,697.876 688.227,714.738 690.193,684.321 692.159,631.132 694.125,593.786 696.09,707.381 698.056,632.25 700.022,633.536 
  701.988,705.68 703.954,746.53 705.92,684.244 707.886,728.253 709.852,687.876 711.817,680.274 713.783,679.671 715.749,752.706 717.715,730.936 719.681,698.024 
  721.647,776.197 723.613,655.794 725.579,731.603 727.544,727.148 729.51,748.827 731.476,804.88 733.442,777.209 735.408,756.531 737.374,688.754 739.34,809.906 
  741.306,760.494 743.271,757.082 745.237,710.765 747.203,711.02 749.169,779.685 751.135,728.051 753.101,707.996 755.067,766.924 757.033,777.367 758.999,831.933 
  760.964,791.151 762.93,787.511 764.896,752.03 766.862,830.344 768.828,833.218 770.794,834.107 772.76,830.303 774.726,853.95 776.691,839.09 778.657,776.511 
  780.623,865.831 782.589,851.663 784.555,892.87 786.521,871.25 788.487,890.582 790.453,862.595 792.418,855.486 794.384,814.109 796.35,839.094 798.316,839.634 
  800.282,857.203 802.248,874.678 804.214,842.605 806.18,935.687 808.145,869.137 810.111,862.534 812.077,905.289 814.043,929.437 816.009,942.128 817.975,950.717 
  819.941,939.146 821.907,884.814 823.872,860.454 825.838,859.519 827.804,845.111 829.77,938.409 831.736,928.251 833.702,926.708 835.668,940.514 837.634,888.053 
  839.599,974.999 841.565,996.702 843.531,953.436 845.497,1023.67 847.463,911.031 849.429,1001.11 851.395,968.049 853.361,905.821 855.326,927.977 857.292,889.244 
  859.258,963.563 861.224,960.192 863.19,1017.19 865.156,905.198 867.122,1051.38 869.088,1015.22 871.053,1007.28 873.019,1044.36 874.985,930.905 876.951,979.205 
  878.917,1003.23 880.883,1031.14 882.849,972.796 884.815,1048.56 886.78,1027.1 888.746,957.597 890.712,993.425 892.678,1019.56 894.644,1076.92 896.61,1032.36 
  898.576,1057.76 900.542,969.073 902.507,1031.59 904.473,1031.6 906.439,1061.17 908.405,1081.03 910.371,1081.28 912.337,1033.88 914.303,1077.08 916.269,1017.18 
  918.234,1061.12 920.2,1060.57 922.166,1062.11 924.132,1095.01 926.098,1098.13 928.064,1053.31 930.03,1055.82 931.996,1121.58 933.961,1077.59 935.927,1171.52 
  937.893,1084.83 939.859,1140.44 941.825,1058.02 943.791,1099.09 945.757,1131.25 947.723,1094.45 949.688,1154.12 951.654,1171.75 953.62,1130.69 955.586,1175.55 
  957.552,1116.74 959.518,1205.71 961.484,1118.9 963.45,1163.46 965.415,1107.49 967.381,1118.32 969.347,1206.81 971.313,1177.74 973.279,1144.84 975.245,1112.39 
  977.211,1185.45 979.177,1201.21 981.142,1181.38 983.108,1198.12 985.074,1222.69 987.04,1153.89 989.006,1198.62 990.972,1263.65 992.938,1174.23 994.904,1187.53 
  996.869,1231.57 998.835,1120.5 1000.8,1199.72 1002.77,1246.52 1004.73,1224.68 1006.7,1258.4 1008.66,1193.93 1010.63,1214.7 1012.6,1236.98 1014.56,1190.51 
  1016.53,1230.22 1018.49,1156.82 1020.46,1145.81 1022.43,1229.77 1024.39,1270.09 1026.36,1275.6 1028.32,1212.13 1030.29,1255.1 1032.26,1295.51 1034.22,1300.94 
  1036.19,1249.03 1038.15,1251.13 1040.12,1332.47 1042.08,1254.45 1044.05,1253.25 1046.02,1258.86 1047.98,1236.97 1049.95,1245.79 1051.91,1327.93 1053.88,1221.96 
  1055.85,1281.03 1057.81,1338.5 1059.78,1265.48 1061.74,1247.04 1063.71,1223.78 1065.68,1280.89 1067.64,1350.44 1069.61,1312.22 1071.57,1250.16 1073.54,1245.89 
  1075.5,1287.43 1077.47,1315.52 1079.44,1316.07 1081.4,1247.42 1083.37,1253.3 1085.33,1313.79 1087.3,1258.8 1089.27,1310.63 1091.23,1286.84 1093.2,1325.04 
  1095.16,1267.82 1097.13,1310.03 1099.09,1233.74 1101.06,1320.84 1103.03,1254.52 1104.99,1332.39 1106.96,1320.14 1108.92,1267.96 1110.89,1293.29 1112.86,1321.65 
  1114.82,1307.74 1116.79,1331.11 1118.75,1309.83 1120.72,1288.67 1122.69,1386.21 1124.65,1391.32 1126.62,1266.6 1128.58,1319.49 1130.55,1292.3 1132.51,1363.65 
  1134.48,1321.53 1136.45,1312.81 1138.41,1334.46 1140.38,1348.2 1142.34,1321.96 1144.31,1339.85 1146.28,1349.69 1148.24,1339.48 1150.21,1382.06 1152.17,1435.26 
  1154.14,1378.25 1156.11,1374.66 1158.07,1312.92 1160.04,1317.51 1162,1359.46 1163.97,1339.93 1165.93,1310.49 1167.9,1379.87 1169.87,1297.14 1171.83,1342.34 
  1173.8,1389 1175.76,1332.91 1177.73,1375.38 1179.7,1427.72 1181.66,1372.9 1183.63,1345.4 1185.59,1388.07 1187.56,1409.05 1189.53,1399.38 1191.49,1340.81 
  1193.46,1426.24 1195.42,1349.89 1197.39,1335.71 1199.35,1391.05 1201.32,1364.3 1203.29,1386.92 1205.25,1427.77 1207.22,1370.05 1209.18,1390.32 1211.15,1320.92 
  1213.12,1438.11 1215.08,1390.11 1217.05,1391.93 1219.01,1363.74 1220.98,1361.56 1222.95,1433.5 1224.91,1376.02 1226.88,1322.99 1228.84,1337.23 1230.81,1384.83 
  1232.77,1431.15 1234.74,1315.72 1236.71,1364.72 1238.67,1398.06 1240.64,1351.29 1242.6,1462.26 1244.57,1353.98 1246.54,1378.08 1248.5,1378.72 1250.47,1376.58 
  1252.43,1328.02 1254.4,1372.92 1256.36,1337.72 1258.33,1456.98 1260.3,1404.43 1262.26,1404.83 1264.23,1392.43 1266.19,1383.66 1268.16,1379.17 1270.13,1424.85 
  1272.09,1388.89 1274.06,1419.35 1276.02,1362.89 1277.99,1412.12 1279.96,1367.92 1281.92,1381.23 1283.89,1410.95 1285.85,1335.73 1287.82,1453.02 1289.78,1332.52 
  1291.75,1422.49 1293.72,1417.91 1295.68,1347.43 1297.65,1388.42 1299.61,1322.86 1301.58,1338.63 1303.55,1366.88 1305.51,1342.46 1307.48,1387.76 1309.44,1342.39 
  1311.41,1377.14 1313.38,1350.08 1315.34,1439.25 1317.31,1426.92 1319.27,1409.35 1321.24,1386.34 1323.2,1384.4 1325.17,1388.22 1327.14,1303.72 1329.1,1359.52 
  1331.07,1396.73 1333.03,1395.49 1335,1377.31 1336.97,1353.46 1338.93,1424.83 1340.9,1298.02 1342.86,1403.46 1344.83,1304.75 1346.8,1330.46 1348.76,1286.12 
  1350.73,1369.23 1352.69,1350.62 1354.66,1295.63 1356.62,1331.68 1358.59,1355 1360.56,1335.12 1362.52,1343.03 1364.49,1291.95 1366.45,1341.38 1368.42,1333.14 
  1370.39,1354.73 1372.35,1389.3 1374.32,1315.52 1376.28,1353.24 1378.25,1314.58 1380.22,1349.08 1382.18,1364.97 1384.15,1257.34 1386.11,1344.31 1388.08,1310.11 
  1390.04,1366.78 1392.01,1293.42 1393.98,1336.1 1395.94,1320.16 1397.91,1260.05 1399.87,1331.89 1401.84,1349.37 1403.81,1319.85 1405.77,1317.56 1407.74,1234.59 
  1409.7,1356.94 1411.67,1292.65 1413.63,1280.11 1415.6,1261.99 1417.57,1363.61 1419.53,1294.7 1421.5,1370.47 1423.46,1354.15 1425.43,1291.16 1427.4,1287.99 
  1429.36,1317.38 1431.33,1244.78 1433.29,1261.01 1435.26,1278.46 1437.23,1290.29 1439.19,1234.97 1441.16,1295.63 1443.12,1218.16 1445.09,1321.73 1447.05,1250.46 
  1449.02,1259.18 1450.99,1293.35 1452.95,1191.5 1454.92,1333.93 1456.88,1322.04 1458.85,1252.58 1460.82,1265.64 1462.78,1194.29 1464.75,1260.38 1466.71,1252.95 
  1468.68,1296.24 1470.65,1196.27 1472.61,1251.57 1474.58,1302.06 1476.54,1251.71 1478.51,1302.26 1480.47,1242.34 1482.44,1250.74 1484.41,1229.03 1486.37,1275.86 
  1488.34,1275.12 1490.3,1301.73 1492.27,1263.63 1494.24,1237.45 1496.2,1226.01 1498.17,1148.74 1500.13,1250.25 1502.1,1169.81 1504.07,1189.74 1506.03,1183.76 
  1508,1204.02 1509.96,1158 1511.93,1234.44 1513.89,1228.46 1515.86,1166.17 1517.83,1193.82 1519.79,1209.26 1521.76,1248.59 1523.72,1212.94 1525.69,1212.37 
  1527.66,1251.12 1529.62,1210.82 1531.59,1144.22 1533.55,1149.09 1535.52,1230.72 1537.49,1125.85 1539.45,1110.36 1541.42,1080.52 1543.38,1198.1 1545.35,1118.86 
  1547.31,1092.03 1549.28,1117.54 1551.25,1081.77 1553.21,1094.05 1555.18,1191.59 1557.14,1159.78 1559.11,1157.06 1561.08,1115.62 1563.04,1143.96 1565.01,1142.2 
  1566.97,1138.58 1568.94,1098.62 1570.9,1119.55 1572.87,1149.96 1574.84,1103.42 1576.8,1060.67 1578.77,1066.63 1580.73,1089.38 1582.7,1124.72 1584.67,1138.31 
  1586.63,1105.74 1588.6,1085.32 1590.56,1022.04 1592.53,1082.74 1594.5,1088.48 1596.46,1124.26 1598.43,1064.04 1600.39,1080.27 1602.36,1043.6 1604.32,1059.58 
  1606.29,1027.75 1608.26,993.037 1610.22,1053.37 1612.19,1049.64 1614.15,1025.45 1616.12,989.446 1618.09,1029.4 1620.05,992.071 1622.02,1011.2 1623.98,1072.88 
  1625.95,990.268 1627.92,1000.73 1629.88,953.126 1631.85,996.655 1633.81,1014.17 1635.78,1001.61 1637.74,983.313 1639.71,990.85 1641.68,978.76 1643.64,1026.25 
  1645.61,1023.77 1647.57,938.452 1649.54,920.186 1651.51,982.935 1653.47,1023.03 1655.44,951.461 1657.4,960.637 1659.37,998.944 1661.34,1000.89 1663.3,1015.61 
  1665.27,938.17 1667.23,871.615 1669.2,965.063 1671.16,936.213 1673.13,903.594 1675.1,937.437 1677.06,884.944 1679.03,926.586 1680.99,878.771 1682.96,964.518 
  1684.93,975.042 1686.89,968.837 1688.86,919.556 1690.82,934.019 1692.79,888.362 1694.76,831.499 1696.72,861.859 1698.69,839.584 1700.65,884.611 1702.62,876.379 
  1704.58,840.981 1706.55,922.936 1708.52,902.575 1710.48,898.145 1712.45,806.817 1714.41,851.485 1716.38,901.241 1718.35,785.745 1720.31,888.328 1722.28,816.269 
  1724.24,818.858 1726.21,882.14 1728.17,834.603 1730.14,823.379 1732.11,760.223 1734.07,847.846 1736.04,882.729 1738,826.338 1739.97,813.672 1741.94,811.726 
  1743.9,745.309 1745.87,814.536 1747.83,799.482 1749.8,726.433 1751.77,754.491 1753.73,784.19 1755.7,788.102 1757.66,733.395 1759.63,738.803 1761.59,734.431 
  1763.56,792.246 1765.53,786.798 1767.49,717.899 1769.46,824.709 1771.42,751.739 1773.39,743.913 1775.36,727.872 1777.32,767.526 1779.29,774.127 1781.25,729.512 
  1783.22,716.829 1785.19,745.179 1787.15,753.932 1789.12,747.889 1791.08,667.354 1793.05,746.459 1795.01,662.392 1796.98,666.565 1798.95,705.188 1800.91,739.274 
  1802.88,637.332 1804.84,607.485 1806.81,661.088 1808.78,621.752 1810.74,707.029 1812.71,732.502 1814.67,686.834 1816.64,655.261 1818.61,721.236 1820.57,638.583 
  1822.54,627.476 1824.5,637.674 1826.47,624.786 1828.43,669.991 1830.4,646.192 1832.37,652.211 1834.33,669.459 1836.3,613.112 1838.26,617.485 1840.23,592.686 
  1842.2,605.963 1844.16,637.605 1846.13,537.787 1848.09,598.788 1850.06,567.498 1852.03,624.663 1853.99,590.324 1855.96,512.822 1857.92,525.279 1859.89,627.265 
  1861.85,546.174 1863.82,574.179 1865.79,525.919 1867.75,554.269 1869.72,569.75 1871.68,567.271 1873.65,541.265 1875.62,552.027 1877.58,584.925 1879.55,602.385 
  1881.51,546.577 1883.48,511.514 1885.44,505.09 1887.41,510.547 1889.38,507.605 1891.34,561.597 1893.31,513.255 1895.27,522.013 1897.24,519.76 1899.21,459.247 
  1901.17,500.54 1903.14,488.489 1905.1,553.386 1907.07,530.984 1909.04,533.937 1911,527.728 1912.97,423.569 1914.93,440.345 1916.9,433.524 1918.86,522.766 
  1920.83,412.935 1922.8,457.29 1924.76,471.033 1926.73,454.468 1928.69,448.17 1930.66,467.012 1932.63,461.647 1934.59,484.61 1936.56,430.188 1938.52,447.359 
  1940.49,461.395 1942.46,428.587 1944.42,429.415 1946.39,451.654 1948.35,429.673 1950.32,418.332 1952.28,383.847 1954.25,404.042 1956.22,415.329 1958.18,382.072 
  1960.15,444.385 1962.11,428.933 1964.08,420.713 1966.05,351.61 1968.01,356.264 1969.98,406.97 1971.94,419.604 1973.91,379.07 1975.88,406.262 1977.84,381.082 
  1979.81,410.444 1981.77,343.728 1983.74,449.329 1985.7,415.215 1987.67,377.046 1989.64,394.318 1991.6,388.755 1993.57,365.326 1995.53,368.716 1997.5,359.488 
  1999.47,343.911 2001.43,344.8 2003.4,358.714 2005.36,410.975 2007.33,334.193 2009.3,368.059 2011.26,331.812 2013.23,410.428 2015.19,313.207 2017.16,339.036 
  2019.12,304.091 2021.09,263.949 2023.06,261.042 2025.02,372.841 2026.99,367.968 2028.95,370.772 2030.92,296.133 2032.89,272.353 2034.85,247.034 2036.82,253.204 
  2038.78,325.042 2040.75,266.218 2042.71,339.104 2044.68,286.187 2046.65,283.451 2048.61,293.978 2050.58,317.663 2052.54,221.992 2054.51,272.192 2056.48,286.232 
  2058.44,289.185 2060.41,192.449 2062.37,271.926 2064.34,301.528 2066.31,229.912 2068.27,300.165 2070.24,242.124 2072.2,248.569 2074.17,253.734 2076.13,265.214 
  2078.1,234.419 2080.07,294.647 2082.03,297.006 2084,251.97 2085.96,257.42 2087.93,181.647 2089.9,235.133 2091.86,161.423 2093.83,285.564 2095.79,215.775 
  2097.76,281.182 2099.73,187.101 2101.69,243.153 2103.66,224.314 2105.62,253.661 2107.59,231.133 2109.55,218.062 2111.52,266.509 2113.49,219.48 2115.45,212.998 
  2117.42,148.302 2119.38,217.001 2121.35,200.916 2123.32,194.667 2125.28,198.145 2127.25,161.964 2129.21,220.737 2131.18,146.253 2133.15,220.178 2135.11,242.563 
  2137.08,190.15 2139.04,150.453 2141.01,259.297 2142.97,174.238 2144.94,128.087 2146.91,153.254 2148.87,255.425 2150.84,264.907 2152.8,156.818 2154.77,126.372 
  2156.74,224.894 2158.7,165.71 2160.67,180.644 2162.63,158.429 2164.6,191.663 2166.57,196.308 2168.53,149.092 2170.5,224.531 2172.46,135.873 2174.43,176.445 
  2176.39,178.883 2178.36,171.403 2180.33,221.559 2182.29,183.817 2184.26,115.487 2186.22,180.082 2188.19,198.089 2190.16,159.798 2192.12,159.377 2194.09,154.57 
  2196.05,185.696 2198.02,188.022 2199.99,106.137 2201.95,156.772 2203.92,221.479 2205.88,111.373 2207.85,165.284 2209.81,112.379 2211.78,118.509 2213.75,168.491 
  2215.71,209.09 2217.68,160.637 2219.64,133.994 2221.61,88.4582 2223.58,152.463 2225.54,236.219 2227.51,173.135 2229.47,165.834 2231.44,175.065 2233.4,127.206 
  2235.37,107.159 2237.34,159.163 2239.3,113.907 2241.27,188.045 2243.23,101.158 2245.2,138.329 2247.17,126.383 2249.13,181.586 2251.1,124.526 2253.06,129.136 
  2255.03,226.251 2257,143.906 2258.96,148.534 2260.93,223.097 
  "/>
<polygon clip-path="url(#clip1300)" points="
1519.74,251.724 2249.26,251.724 2249.26,130.764 1519.74,130.764 
  " fill="#ffffff" fill-rule="evenodd" fill-opacity="1"/>
<polyline clip-path="url(#clip1300)" style="stroke:#000000; stroke-width:4; stroke-opacity:1; fill:none" points="
  1519.74,251.724 2249.26,251.724 2249.26,130.764 1519.74,130.764 1519.74,251.724 
  "/>
<polyline clip-path="url(#clip1300)" style="stroke:#009af9; stroke-width:4; stroke-opacity:1; fill:none" points="
  1543.74,191.244 1687.74,191.244 
  "/>
<g clip-path="url(#clip1300)">
<text style="fill:#000000; fill-opacity:1; font-family:Arial,Helvetica Neue,Helvetica,sans-serif; font-size:48px; text-anchor:start;" transform="rotate(0, 1711.74, 208.744)" x="1711.74" y="208.744">znieksztalcony cosinus</text>
</g>
</svg>
