<?xml version="1.0" encoding="utf-8"?>
<svg xmlns="http://www.w3.org/2000/svg" xmlns:xlink="http://www.w3.org/1999/xlink" width="600" height="400" viewBox="0 0 2400 1600">
<defs>
  <clipPath id="clip3300">
    <rect x="0" y="0" width="2400" height="1600"/>
  </clipPath>
</defs>
<polygon clip-path="url(#clip3300)" points="
0,1600 2400,1600 2400,0 0,0 
  " fill="#ffffff" fill-rule="evenodd" fill-opacity="1"/>
<defs>
  <clipPath id="clip3301">
    <rect x="480" y="0" width="1681" height="1600"/>
  </clipPath>
</defs>
<polygon clip-path="url(#clip3300)" points="
189.504,1503.47 2321.26,1503.47 2321.26,47.2441 189.504,47.2441 
  " fill="#ffffff" fill-rule="evenodd" fill-opacity="1"/>
<defs>
  <clipPath id="clip3302">
    <rect x="189" y="47" width="2133" height="1457"/>
  </clipPath>
</defs>
<polyline clip-path="url(#clip3302)" style="stroke:#000000; stroke-width:2; stroke-opacity:0.1; fill:none" points="
  249.837,1503.47 249.837,47.2441 
  "/>
<polyline clip-path="url(#clip3302)" style="stroke:#000000; stroke-width:2; stroke-opacity:0.1; fill:none" points="
  752.609,1503.47 752.609,47.2441 
  "/>
<polyline clip-path="url(#clip3302)" style="stroke:#000000; stroke-width:2; stroke-opacity:0.1; fill:none" points="
  1255.38,1503.47 1255.38,47.2441 
  "/>
<polyline clip-path="url(#clip3302)" style="stroke:#000000; stroke-width:2; stroke-opacity:0.1; fill:none" points="
  1758.15,1503.47 1758.15,47.2441 
  "/>
<polyline clip-path="url(#clip3302)" style="stroke:#000000; stroke-width:2; stroke-opacity:0.1; fill:none" points="
  2260.93,1503.47 2260.93,47.2441 
  "/>
<polyline clip-path="url(#clip3302)" style="stroke:#000000; stroke-width:2; stroke-opacity:0.1; fill:none" points="
  189.504,1463.6 2321.26,1463.6 
  "/>
<polyline clip-path="url(#clip3302)" style="stroke:#000000; stroke-width:2; stroke-opacity:0.1; fill:none" points="
  189.504,1119.48 2321.26,1119.48 
  "/>
<polyline clip-path="url(#clip3302)" style="stroke:#000000; stroke-width:2; stroke-opacity:0.1; fill:none" points="
  189.504,775.359 2321.26,775.359 
  "/>
<polyline clip-path="url(#clip3302)" style="stroke:#000000; stroke-width:2; stroke-opacity:0.1; fill:none" points="
  189.504,431.241 2321.26,431.241 
  "/>
<polyline clip-path="url(#clip3302)" style="stroke:#000000; stroke-width:2; stroke-opacity:0.1; fill:none" points="
  189.504,87.1228 2321.26,87.1228 
  "/>
<polyline clip-path="url(#clip3300)" style="stroke:#000000; stroke-width:4; stroke-opacity:1; fill:none" points="
  189.504,1503.47 2321.26,1503.47 
  "/>
<polyline clip-path="url(#clip3300)" style="stroke:#000000; stroke-width:4; stroke-opacity:1; fill:none" points="
  189.504,1503.47 189.504,47.2441 
  "/>
<polyline clip-path="url(#clip3300)" style="stroke:#000000; stroke-width:4; stroke-opacity:1; fill:none" points="
  249.837,1503.47 249.837,1481.63 
  "/>
<polyline clip-path="url(#clip3300)" style="stroke:#000000; stroke-width:4; stroke-opacity:1; fill:none" points="
  752.609,1503.47 752.609,1481.63 
  "/>
<polyline clip-path="url(#clip3300)" style="stroke:#000000; stroke-width:4; stroke-opacity:1; fill:none" points="
  1255.38,1503.47 1255.38,1481.63 
  "/>
<polyline clip-path="url(#clip3300)" style="stroke:#000000; stroke-width:4; stroke-opacity:1; fill:none" points="
  1758.15,1503.47 1758.15,1481.63 
  "/>
<polyline clip-path="url(#clip3300)" style="stroke:#000000; stroke-width:4; stroke-opacity:1; fill:none" points="
  2260.93,1503.47 2260.93,1481.63 
  "/>
<polyline clip-path="url(#clip3300)" style="stroke:#000000; stroke-width:4; stroke-opacity:1; fill:none" points="
  189.504,1463.6 221.48,1463.6 
  "/>
<polyline clip-path="url(#clip3300)" style="stroke:#000000; stroke-width:4; stroke-opacity:1; fill:none" points="
  189.504,1119.48 221.48,1119.48 
  "/>
<polyline clip-path="url(#clip3300)" style="stroke:#000000; stroke-width:4; stroke-opacity:1; fill:none" points="
  189.504,775.359 221.48,775.359 
  "/>
<polyline clip-path="url(#clip3300)" style="stroke:#000000; stroke-width:4; stroke-opacity:1; fill:none" points="
  189.504,431.241 221.48,431.241 
  "/>
<polyline clip-path="url(#clip3300)" style="stroke:#000000; stroke-width:4; stroke-opacity:1; fill:none" points="
  189.504,87.1228 221.48,87.1228 
  "/>
<g clip-path="url(#clip3300)">
<text style="fill:#000000; fill-opacity:1; font-family:Arial,Helvetica Neue,Helvetica,sans-serif; font-size:48px; text-anchor:middle;" transform="rotate(0, 249.837, 1557.47)" x="249.837" y="1557.47">0.00</text>
</g>
<g clip-path="url(#clip3300)">
<text style="fill:#000000; fill-opacity:1; font-family:Arial,Helvetica Neue,Helvetica,sans-serif; font-size:48px; text-anchor:middle;" transform="rotate(0, 752.609, 1557.47)" x="752.609" y="1557.47">0.25</text>
</g>
<g clip-path="url(#clip3300)">
<text style="fill:#000000; fill-opacity:1; font-family:Arial,Helvetica Neue,Helvetica,sans-serif; font-size:48px; text-anchor:middle;" transform="rotate(0, 1255.38, 1557.47)" x="1255.38" y="1557.47">0.50</text>
</g>
<g clip-path="url(#clip3300)">
<text style="fill:#000000; fill-opacity:1; font-family:Arial,Helvetica Neue,Helvetica,sans-serif; font-size:48px; text-anchor:middle;" transform="rotate(0, 1758.15, 1557.47)" x="1758.15" y="1557.47">0.75</text>
</g>
<g clip-path="url(#clip3300)">
<text style="fill:#000000; fill-opacity:1; font-family:Arial,Helvetica Neue,Helvetica,sans-serif; font-size:48px; text-anchor:middle;" transform="rotate(0, 2260.93, 1557.47)" x="2260.93" y="1557.47">1.00</text>
</g>
<g clip-path="url(#clip3300)">
<text style="fill:#000000; fill-opacity:1; font-family:Arial,Helvetica Neue,Helvetica,sans-serif; font-size:48px; text-anchor:end;" transform="rotate(0, 165.504, 1481.1)" x="165.504" y="1481.1">-1.0</text>
</g>
<g clip-path="url(#clip3300)">
<text style="fill:#000000; fill-opacity:1; font-family:Arial,Helvetica Neue,Helvetica,sans-serif; font-size:48px; text-anchor:end;" transform="rotate(0, 165.504, 1136.98)" x="165.504" y="1136.98">-0.5</text>
</g>
<g clip-path="url(#clip3300)">
<text style="fill:#000000; fill-opacity:1; font-family:Arial,Helvetica Neue,Helvetica,sans-serif; font-size:48px; text-anchor:end;" transform="rotate(0, 165.504, 792.859)" x="165.504" y="792.859">0.0</text>
</g>
<g clip-path="url(#clip3300)">
<text style="fill:#000000; fill-opacity:1; font-family:Arial,Helvetica Neue,Helvetica,sans-serif; font-size:48px; text-anchor:end;" transform="rotate(0, 165.504, 448.741)" x="165.504" y="448.741">0.5</text>
</g>
<g clip-path="url(#clip3300)">
<text style="fill:#000000; fill-opacity:1; font-family:Arial,Helvetica Neue,Helvetica,sans-serif; font-size:48px; text-anchor:end;" transform="rotate(0, 165.504, 104.623)" x="165.504" y="104.623">1.0</text>
</g>
<polyline clip-path="url(#clip3302)" style="stroke:#009af9; stroke-width:4; stroke-opacity:1; fill:none" points="
  249.837,88.4582 251.803,88.4788 253.769,88.5253 255.734,88.5977 257.7,88.6959 259.666,88.8199 261.632,88.9699 263.598,89.1456 265.564,89.3472 267.53,89.5746 
  269.496,89.8279 271.461,90.1069 273.427,90.4117 275.393,90.7424 277.359,91.0988 279.325,91.481 281.291,91.8889 283.257,92.3225 285.223,92.7819 287.188,93.267 
  289.154,93.7777 291.12,94.3141 293.086,94.8762 295.052,95.4639 297.018,96.0771 298.984,96.716 300.95,97.3804 302.915,98.0703 304.881,98.7857 306.847,99.5266 
  308.813,100.293 310.779,101.085 312.745,101.902 314.711,102.744 316.677,103.612 318.642,104.505 320.608,105.424 322.574,106.367 324.54,107.336 326.506,108.33 
  328.472,109.349 330.438,110.393 332.404,111.462 334.369,112.556 336.335,113.675 338.301,114.819 340.267,115.988 342.233,117.182 344.199,118.4 346.165,119.644 
  348.131,120.912 350.096,122.204 352.062,123.521 354.028,124.863 355.994,126.229 357.96,127.62 359.926,129.035 361.892,130.474 363.858,131.938 365.823,133.425 
  367.789,134.937 369.755,136.474 371.721,138.034 373.687,139.618 375.653,141.226 377.619,142.858 379.585,144.514 381.55,146.193 383.516,147.897 385.482,149.623 
  387.448,151.374 389.414,153.148 391.38,154.945 393.346,156.766 395.312,158.61 397.277,160.477 399.243,162.367 401.209,164.281 403.175,166.217 405.141,168.176 
  407.107,170.159 409.073,172.164 411.039,174.191 413.004,176.242 414.97,178.315 416.936,180.41 418.902,182.528 420.868,184.668 422.834,186.83 424.8,189.015 
  426.766,191.221 428.731,193.45 430.697,195.7 432.663,197.973 434.629,200.267 436.595,202.582 438.561,204.92 440.527,207.278 442.493,209.659 444.458,212.06 
  446.424,214.483 448.39,216.926 450.356,219.391 452.322,221.877 454.288,224.383 456.254,226.911 458.22,229.459 460.185,232.027 462.151,234.616 464.117,237.225 
  466.083,239.855 468.049,242.505 470.015,245.174 471.981,247.864 473.947,250.574 475.912,253.303 477.878,256.052 479.844,258.821 481.81,261.609 483.776,264.416 
  485.742,267.243 487.708,270.088 489.674,272.953 491.639,275.837 493.605,278.739 495.571,281.66 497.537,284.6 499.503,287.558 501.469,290.535 503.435,293.53 
  505.401,296.543 507.366,299.574 509.332,302.623 511.298,305.689 513.264,308.774 515.23,311.876 517.196,314.995 519.162,318.132 521.128,321.286 523.093,324.457 
  525.059,327.645 527.025,330.85 528.991,334.072 530.957,337.31 532.923,340.565 534.889,343.836 536.855,347.123 538.82,350.427 540.786,353.746 542.752,357.082 
  544.718,360.433 546.684,363.799 548.65,367.182 550.616,370.579 552.582,373.992 554.547,377.42 556.513,380.863 558.479,384.321 560.445,387.793 562.411,391.28 
  564.377,394.782 566.343,398.298 568.309,401.828 570.274,405.372 572.24,408.93 574.206,412.502 576.172,416.087 578.138,419.686 580.104,423.299 582.07,426.925 
  584.036,430.563 586.001,434.215 587.967,437.88 589.933,441.557 591.899,445.247 593.865,448.949 595.831,452.664 597.797,456.391 599.763,460.13 601.728,463.88 
  603.694,467.643 605.66,471.417 607.626,475.202 609.592,478.999 611.558,482.807 613.524,486.626 615.49,490.455 617.455,494.296 619.421,498.147 621.387,502.008 
  623.353,505.88 625.319,509.762 627.285,513.654 629.251,517.556 631.217,521.467 633.182,525.388 635.148,529.319 637.114,533.259 639.08,537.207 641.046,541.165 
  643.012,545.132 644.978,549.107 646.944,553.091 648.909,557.083 650.875,561.084 652.841,565.092 654.807,569.108 656.773,573.133 658.739,577.164 660.705,581.204 
  662.671,585.25 664.636,589.304 666.602,593.365 668.568,597.432 670.534,601.506 672.5,605.587 674.466,609.674 676.432,613.768 678.398,617.867 680.363,621.973 
  682.329,626.084 684.295,630.201 686.261,634.323 688.227,638.451 690.193,642.583 692.159,646.721 694.125,650.864 696.09,655.011 698.056,659.163 700.022,663.319 
  701.988,667.48 703.954,671.644 705.92,675.812 707.886,679.985 709.852,684.16 711.817,688.339 713.783,692.522 715.749,696.707 717.715,700.896 719.681,705.087 
  721.647,709.281 723.613,713.478 725.579,717.676 727.544,721.877 729.51,726.08 731.476,730.285 733.442,734.492 735.408,738.7 737.374,742.909 739.34,747.12 
  741.306,751.332 743.271,755.544 745.237,759.758 747.203,763.972 749.169,768.186 751.135,772.401 753.101,776.615 755.067,780.83 757.033,785.045 758.999,789.259 
  760.964,793.472 762.93,797.685 764.896,801.897 766.862,806.109 768.828,810.318 770.794,814.527 772.76,818.734 774.726,822.94 776.691,827.144 778.657,831.345 
  780.623,835.545 782.589,839.742 784.555,843.937 786.521,848.13 788.487,852.319 790.453,856.506 792.418,860.69 794.384,864.87 796.35,869.048 798.316,873.221 
  800.282,877.391 802.248,881.557 804.214,885.719 806.18,889.877 808.145,894.031 810.111,898.18 812.077,902.324 814.043,906.464 816.009,910.599 817.975,914.729 
  819.941,918.853 821.907,922.972 823.872,927.086 825.838,931.194 827.804,935.295 829.77,939.391 831.736,943.481 833.702,947.564 835.668,951.641 837.634,955.712 
  839.599,959.775 841.565,963.832 843.531,967.881 845.497,971.923 847.463,975.958 849.429,979.985 851.395,984.005 853.361,988.017 855.326,992.02 857.292,996.016 
  859.258,1000 861.224,1003.98 863.19,1007.95 865.156,1011.91 867.122,1015.87 869.088,1019.81 871.053,1023.74 873.019,1027.67 874.985,1031.58 876.951,1035.49 
  878.917,1039.39 880.883,1043.27 882.849,1047.15 884.815,1051.01 886.78,1054.87 888.746,1058.71 890.712,1062.55 892.678,1066.37 894.644,1070.18 896.61,1073.98 
  898.576,1077.77 900.542,1081.55 902.507,1085.32 904.473,1089.08 906.439,1092.82 908.405,1096.55 910.371,1100.27 912.337,1103.98 914.303,1107.67 916.269,1111.35 
  918.234,1115.02 920.2,1118.68 922.166,1122.33 924.132,1125.96 926.098,1129.57 928.064,1133.18 930.03,1136.77 931.996,1140.35 933.961,1143.91 935.927,1147.46 
  937.893,1151 939.859,1154.52 941.825,1158.03 943.791,1161.52 945.757,1165 947.723,1168.46 949.688,1171.91 951.654,1175.34 953.62,1178.76 955.586,1182.17 
  957.552,1185.55 959.518,1188.93 961.484,1192.29 963.45,1195.63 965.415,1198.95 967.381,1202.26 969.347,1205.56 971.313,1208.83 973.279,1212.1 975.245,1215.34 
  977.211,1218.57 979.177,1221.78 981.142,1224.98 983.108,1228.15 985.074,1231.31 987.04,1234.46 989.006,1237.58 990.972,1240.69 992.938,1243.79 994.904,1246.86 
  996.869,1249.92 998.835,1252.95 1000.8,1255.97 1002.77,1258.98 1004.73,1261.96 1006.7,1264.93 1008.66,1267.87 1010.63,1270.8 1012.6,1273.71 1014.56,1276.6 
  1016.53,1279.48 1018.49,1282.33 1020.46,1285.16 1022.43,1287.98 1024.39,1290.77 1026.36,1293.55 1028.32,1296.31 1030.29,1299.04 1032.26,1301.76 1034.22,1304.46 
  1036.19,1307.14 1038.15,1309.8 1040.12,1312.43 1042.08,1315.05 1044.05,1317.65 1046.02,1320.22 1047.98,1322.78 1049.95,1325.32 1051.91,1327.83 1053.88,1330.33 
  1055.85,1332.8 1057.81,1335.25 1059.78,1337.68 1061.74,1340.09 1063.71,1342.48 1065.68,1344.85 1067.64,1347.19 1069.61,1349.52 1071.57,1351.82 1073.54,1354.1 
  1075.5,1356.36 1077.47,1358.6 1079.44,1360.82 1081.4,1363.01 1083.37,1365.18 1085.33,1367.33 1087.3,1369.46 1089.27,1371.56 1091.23,1373.64 1093.2,1375.7 
  1095.16,1377.74 1097.13,1379.75 1099.09,1381.74 1101.06,1383.71 1103.03,1385.66 1104.99,1387.58 1106.96,1389.48 1108.92,1391.36 1110.89,1393.21 1112.86,1395.04 
  1114.82,1396.85 1116.79,1398.63 1118.75,1400.39 1120.72,1402.13 1122.69,1403.84 1124.65,1405.53 1126.62,1407.19 1128.58,1408.84 1130.55,1410.45 1132.51,1412.05 
  1134.48,1413.62 1136.45,1415.16 1138.41,1416.69 1140.38,1418.18 1142.34,1419.66 1144.31,1421.11 1146.28,1422.53 1148.24,1423.93 1150.21,1425.31 1152.17,1426.66 
  1154.14,1427.99 1156.11,1429.29 1158.07,1430.57 1160.04,1431.82 1162,1433.05 1163.97,1434.25 1165.93,1435.43 1167.9,1436.58 1169.87,1437.71 1171.83,1438.82 
  1173.8,1439.9 1175.76,1440.95 1177.73,1441.98 1179.7,1442.98 1181.66,1443.96 1183.63,1444.92 1185.59,1445.85 1187.56,1446.75 1189.53,1447.63 1191.49,1448.48 
  1193.46,1449.31 1195.42,1450.11 1197.39,1450.89 1199.35,1451.64 1201.32,1452.36 1203.29,1453.06 1205.25,1453.74 1207.22,1454.39 1209.18,1455.01 1211.15,1455.61 
  1213.12,1456.18 1215.08,1456.73 1217.05,1457.25 1219.01,1457.74 1220.98,1458.21 1222.95,1458.66 1224.91,1459.08 1226.88,1459.47 1228.84,1459.84 1230.81,1460.18 
  1232.77,1460.49 1234.74,1460.78 1236.71,1461.04 1238.67,1461.28 1240.64,1461.49 1242.6,1461.68 1244.57,1461.84 1246.54,1461.98 1248.5,1462.08 1250.47,1462.17 
  1252.43,1462.22 1254.4,1462.26 1256.36,1462.26 1258.33,1462.24 1260.3,1462.19 1262.26,1462.12 1264.23,1462.02 1266.19,1461.9 1268.16,1461.75 1270.13,1461.57 
  1272.09,1461.37 1274.06,1461.14 1276.02,1460.89 1277.99,1460.61 1279.96,1460.31 1281.92,1459.98 1283.89,1459.62 1285.85,1459.24 1287.82,1458.83 1289.78,1458.4 
  1291.75,1457.94 1293.72,1457.45 1295.68,1456.94 1297.65,1456.4 1299.61,1455.84 1301.58,1455.25 1303.55,1454.64 1305.51,1454 1307.48,1453.34 1309.44,1452.65 
  1311.41,1451.93 1313.38,1451.19 1315.34,1450.43 1317.31,1449.63 1319.27,1448.82 1321.24,1447.97 1323.2,1447.11 1325.17,1446.21 1327.14,1445.3 1329.1,1444.35 
  1331.07,1443.38 1333.03,1442.39 1335,1441.37 1336.97,1440.33 1338.93,1439.26 1340.9,1438.16 1342.86,1437.04 1344.83,1435.9 1346.8,1434.73 1348.76,1433.54 
  1350.73,1432.32 1352.69,1431.08 1354.66,1429.81 1356.62,1428.51 1358.59,1427.2 1360.56,1425.86 1362.52,1424.49 1364.49,1423.1 1366.45,1421.68 1368.42,1420.24 
  1370.39,1418.78 1372.35,1417.29 1374.32,1415.78 1376.28,1414.25 1378.25,1412.69 1380.22,1411.1 1382.18,1409.49 1384.15,1407.86 1386.11,1406.21 1388.08,1404.53 
  1390.04,1402.82 1392.01,1401.1 1393.98,1399.35 1395.94,1397.57 1397.91,1395.77 1399.87,1393.95 1401.84,1392.11 1403.81,1390.24 1405.77,1388.35 1407.74,1386.44 
  1409.7,1384.5 1411.67,1382.54 1413.63,1380.56 1415.6,1378.56 1417.57,1376.53 1419.53,1374.48 1421.5,1372.4 1423.46,1370.31 1425.43,1368.19 1427.4,1366.05 
  1429.36,1363.89 1431.33,1361.7 1433.29,1359.5 1435.26,1357.27 1437.23,1355.02 1439.19,1352.75 1441.16,1350.45 1443.12,1348.14 1445.09,1345.8 1447.05,1343.44 
  1449.02,1341.06 1450.99,1338.66 1452.95,1336.24 1454.92,1333.79 1456.88,1331.33 1458.85,1328.84 1460.82,1326.34 1462.78,1323.81 1464.75,1321.26 1466.71,1318.69 
  1468.68,1316.1 1470.65,1313.49 1472.61,1310.86 1474.58,1308.21 1476.54,1305.54 1478.51,1302.85 1480.47,1300.15 1482.44,1297.42 1484.41,1294.67 1486.37,1291.9 
  1488.34,1289.11 1490.3,1286.3 1492.27,1283.48 1494.24,1280.63 1496.2,1277.77 1498.17,1274.88 1500.13,1271.98 1502.1,1269.06 1504.07,1266.12 1506.03,1263.16 
  1508,1260.18 1509.96,1257.19 1511.93,1254.18 1513.89,1251.15 1515.86,1248.1 1517.83,1245.03 1519.79,1241.94 1521.76,1238.84 1523.72,1235.72 1525.69,1232.59 
  1527.66,1229.43 1529.62,1226.26 1531.59,1223.07 1533.55,1219.87 1535.52,1216.65 1537.49,1213.41 1539.45,1210.15 1541.42,1206.88 1543.38,1203.6 1545.35,1200.29 
  1547.31,1196.97 1549.28,1193.64 1551.25,1190.29 1553.21,1186.92 1555.18,1183.54 1557.14,1180.14 1559.11,1176.73 1561.08,1173.3 1563.04,1169.86 1565.01,1166.4 
  1566.97,1162.93 1568.94,1159.44 1570.9,1155.94 1572.87,1152.42 1574.84,1148.89 1576.8,1145.35 1578.77,1141.79 1580.73,1138.22 1582.7,1134.63 1584.67,1131.03 
  1586.63,1127.42 1588.6,1123.79 1590.56,1120.16 1592.53,1116.5 1594.5,1112.84 1596.46,1109.16 1598.43,1105.47 1600.39,1101.77 1602.36,1098.05 1604.32,1094.33 
  1606.29,1090.59 1608.26,1086.84 1610.22,1083.08 1612.19,1079.3 1614.15,1075.52 1616.12,1071.72 1618.09,1067.91 1620.05,1064.09 1622.02,1060.26 1623.98,1056.42 
  1625.95,1052.57 1627.92,1048.71 1629.88,1044.84 1631.85,1040.96 1633.81,1037.06 1635.78,1033.16 1637.74,1029.25 1639.71,1025.33 1641.68,1021.4 1643.64,1017.46 
  1645.61,1013.51 1647.57,1009.55 1649.54,1005.59 1651.51,1001.61 1653.47,997.628 1655.44,993.636 1657.4,989.635 1659.37,985.627 1661.34,981.61 1663.3,977.586 
  1665.27,973.554 1667.23,969.515 1669.2,965.469 1671.16,961.415 1673.13,957.354 1675.1,953.287 1677.06,949.213 1679.03,945.132 1680.99,941.045 1682.96,936.951 
  1684.93,932.852 1686.89,928.746 1688.86,924.635 1690.82,920.518 1692.79,916.396 1694.76,912.268 1696.72,908.135 1698.69,903.998 1700.65,899.855 1702.62,895.708 
  1704.58,891.556 1706.55,887.4 1708.52,883.239 1710.48,879.075 1712.45,874.906 1714.41,870.734 1716.38,866.559 1718.35,862.379 1720.31,858.197 1722.28,854.011 
  1724.24,849.823 1726.21,845.632 1728.17,841.438 1730.14,837.241 1732.11,833.042 1734.07,828.841 1736.04,824.638 1738,820.434 1739.97,816.227 1741.94,812.019 
  1743.9,807.81 1745.87,803.599 1747.83,799.387 1749.8,795.175 1751.77,790.961 1753.73,786.747 1755.7,782.533 1757.66,778.318 1759.63,774.103 1761.59,769.889 
  1763.56,765.674 1765.53,761.46 1767.49,757.246 1769.46,753.034 1771.42,748.821 1773.39,744.61 1775.36,740.4 1777.32,736.192 1779.29,731.985 1781.25,727.779 
  1783.22,723.575 1785.19,719.374 1787.15,715.174 1789.12,710.976 1791.08,706.781 1793.05,702.589 1795.01,698.399 1796.98,694.213 1798.95,690.029 1800.91,685.848 
  1802.88,681.671 1804.84,677.498 1806.81,673.328 1808.78,669.162 1810.74,665 1812.71,660.842 1814.67,656.688 1816.64,652.539 1818.61,648.394 1820.57,644.255 
  1822.54,640.12 1824.5,635.99 1826.47,631.866 1828.43,627.747 1830.4,623.633 1832.37,619.525 1834.33,615.423 1836.3,611.327 1838.26,607.238 1840.23,603.154 
  1842.2,599.077 1844.16,595.007 1846.13,590.944 1848.09,586.887 1850.06,582.838 1852.03,578.795 1853.99,574.761 1855.96,570.733 1857.92,566.714 1859.89,562.702 
  1861.85,558.699 1863.82,554.703 1865.79,550.716 1867.75,546.737 1869.72,542.767 1871.68,538.805 1873.65,534.853 1875.62,530.91 1877.58,526.975 1879.55,523.05 
  1881.51,519.135 1883.48,515.229 1885.44,511.333 1887.41,507.447 1889.38,503.571 1891.34,499.706 1893.31,495.85 1895.27,492.006 1897.24,488.172 1899.21,484.348 
  1901.17,480.536 1903.14,476.735 1905.1,472.945 1907.07,469.166 1909.04,465.399 1911,461.644 1912.97,457.9 1914.93,454.168 1916.9,450.449 1918.86,446.741 
  1920.83,443.047 1922.8,439.364 1924.76,435.694 1926.73,432.037 1928.69,428.393 1930.66,424.762 1932.63,421.144 1934.59,417.54 1936.56,413.949 1938.52,410.371 
  1940.49,406.808 1942.46,403.258 1944.42,399.722 1946.39,396.201 1948.35,392.693 1950.32,389.2 1952.28,385.722 1954.25,382.258 1956.22,378.809 1958.18,375.375 
  1960.15,371.956 1962.11,368.553 1964.08,365.164 1966.05,361.791 1968.01,358.434 1969.98,355.092 1971.94,351.766 1973.91,348.456 1975.88,345.162 1977.84,341.884 
  1979.81,338.623 1981.77,335.378 1983.74,332.15 1985.7,328.938 1987.67,325.743 1989.64,322.565 1991.6,319.404 1993.57,316.261 1995.53,313.134 1997.5,310.025 
  1999.47,306.934 2001.43,303.86 2003.4,300.804 2005.36,297.765 2007.33,294.745 2009.3,291.743 2011.26,288.759 2013.23,285.793 2015.19,282.846 2017.16,279.917 
  2019.12,277.007 2021.09,274.116 2023.06,271.244 2025.02,268.39 2026.99,265.556 2028.95,262.741 2030.92,259.945 2032.89,257.168 2034.85,254.411 2036.82,251.674 
  2038.78,248.956 2040.75,246.259 2042.71,243.581 2044.68,240.923 2046.65,238.285 2048.61,235.668 2050.58,233.071 2052.54,230.494 2054.51,227.938 2056.48,225.402 
  2058.44,222.887 2060.41,220.393 2062.37,217.92 2064.34,215.467 2066.31,213.036 2068.27,210.626 2070.24,208.237 2072.2,205.87 2074.17,203.524 2076.13,201.2 
  2078.1,198.897 2080.07,196.616 2082.03,194.357 2084,192.119 2085.96,189.904 2087.93,187.71 2089.9,185.539 2091.86,183.39 2093.83,181.263 2095.79,179.159 
  2097.76,177.077 2099.73,175.017 2101.69,172.98 2103.66,170.966 2105.62,168.975 2107.59,167.006 2109.55,165.06 2111.52,163.138 2113.49,161.238 2115.45,159.361 
  2117.42,157.508 2119.38,155.678 2121.35,153.871 2123.32,152.088 2125.28,150.328 2127.25,148.591 2129.21,146.879 2131.18,145.19 2133.15,143.524 2135.11,141.883 
  2137.08,140.265 2139.04,138.671 2141.01,137.101 2142.97,135.555 2144.94,134.034 2146.91,132.536 2148.87,131.062 2150.84,129.613 2152.8,128.189 2154.77,126.788 
  2156.74,125.412 2158.7,124.06 2160.67,122.733 2162.63,121.431 2164.6,120.153 2166.57,118.9 2168.53,117.671 2170.5,116.468 2172.46,115.289 2174.43,114.135 
  2176.39,113.005 2178.36,111.901 2180.33,110.822 2182.29,109.768 2184.26,108.739 2186.22,107.735 2188.19,106.756 2190.16,105.802 2192.12,104.873 2194.09,103.97 
  2196.05,103.092 2198.02,102.239 2199.99,101.412 2201.95,100.61 2203.92,99.8331 2205.88,99.082 2207.85,98.3563 2209.81,97.656 2211.78,96.9813 2213.75,96.3322 
  2215.71,95.7086 2217.68,95.1105 2219.64,94.5381 2221.61,93.9914 2223.58,93.4702 2225.54,92.9748 2227.51,92.505 2229.47,92.061 2231.44,91.6427 2233.4,91.2501 
  2235.37,90.8833 2237.34,90.5422 2239.3,90.227 2241.27,89.9375 2243.23,89.6738 2245.2,89.436 2247.17,89.2239 2249.13,89.0378 2251.1,88.8774 2253.06,88.7429 
  2255.03,88.6342 2257,88.5514 2258.96,88.4945 2260.93,88.4634 
  "/>
<polygon clip-path="url(#clip3300)" points="
1559.88,251.724 2249.26,251.724 2249.26,130.764 1559.88,130.764 
  " fill="#ffffff" fill-rule="evenodd" fill-opacity="1"/>
<polyline clip-path="url(#clip3300)" style="stroke:#000000; stroke-width:4; stroke-opacity:1; fill:none" points="
  1559.88,251.724 2249.26,251.724 2249.26,130.764 1559.88,130.764 1559.88,251.724 
  "/>
<polyline clip-path="url(#clip3300)" style="stroke:#009af9; stroke-width:4; stroke-opacity:1; fill:none" points="
  1583.88,191.244 1727.88,191.244 
  "/>
<g clip-path="url(#clip3300)">
<text style="fill:#000000; fill-opacity:1; font-family:Arial,Helvetica Neue,Helvetica,sans-serif; font-size:48px; text-anchor:start;" transform="rotate(0, 1751.88, 208.744)" x="1751.88" y="208.744">oczyszczony cosinus</text>
</g>
</svg>
